<mxfile host="app.diagrams.net" modified="2023-03-03T09:51:09.115Z" agent="5.0 (Macintosh; Intel Mac OS X 10_15_7) AppleWebKit/537.36 (KHTML, like Gecko) Chrome/110.0.0.0 Safari/537.36" etag="D9SVNLrLctvKQBdLPjhJ" version="21.0.1" type="github">
  <diagram name="第 1 页" id="7BfEq5ugZkzzUlGY_Fbk">
    <mxGraphModel dx="794" dy="493" grid="1" gridSize="10" guides="1" tooltips="1" connect="1" arrows="1" fold="1" page="1" pageScale="1" pageWidth="827" pageHeight="1169" math="0" shadow="0">
      <root>
        <mxCell id="0" />
        <mxCell id="1" parent="0" />
        <mxCell id="ytXNlUIByku6kUDmRZkM-39" value="......" style="rounded=1;whiteSpace=wrap;html=1;absoluteArcSize=1;arcSize=14;strokeWidth=1;dashed=1;" vertex="1" parent="1">
          <mxGeometry x="650" y="700" width="140" height="330" as="geometry" />
        </mxCell>
        <mxCell id="ytXNlUIByku6kUDmRZkM-6" value="" style="rounded=0;whiteSpace=wrap;html=1;fontSize=11;" vertex="1" parent="1">
          <mxGeometry x="930" y="70" width="110" height="380" as="geometry" />
        </mxCell>
        <mxCell id="ytXNlUIByku6kUDmRZkM-5" value="" style="rounded=0;whiteSpace=wrap;html=1;fontSize=11;" vertex="1" parent="1">
          <mxGeometry x="820" y="70" width="100" height="380" as="geometry" />
        </mxCell>
        <mxCell id="ytXNlUIByku6kUDmRZkM-4" value="" style="rounded=0;whiteSpace=wrap;html=1;fontSize=11;" vertex="1" parent="1">
          <mxGeometry x="710" y="70" width="100" height="380" as="geometry" />
        </mxCell>
        <mxCell id="2VuCysZ85ViJY6jnTXbk-42" value="" style="rounded=0;whiteSpace=wrap;html=1;fontSize=11;" parent="1" vertex="1">
          <mxGeometry x="150" y="70" width="550" height="90" as="geometry" />
        </mxCell>
        <mxCell id="2VuCysZ85ViJY6jnTXbk-36" value="" style="rounded=0;whiteSpace=wrap;html=1;fontSize=11;" parent="1" vertex="1">
          <mxGeometry x="150" y="170" width="550" height="110" as="geometry" />
        </mxCell>
        <mxCell id="2VuCysZ85ViJY6jnTXbk-35" value="" style="rounded=0;whiteSpace=wrap;html=1;fontSize=11;" parent="1" vertex="1">
          <mxGeometry x="150" y="290" width="550" height="160" as="geometry" />
        </mxCell>
        <mxCell id="2VuCysZ85ViJY6jnTXbk-1" value="BaseWidget" style="rounded=0;whiteSpace=wrap;html=1;" parent="1" vertex="1">
          <mxGeometry x="160" y="350" width="80" height="40" as="geometry" />
        </mxCell>
        <mxCell id="2VuCysZ85ViJY6jnTXbk-2" value="TextWidget" style="rounded=0;whiteSpace=wrap;html=1;" parent="1" vertex="1">
          <mxGeometry x="250" y="350" width="80" height="40" as="geometry" />
        </mxCell>
        <mxCell id="2VuCysZ85ViJY6jnTXbk-3" value="ImgWidget" style="rounded=0;whiteSpace=wrap;html=1;" parent="1" vertex="1">
          <mxGeometry x="340" y="350" width="80" height="40" as="geometry" />
        </mxCell>
        <mxCell id="2VuCysZ85ViJY6jnTXbk-4" value="LatexWidget" style="rounded=0;whiteSpace=wrap;html=1;" parent="1" vertex="1">
          <mxGeometry x="430" y="350" width="80" height="40" as="geometry" />
        </mxCell>
        <mxCell id="2VuCysZ85ViJY6jnTXbk-5" value="ChoiceWidget" style="rounded=0;whiteSpace=wrap;html=1;" parent="1" vertex="1">
          <mxGeometry x="520" y="350" width="80" height="40" as="geometry" />
        </mxCell>
        <mxCell id="2VuCysZ85ViJY6jnTXbk-6" value="BlankWidget" style="rounded=0;whiteSpace=wrap;html=1;" parent="1" vertex="1">
          <mxGeometry x="610" y="350" width="80" height="40" as="geometry" />
        </mxCell>
        <mxCell id="2VuCysZ85ViJY6jnTXbk-7" value="Text" style="rounded=0;whiteSpace=wrap;html=1;" parent="1" vertex="1">
          <mxGeometry x="250" y="400" width="80" height="40" as="geometry" />
        </mxCell>
        <mxCell id="2VuCysZ85ViJY6jnTXbk-8" value="......" style="rounded=0;whiteSpace=wrap;html=1;" parent="1" vertex="1">
          <mxGeometry x="610" y="400" width="80" height="40" as="geometry" />
        </mxCell>
        <mxCell id="2VuCysZ85ViJY6jnTXbk-9" value="Paragraph" style="rounded=0;whiteSpace=wrap;html=1;" parent="1" vertex="1">
          <mxGeometry x="160" y="300" width="80" height="40" as="geometry" />
        </mxCell>
        <mxCell id="2VuCysZ85ViJY6jnTXbk-10" value="Writer" style="rounded=0;whiteSpace=wrap;html=1;" parent="1" vertex="1">
          <mxGeometry x="160" y="230" width="80" height="40" as="geometry" />
        </mxCell>
        <mxCell id="2VuCysZ85ViJY6jnTXbk-11" value="Question-to-Paragraph" style="rounded=0;whiteSpace=wrap;html=1;" parent="1" vertex="1">
          <mxGeometry x="250" y="230" width="260" height="40" as="geometry" />
        </mxCell>
        <mxCell id="2VuCysZ85ViJY6jnTXbk-12" value="factory" style="rounded=0;whiteSpace=wrap;html=1;" parent="1" vertex="1">
          <mxGeometry x="830" y="160" width="80" height="40" as="geometry" />
        </mxCell>
        <mxCell id="2VuCysZ85ViJY6jnTXbk-13" value="Document" style="rounded=0;whiteSpace=wrap;html=1;" parent="1" vertex="1">
          <mxGeometry x="160" y="180" width="80" height="40" as="geometry" />
        </mxCell>
        <mxCell id="2VuCysZ85ViJY6jnTXbk-14" value="Page" style="rounded=0;whiteSpace=wrap;html=1;" parent="1" vertex="1">
          <mxGeometry x="340" y="180" width="80" height="40" as="geometry" />
        </mxCell>
        <mxCell id="2VuCysZ85ViJY6jnTXbk-15" value="Column" style="rounded=0;whiteSpace=wrap;html=1;" parent="1" vertex="1">
          <mxGeometry x="430" y="180" width="80" height="40" as="geometry" />
        </mxCell>
        <mxCell id="2VuCysZ85ViJY6jnTXbk-16" value="Line" style="rounded=0;whiteSpace=wrap;html=1;" parent="1" vertex="1">
          <mxGeometry x="520" y="180" width="80" height="40" as="geometry" />
        </mxCell>
        <mxCell id="2VuCysZ85ViJY6jnTXbk-17" value="WidgetRun" style="rounded=0;whiteSpace=wrap;html=1;" parent="1" vertex="1">
          <mxGeometry x="610" y="180" width="80" height="40" as="geometry" />
        </mxCell>
        <mxCell id="2VuCysZ85ViJY6jnTXbk-19" value="EditorPanel" style="rounded=0;whiteSpace=wrap;html=1;" parent="1" vertex="1">
          <mxGeometry x="940" y="110" width="90" height="40" as="geometry" />
        </mxCell>
        <mxCell id="2VuCysZ85ViJY6jnTXbk-20" value="ExamSetting" style="rounded=0;whiteSpace=wrap;html=1;" parent="1" vertex="1">
          <mxGeometry x="940" y="260" width="90" height="40" as="geometry" />
        </mxCell>
        <mxCell id="2VuCysZ85ViJY6jnTXbk-21" value="FormulaEditor" style="rounded=0;whiteSpace=wrap;html=1;" parent="1" vertex="1">
          <mxGeometry x="940" y="210" width="90" height="40" as="geometry" />
        </mxCell>
        <mxCell id="2VuCysZ85ViJY6jnTXbk-22" value="&lt;font style=&quot;font-size: 11px;&quot;&gt;NumForWidget&lt;/font&gt;" style="rounded=0;whiteSpace=wrap;html=1;fontSize=10;" parent="1" vertex="1">
          <mxGeometry x="940" y="160" width="90" height="40" as="geometry" />
        </mxCell>
        <mxCell id="2VuCysZ85ViJY6jnTXbk-23" value="&lt;font style=&quot;font-size: 11px;&quot;&gt;base-style&lt;/font&gt;" style="rounded=0;whiteSpace=wrap;html=1;fontSize=10;" parent="1" vertex="1">
          <mxGeometry x="720" y="210" width="80" height="40" as="geometry" />
        </mxCell>
        <mxCell id="2VuCysZ85ViJY6jnTXbk-24" value="&lt;font style=&quot;font-size: 11px;&quot;&gt;choice-config&lt;/font&gt;" style="rounded=0;whiteSpace=wrap;html=1;fontSize=10;" parent="1" vertex="1">
          <mxGeometry x="720" y="260" width="80" height="40" as="geometry" />
        </mxCell>
        <mxCell id="2VuCysZ85ViJY6jnTXbk-25" value="&lt;font style=&quot;font-size: 11px;&quot;&gt;blank-config&lt;/font&gt;" style="rounded=0;whiteSpace=wrap;html=1;fontSize=10;" parent="1" vertex="1">
          <mxGeometry x="720" y="110" width="80" height="40" as="geometry" />
        </mxCell>
        <mxCell id="2VuCysZ85ViJY6jnTXbk-26" value="&lt;font style=&quot;font-size: 11px;&quot;&gt;paper-config&lt;/font&gt;" style="rounded=0;whiteSpace=wrap;html=1;fontSize=10;" parent="1" vertex="1">
          <mxGeometry x="720" y="160" width="80" height="40" as="geometry" />
        </mxCell>
        <mxCell id="2VuCysZ85ViJY6jnTXbk-28" value="&lt;font style=&quot;font-size: 11px;&quot;&gt;fill-utils&lt;/font&gt;" style="rounded=0;whiteSpace=wrap;html=1;fontSize=10;" parent="1" vertex="1">
          <mxGeometry x="830" y="310" width="80" height="40" as="geometry" />
        </mxCell>
        <mxCell id="2VuCysZ85ViJY6jnTXbk-29" value="&lt;font style=&quot;font-size: 11px;&quot;&gt;getBoxes&lt;/font&gt;" style="rounded=0;whiteSpace=wrap;html=1;fontSize=10;" parent="1" vertex="1">
          <mxGeometry x="830" y="360" width="80" height="40" as="geometry" />
        </mxCell>
        <mxCell id="2VuCysZ85ViJY6jnTXbk-30" value="&lt;span style=&quot;font-size: 11px;&quot;&gt;......&lt;/span&gt;" style="rounded=0;whiteSpace=wrap;html=1;fontSize=10;" parent="1" vertex="1">
          <mxGeometry x="830" y="410" width="80" height="30" as="geometry" />
        </mxCell>
        <mxCell id="2VuCysZ85ViJY6jnTXbk-31" value="&lt;font style=&quot;font-size: 11px;&quot;&gt;mathJax&lt;/font&gt;" style="rounded=0;whiteSpace=wrap;html=1;fontSize=10;" parent="1" vertex="1">
          <mxGeometry x="830" y="210" width="80" height="40" as="geometry" />
        </mxCell>
        <mxCell id="2VuCysZ85ViJY6jnTXbk-32" value="&lt;font style=&quot;font-size: 11px;&quot;&gt;question-analyzer&lt;/font&gt;" style="rounded=0;whiteSpace=wrap;html=1;fontSize=10;" parent="1" vertex="1">
          <mxGeometry x="830" y="110" width="80" height="40" as="geometry" />
        </mxCell>
        <mxCell id="2VuCysZ85ViJY6jnTXbk-33" value="&lt;font style=&quot;font-size: 11px;&quot;&gt;text-utils&lt;/font&gt;" style="rounded=0;whiteSpace=wrap;html=1;fontSize=10;" parent="1" vertex="1">
          <mxGeometry x="830" y="260" width="80" height="40" as="geometry" />
        </mxCell>
        <mxCell id="2VuCysZ85ViJY6jnTXbk-34" value="Recalculate" style="rounded=0;whiteSpace=wrap;html=1;" parent="1" vertex="1">
          <mxGeometry x="250" y="180" width="80" height="40" as="geometry" />
        </mxCell>
        <mxCell id="2VuCysZ85ViJY6jnTXbk-37" value="DocumentView" style="rounded=0;whiteSpace=wrap;html=1;" parent="1" vertex="1">
          <mxGeometry x="160" y="110" width="90" height="40" as="geometry" />
        </mxCell>
        <mxCell id="2VuCysZ85ViJY6jnTXbk-38" value="PageView" style="rounded=0;whiteSpace=wrap;html=1;" parent="1" vertex="1">
          <mxGeometry x="260" y="110" width="80" height="40" as="geometry" />
        </mxCell>
        <mxCell id="2VuCysZ85ViJY6jnTXbk-39" value="ColumnView" style="rounded=0;whiteSpace=wrap;html=1;" parent="1" vertex="1">
          <mxGeometry x="350" y="110" width="80" height="40" as="geometry" />
        </mxCell>
        <mxCell id="2VuCysZ85ViJY6jnTXbk-40" value="LineView" style="rounded=0;whiteSpace=wrap;html=1;" parent="1" vertex="1">
          <mxGeometry x="440" y="110" width="80" height="40" as="geometry" />
        </mxCell>
        <mxCell id="2VuCysZ85ViJY6jnTXbk-41" value="......" style="rounded=0;whiteSpace=wrap;html=1;" parent="1" vertex="1">
          <mxGeometry x="610" y="110" width="80" height="40" as="geometry" />
        </mxCell>
        <mxCell id="ytXNlUIByku6kUDmRZkM-2" value="......" style="rounded=0;whiteSpace=wrap;html=1;" vertex="1" parent="1">
          <mxGeometry x="720" y="400" width="80" height="40" as="geometry" />
        </mxCell>
        <mxCell id="ytXNlUIByku6kUDmRZkM-3" value="......" style="rounded=0;whiteSpace=wrap;html=1;" vertex="1" parent="1">
          <mxGeometry x="940" y="400" width="90" height="40" as="geometry" />
        </mxCell>
        <mxCell id="ytXNlUIByku6kUDmRZkM-7" value="......" style="rounded=0;whiteSpace=wrap;html=1;" vertex="1" parent="1">
          <mxGeometry x="610" y="230" width="80" height="40" as="geometry" />
        </mxCell>
        <mxCell id="ytXNlUIByku6kUDmRZkM-8" value="&lt;font style=&quot;font-size: 16px;&quot;&gt;View&lt;/font&gt;" style="text;html=1;align=center;verticalAlign=middle;resizable=0;points=[];autosize=1;strokeColor=none;fillColor=none;" vertex="1" parent="1">
          <mxGeometry x="75" y="100" width="60" height="30" as="geometry" />
        </mxCell>
        <mxCell id="ytXNlUIByku6kUDmRZkM-9" value="&lt;font style=&quot;font-size: 16px;&quot;&gt;Engine&lt;/font&gt;" style="text;html=1;align=center;verticalAlign=middle;resizable=0;points=[];autosize=1;strokeColor=none;fillColor=none;" vertex="1" parent="1">
          <mxGeometry x="70" y="210" width="70" height="30" as="geometry" />
        </mxCell>
        <mxCell id="ytXNlUIByku6kUDmRZkM-10" value="&lt;font style=&quot;font-size: 16px;&quot;&gt;Kernel&lt;/font&gt;" style="text;html=1;align=center;verticalAlign=middle;resizable=0;points=[];autosize=1;strokeColor=none;fillColor=none;" vertex="1" parent="1">
          <mxGeometry x="70" y="355" width="70" height="30" as="geometry" />
        </mxCell>
        <mxCell id="ytXNlUIByku6kUDmRZkM-11" value="&lt;font style=&quot;font-size: 16px;&quot;&gt;Config&lt;/font&gt;" style="text;html=1;align=center;verticalAlign=middle;resizable=0;points=[];autosize=1;strokeColor=none;fillColor=none;" vertex="1" parent="1">
          <mxGeometry x="725" y="75" width="70" height="30" as="geometry" />
        </mxCell>
        <mxCell id="ytXNlUIByku6kUDmRZkM-12" value="&lt;font style=&quot;font-size: 16px;&quot;&gt;Utils&lt;/font&gt;" style="text;html=1;align=center;verticalAlign=middle;resizable=0;points=[];autosize=1;strokeColor=none;fillColor=none;" vertex="1" parent="1">
          <mxGeometry x="845" y="75" width="50" height="30" as="geometry" />
        </mxCell>
        <mxCell id="ytXNlUIByku6kUDmRZkM-13" value="&lt;span style=&quot;font-size: 18px;&quot;&gt;Component&lt;/span&gt;" style="text;html=1;align=center;verticalAlign=middle;resizable=0;points=[];autosize=1;strokeColor=none;fillColor=none;" vertex="1" parent="1">
          <mxGeometry x="925" y="70" width="120" height="40" as="geometry" />
        </mxCell>
        <mxCell id="ytXNlUIByku6kUDmRZkM-24" style="edgeStyle=orthogonalEdgeStyle;rounded=0;orthogonalLoop=1;jettySize=auto;html=1;exitX=0.5;exitY=1;exitDx=0;exitDy=0;exitPerimeter=0;entryX=0.5;entryY=0;entryDx=0;entryDy=0;" edge="1" parent="1" source="ytXNlUIByku6kUDmRZkM-14" target="ytXNlUIByku6kUDmRZkM-15">
          <mxGeometry relative="1" as="geometry" />
        </mxCell>
        <mxCell id="ytXNlUIByku6kUDmRZkM-14" value="开始" style="strokeWidth=2;html=1;shape=mxgraph.flowchart.start_1;whiteSpace=wrap;" vertex="1" parent="1">
          <mxGeometry x="500" y="620" width="80" height="30" as="geometry" />
        </mxCell>
        <mxCell id="ytXNlUIByku6kUDmRZkM-25" style="edgeStyle=orthogonalEdgeStyle;rounded=0;orthogonalLoop=1;jettySize=auto;html=1;exitX=1;exitY=0.5;exitDx=0;exitDy=0;entryX=0;entryY=0.5;entryDx=0;entryDy=0;" edge="1" parent="1" source="ytXNlUIByku6kUDmRZkM-16" target="ytXNlUIByku6kUDmRZkM-17">
          <mxGeometry relative="1" as="geometry" />
        </mxCell>
        <mxCell id="ytXNlUIByku6kUDmRZkM-32" style="edgeStyle=orthogonalEdgeStyle;rounded=0;orthogonalLoop=1;jettySize=auto;html=1;exitX=0.5;exitY=1;exitDx=0;exitDy=0;entryX=0.5;entryY=0;entryDx=0;entryDy=0;" edge="1" parent="1" source="ytXNlUIByku6kUDmRZkM-15" target="ytXNlUIByku6kUDmRZkM-16">
          <mxGeometry relative="1" as="geometry" />
        </mxCell>
        <mxCell id="ytXNlUIByku6kUDmRZkM-15" value="输入题目字符串" style="rounded=1;whiteSpace=wrap;html=1;absoluteArcSize=1;arcSize=14;strokeWidth=2;" vertex="1" parent="1">
          <mxGeometry x="480" y="680" width="120" height="40" as="geometry" />
        </mxCell>
        <mxCell id="ytXNlUIByku6kUDmRZkM-16" value="解析字符串中的内容&lt;br&gt;并进行占位" style="rounded=1;whiteSpace=wrap;html=1;absoluteArcSize=1;arcSize=14;strokeWidth=2;" vertex="1" parent="1">
          <mxGeometry x="480" y="740" width="120" height="40" as="geometry" />
        </mxCell>
        <mxCell id="ytXNlUIByku6kUDmRZkM-26" style="edgeStyle=orthogonalEdgeStyle;rounded=0;orthogonalLoop=1;jettySize=auto;html=1;exitX=0.5;exitY=1;exitDx=0;exitDy=0;entryX=0.5;entryY=0;entryDx=0;entryDy=0;" edge="1" parent="1" source="ytXNlUIByku6kUDmRZkM-17" target="ytXNlUIByku6kUDmRZkM-18">
          <mxGeometry relative="1" as="geometry" />
        </mxCell>
        <mxCell id="ytXNlUIByku6kUDmRZkM-17" value="图片解析" style="rounded=1;whiteSpace=wrap;html=1;absoluteArcSize=1;arcSize=14;strokeWidth=2;" vertex="1" parent="1">
          <mxGeometry x="660" y="740" width="120" height="40" as="geometry" />
        </mxCell>
        <mxCell id="ytXNlUIByku6kUDmRZkM-27" style="edgeStyle=orthogonalEdgeStyle;rounded=0;orthogonalLoop=1;jettySize=auto;html=1;exitX=0.5;exitY=1;exitDx=0;exitDy=0;entryX=0.5;entryY=0;entryDx=0;entryDy=0;" edge="1" parent="1" source="ytXNlUIByku6kUDmRZkM-18" target="ytXNlUIByku6kUDmRZkM-19">
          <mxGeometry relative="1" as="geometry" />
        </mxCell>
        <mxCell id="ytXNlUIByku6kUDmRZkM-18" value="括号解析" style="rounded=1;whiteSpace=wrap;html=1;absoluteArcSize=1;arcSize=14;strokeWidth=2;" vertex="1" parent="1">
          <mxGeometry x="661" y="800" width="120" height="40" as="geometry" />
        </mxCell>
        <mxCell id="ytXNlUIByku6kUDmRZkM-28" style="edgeStyle=orthogonalEdgeStyle;rounded=0;orthogonalLoop=1;jettySize=auto;html=1;exitX=0.5;exitY=1;exitDx=0;exitDy=0;entryX=0.5;entryY=0;entryDx=0;entryDy=0;" edge="1" parent="1" source="ytXNlUIByku6kUDmRZkM-19" target="ytXNlUIByku6kUDmRZkM-20">
          <mxGeometry relative="1" as="geometry" />
        </mxCell>
        <mxCell id="ytXNlUIByku6kUDmRZkM-19" value="空解析" style="rounded=1;whiteSpace=wrap;html=1;absoluteArcSize=1;arcSize=14;strokeWidth=2;" vertex="1" parent="1">
          <mxGeometry x="660" y="860" width="120" height="40" as="geometry" />
        </mxCell>
        <mxCell id="ytXNlUIByku6kUDmRZkM-30" style="edgeStyle=orthogonalEdgeStyle;rounded=0;orthogonalLoop=1;jettySize=auto;html=1;exitX=0.5;exitY=1;exitDx=0;exitDy=0;entryX=0.5;entryY=0;entryDx=0;entryDy=0;" edge="1" parent="1" source="ytXNlUIByku6kUDmRZkM-20" target="ytXNlUIByku6kUDmRZkM-29">
          <mxGeometry relative="1" as="geometry" />
        </mxCell>
        <mxCell id="ytXNlUIByku6kUDmRZkM-20" value="公式解析" style="rounded=1;whiteSpace=wrap;html=1;absoluteArcSize=1;arcSize=14;strokeWidth=2;" vertex="1" parent="1">
          <mxGeometry x="660" y="920" width="120" height="40" as="geometry" />
        </mxCell>
        <mxCell id="ytXNlUIByku6kUDmRZkM-33" style="edgeStyle=orthogonalEdgeStyle;rounded=0;orthogonalLoop=1;jettySize=auto;html=1;exitX=0.5;exitY=1;exitDx=0;exitDy=0;entryX=0.5;entryY=0;entryDx=0;entryDy=0;" edge="1" parent="1" source="ytXNlUIByku6kUDmRZkM-21" target="ytXNlUIByku6kUDmRZkM-22">
          <mxGeometry relative="1" as="geometry" />
        </mxCell>
        <mxCell id="ytXNlUIByku6kUDmRZkM-21" value="根据p标签拆分段落" style="rounded=1;whiteSpace=wrap;html=1;absoluteArcSize=1;arcSize=14;strokeWidth=2;" vertex="1" parent="1">
          <mxGeometry x="480" y="800" width="120" height="40" as="geometry" />
        </mxCell>
        <mxCell id="ytXNlUIByku6kUDmRZkM-34" style="edgeStyle=orthogonalEdgeStyle;rounded=0;orthogonalLoop=1;jettySize=auto;html=1;exitX=0.5;exitY=1;exitDx=0;exitDy=0;entryX=0.5;entryY=0;entryDx=0;entryDy=0;" edge="1" parent="1" source="ytXNlUIByku6kUDmRZkM-22" target="ytXNlUIByku6kUDmRZkM-23">
          <mxGeometry relative="1" as="geometry" />
        </mxCell>
        <mxCell id="ytXNlUIByku6kUDmRZkM-22" value="将段落内的占位内容转换为widget" style="rounded=1;whiteSpace=wrap;html=1;absoluteArcSize=1;arcSize=14;strokeWidth=2;" vertex="1" parent="1">
          <mxGeometry x="480" y="860" width="120" height="40" as="geometry" />
        </mxCell>
        <mxCell id="ytXNlUIByku6kUDmRZkM-36" style="edgeStyle=orthogonalEdgeStyle;rounded=0;orthogonalLoop=1;jettySize=auto;html=1;exitX=0.5;exitY=1;exitDx=0;exitDy=0;entryX=0.5;entryY=0;entryDx=0;entryDy=0;entryPerimeter=0;" edge="1" parent="1" source="ytXNlUIByku6kUDmRZkM-23" target="ytXNlUIByku6kUDmRZkM-35">
          <mxGeometry relative="1" as="geometry" />
        </mxCell>
        <mxCell id="ytXNlUIByku6kUDmRZkM-23" value="根据排版规则重排" style="rounded=1;whiteSpace=wrap;html=1;absoluteArcSize=1;arcSize=14;strokeWidth=2;" vertex="1" parent="1">
          <mxGeometry x="480" y="920" width="120" height="40" as="geometry" />
        </mxCell>
        <mxCell id="ytXNlUIByku6kUDmRZkM-31" style="edgeStyle=orthogonalEdgeStyle;rounded=0;orthogonalLoop=1;jettySize=auto;html=1;exitX=0;exitY=0.5;exitDx=0;exitDy=0;entryX=1;entryY=0.5;entryDx=0;entryDy=0;" edge="1" parent="1" source="ytXNlUIByku6kUDmRZkM-29" target="ytXNlUIByku6kUDmRZkM-21">
          <mxGeometry relative="1" as="geometry" />
        </mxCell>
        <mxCell id="ytXNlUIByku6kUDmRZkM-29" value="......" style="rounded=1;whiteSpace=wrap;html=1;absoluteArcSize=1;arcSize=14;strokeWidth=2;" vertex="1" parent="1">
          <mxGeometry x="660" y="980" width="120" height="40" as="geometry" />
        </mxCell>
        <mxCell id="ytXNlUIByku6kUDmRZkM-35" value="结束" style="strokeWidth=2;html=1;shape=mxgraph.flowchart.start_1;whiteSpace=wrap;" vertex="1" parent="1">
          <mxGeometry x="500" y="1000" width="80" height="30" as="geometry" />
        </mxCell>
        <mxCell id="ytXNlUIByku6kUDmRZkM-38" style="edgeStyle=orthogonalEdgeStyle;rounded=0;orthogonalLoop=1;jettySize=auto;html=1;exitX=1;exitY=0.5;exitDx=0;exitDy=0;entryX=0;entryY=0.5;entryDx=0;entryDy=0;endArrow=none;endFill=0;dashed=1;" edge="1" parent="1" source="ytXNlUIByku6kUDmRZkM-37" target="ytXNlUIByku6kUDmRZkM-15">
          <mxGeometry relative="1" as="geometry" />
        </mxCell>
        <mxCell id="ytXNlUIByku6kUDmRZkM-37" value="" style="shape=image;verticalLabelPosition=bottom;labelBackgroundColor=default;verticalAlign=top;aspect=fixed;imageAspect=0;image=data:image/png,iVBORw0KGgoAAAANSUhEUgAAA/IAAAFqCAYAAAC5yGE/AAAMTWlDQ1BJQ0MgUHJvZmlsZQAASImVlwdcU1cXwO8bmSSsQARkhL1EEQQCyAhhRRCQKYhKSAIJI4aEoOKmlCpYByqioFa0KmKx1QpInah1URT3Lg5UKrU4cKHy3QzQ2m/8vvP73ff+Offcc885ue+9ewHQq+XLZHmoPgD50kJ5fEQIa3JqGov0CCCABOjAGjD4AoWMExcXDaAM3f8ur65AaygX3VS+/tn/X8VAKFIIAEDiIGcKFYJ8yD8DgJcIZPJCAIhsqLedWShTcTpkIzkMELJMxdkaLlVxpoar1TaJ8VzIuwAg0/h8eTYAui1QzyoSZEM/utcgu0uFEikAemTIgQIxXwg5EvKo/PwZKoZ2wCnzMz/Zf/OZOeyTz88eZk0uaiGHShSyPP7s/7Mc/1vy85RDczjARhPLI+NVOcO6XcudEaViGuReaWZMLGRDyG8kQrU9ZJQqVkYmaexRc4GCC2sGmJDdhfzQKMjmkMOleTHRWn1mliScBxmuEHSWpJCXqB27WKQIS9D6rJXPiI8d4iw5l6Md28iXq+dV2R9X5iZxtP6viUW8If8vi8WJKZCpAGDUIklyDGRdyEaK3IQojQ1mUyzmxgzZyJXxqvjtILNF0ogQjX8sPUseHq+1l+UrhvLFysQSXoyWqwvFiZGa+mA7BXx1/CaQm0RSTtKQH5FicvRQLkJRaJgmd6xDJE3S5ovdkRWGxGvH9sny4rT2OFmUF6HS20A2UxQlaMfi4wvhgtT4x6NlhXGJmjjxjBz+hDhNPHgRiAZcEApYQAlbJpgBcoCko7e5F/7S9IQDPpCDbCACblrN0IgUdY8UXhNAMfgTkggohseFqHtFoAjqPwxrNVc3kKXuLVKPyAUPIeeDKJAHfyvVo6TDsyWDB1Aj+cfsAhhrHmyqvn/qOFATrdUoh/yy9IYsiWHEUGIkMZzojJvhgbg/Hg2vwbB54GzcdyjaT/aEh4ROwj3CZUIX4fp0SYn8i1gmgi7oP1ybcebnGeMO0KcXHoIHQO/QM87EzYAbPg7Ow8GD4MxeUMvVxq3KnfVv8hzO4LOaa+0o7hSUMoISTHH6cqSui67XsBdVRT+vjybWzOGqcod7vpyf+1mdhfAe9aUlthjbi53EjmKnsQNYM2Bhh7EWrB07qOLhNfRAvYaGZotXx5ML/Uj+MR9fO6eqkgr3Bvce9/faPlAomqV6PwLuDNlsuSRbXMjiwDe/iMWTCkaPYnm4e3gCoPqOaF5TL5jq7wPCPPNJV3AEAN9yqMz+pOPbArD/IQCMV590ts/h47ECgIPnBUp5kUaHqy4E+DbQg0+UKbAEtsAJZuQBvIE/CAZhYAKIBYkgFUyDdRbD9SwHM8FcsAiUgQqwAqwB68EmsAXsAD+APaAZHABHwa/gLDgPLoObcP10gyegD7wCAwiCkBA6wkBMESvEHnFFPBA2EoiEIdFIPJKKZCDZiBRRInORr5AKpBJZj2xG6pGfkP3IUeQ00olcR+4iPchz5B2KoTTUCLVAHdAxKBvloFFoIjoVzUYL0GK0FF2GVqN16C60CT2KnkUvo13oE7QfA5gOxsSsMTeMjXGxWCwNy8Lk2HysHKvC6rBGrBX+0xexLqwXe4sTcQbOwt3gGo7Ek3ABXoDPx5fi6/EdeBN+HL+I38X78I8EOsGc4ErwI/AIkwnZhJmEMkIVYRthH+EEfJq6Ca+IRCKT6Ej0gU9jKjGHOIe4lLiBuJt4hNhJvE/sJ5FIpiRXUgAplsQnFZLKSOtIu0iHSRdI3aQ3ZB2yFdmDHE5OI0vJJeQq8k7yIfIF8iPyAEWfYk/xo8RShJTZlOWUrZRWyjlKN2WAakB1pAZQE6k51EXUamoj9QT1FvWFjo6OjY6vziQdic5CnWqdH3VO6dzVeUszpLnQuLR0mpK2jLaddoR2nfaCTqc70IPpafRC+jJ6Pf0Y/Q79jS5Dd7QuT1eou0C3RrdJ94LuUz2Knr0eR2+aXrFeld5evXN6vfoUfQd9rj5ff75+jf5+/av6/QYMg7EGsQb5BksNdhqcNnhsSDJ0MAwzFBqWGm4xPGZ4n4ExbBlchoDxFWMr4wSj24ho5GjEM8oxqjD6wajDqM/Y0HiccbLxLOMa44PGXUyM6cDkMfOYy5l7mFeY70ZYjOCMEI1YMqJxxIURr01GmgSbiEzKTXabXDZ5Z8oyDTPNNV1p2mx62ww3czGbZDbTbKPZCbPekUYj/UcKRpaP3DPyhjlq7mIebz7HfIt5u3m/haVFhIXMYp3FMYteS6ZlsGWO5WrLQ5Y9VgyrQCuJ1Wqrw1Z/sIxZHFYeq5p1nNVnbW4daa203mzdYT1g42iTZFNis9vmti3Vlm2bZbvats22z87KbqLdXLsGuxv2FHu2vdh+rf1J+9cOjg4pDt84NDs8djRx5DkWOzY43nKiOwU5FTjVOV1yJjqznXOdNzifd0FdvFzELjUu51xRV29XiesG185RhFG+o6Sj6kZddaO5cdyK3Brc7o5mjo4eXTK6efTTMXZj0sasHHNyzEd3L/c8963uN8cajp0wtmRs69jnHi4eAo8aj0uedM9wzwWeLZ7PxrmOE43bOO6aF8Nrotc3Xm1eH7x9vOXejd49PnY+GT61PlfZRuw49lL2KV+Cb4jvAt8Dvm/9vP0K/fb4/eXv5p/rv9P/8XjH8aLxW8ffD7AJ4AdsDugKZAVmBH4X2BVkHcQPqgu6F2wbLAzeFvyI48zJ4eziPA1xD5GH7At5zfXjzuMeCcVCI0LLQzvCDMOSwtaH3Qm3Cc8Obwjvi/CKmBNxJJIQGRW5MvIqz4In4NXz+ib4TJg34XgULSohan3UvWiXaHl060R04oSJqybeirGPkcY0x4JYXuyq2NtxjnEFcb9MIk6Km1Qz6WH82Pi58ScTGAnTE3YmvEoMSVyeeDPJKUmZ1Jasl5yeXJ/8OiU0pTKla/KYyfMmn001S5WktqSR0pLTtqX1TwmbsmZKd7pXeln6lamOU2dNPT3NbFretIPT9abzp+/NIGSkZOzMeM+P5dfx+zN5mbWZfQKuYK3giTBYuFrYIwoQVYoeZQVkVWY9zg7IXpXdIw4SV4l7JVzJesmznMicTTmvc2Nzt+cO5qXk7c4n52fk75caSnOlx2dYzpg1o1PmKiuTdRX4Fawp6JNHybcpEMVURUuhEdywtyudlF8r7xYFFtUUvZmZPHPvLINZ0lnts11mL5n9qDi8+Ps5+BzBnLa51nMXzb07jzNv83xkfub8tgW2C0oXdC+MWLhjEXVR7qLfStxLKktefpXyVWupRenC0vtfR3zdUKZbJi+7+o3/N5sW44slizuWeC5Zt+RjubD8TIV7RVXF+6WCpWe+Hftt9beDy7KWdSz3Xr5xBXGFdMWVlUErd1QaVBZX3l81cVXTatbq8tUv10xfc7pqXNWmtdS1yrVd1dHVLevs1q1Y9369eP3lmpCa3bXmtUtqX28QbriwMXhj4yaLTRWb3n0n+e7a5ojNTXUOdVVbiFuKtjzcmrz15Pfs7+u3mW2r2PZhu3R71474Hcfrferrd5rvXN6ANigbenal7zr/Q+gPLY1ujZt3M3dX/Ah+VP74x08ZP13ZE7WnbS97b+PP9j/X7mPsK29CmmY39TWLm7taUls690/Y39bq37rvl9G/bD9gfaDmoPHB5Yeoh0oPDR4uPtx/RHak92j20ftt09tuHpt87NLxScc7TkSdOPVr+K/HTnJOHj4VcOrAab/T+8+wzzSf9T7b1O7Vvu83r9/2dXh3NJ3zOddy3vd8a+f4zkMXgi4cvRh68ddLvEtnL8dc7rySdOXa1fSrXdeE1x5fz7v+7EbRjYGbC28RbpXf1r9ddcf8Tt3vzr/v7vLuOng39G77vYR7N+8L7j95oHjwvrv0If1h1SOrR/WPPR4f6AnvOf/HlD+6n8ieDPSW/WnwZ+1Tp6c//xX8V3vf5L7uZ/Jng8+XvjB9sf3luJdt/XH9d17lvxp4Xf7G9M2Ot+y3J9+lvHs0MPM96X31B+cPrR+jPt4azB8clPHlfPVWAIMNzcoC4Pl2AOipcO9wHh4TpmjOeWpBNGdTNYH/xJqzoFq8AdgeDEDSQgCi4R5lI2z2kGnwrtqqJwYD1NNzuGlFkeXpofFFgycewpvBwRcWAJBaAfggHxwc2DA4+GErDPY6AEcKNOdLlRDh2eA7ZxV1tFPBl/IvJ4x+BjBcOkYAAABsZVhJZk1NACoAAAAIAAQBGgAFAAAAAQAAAD4BGwAFAAAAAQAAAEYBKAADAAAAAQACAACHaQAEAAAAAQAAAE4AAAAAAAAAkAAAAAEAAACQAAAAAQACoAIABAAAAAEAAAPyoAMABAAAAAEAAAFqAAAAANGSYnwAAAAJcEhZcwAAFiUAABYlAUlSJPAAAEAASURBVHgB7J0FvBVFF8CHMjHBQpRHWp8iYCGigAkoYqCCQbeUijQCEgJKC9JdNt0NCmIgGKCAKGCBgdIo75v/ucx9c/fu3nvf4z0EnfPjsXt3J8/MnJ7ZTMkalAOHAYcBhwGHAYcBhwGHAYcBhwGHAYcBhwGHAYeBEwIDmU+IVrpGOgw4DDgMOAw4DDgMOAw4DDgMOAw4DDgMOAw4DAgGnCLvJoLDgMOAw4DDgMOAw4DDgMOAw4DDgMOAw4DDwAmEAafIn0CD5ZrqMOAw4DDgMOAw4DDgMOAw4DDgMOAw4DDgMOAUeTcHHAYcBhwGHAYcBhwGHAYcBhwGHAYcBhwGHAZOIAw4Rf4EGizXVIcBhwGHAYcBhwGHAYcBhwGHAYcBhwGHAYcBp8i7OeAw4DDgMOAw4DDgMOAw4DDgMOAw4DDgMOAwcAJhwCnyJ9BguaY6DDgMOAw4DDgMOAw4DDgMOAw4DDgMOAw4DDhF3s0BhwGHAYcBhwGHAYcBhwGHAYcBhwGHAYcBh4ETCANOkT+BBss11WHAYcBhwGHAYcBhwGHAYcBhwGHAYcBhwGHAKfJuDjgMOAw4DDgMOAw4DDgMOAw4DDgMOAw4DDgMnEAYcIr8CTRYrqkOAw4DDgMOAw4DDgMOAw4DDgMOAw4DDgMOA+mqyCcnJ6cZo0eTN82VuowOAw4DDgMOAw4DDgMOAw4DDgMOAw4DDgMOAycYBrKmV3uXLFmiduzYqR566EGVKVOmVBX7448/qmXLlqtKlR5OVT6X2GHAYSDjMfD777+rzZs3q23btqlff/1V7du3T5111lkqZ86c6tJLL1WFChVSmTOnq00w4zv1H6zhjz/+UJs2bQqP4969e9WZZ54ZHseCBQuqrFnTjSX8BzF8bLr8559/Rozjnj17ZBxz5Mgh65FxzJYt27FpjKvlhMTA9u3bhaYje0HfgbPPPltdeOGFKl++fOriiy8+IfvlGu0w4DDgMPBfw0C6SG0ffPCBatbsGTVr1sxUK/Eg/Pzzz1cLFy5Qu3btUrVq1fyvjUHC/TVRC6k1lCRcgUvoMGBh4IcfflCjR49WU6ZMUYcOHVJm/pkkZh7mypVLVa5cWT3wwAPqlFNOMa/d9TjBwE8//aTGjh2r3nnnHXXgwIHAcUSIf/TRR7Ux9iF12mmnHSetd80wGNi5c6caN26cevvttxVGGMBek2Y9nnfeeTKODz/8sMqePbvJ/p++gieDn/8yIlauXClzaMWKFSpLliwR8we8gKO///5b3XzzzerJJ59UN910038ZXa7vDgMOAw4Dxz0GMmkGl/Z4eN09hP26deupzp1fVNdcc01gh7/44gs1ffoM1aBBfV/h4pdfflH333+/ql+/vqpSpUqqmG6HDh3U4sWL1bx58xLyRHz22efqxx9/0G1NXeSA6Vxy8mFVtGgxlSPHuSIYDx06TCsx92srdm5Vp05dVbLkLcIEZ8yYqZniX6pChQrq8OHDWkCupJo2baxuu+02U1TCVxSqHj16qsmTJ6n//e9/CefzJjx48KCqV6+eKliwkGrVqqX3ddzfKAUIkgj7GGBswLp/++13qDVrPkloHOy8f/31l6pdu47g9OWXX7Zfxb1nCjdo0FAEkwED+kekRwG95ZaSqnHjxurxx6tEvLN/kG7EiBGqbNl7tFcrj3r66UbqqquulPm4YMFCMTI9+OADkuWRRx4Vg9Ndd91lF5HwfYECBXV7G6hnnmmWcJ5jmfC3335T48ePF4EPpaB8+fLq+uuv13OmoHj+TFsYb9b10qVL1fz589U555yj8fa0uuOOO2QsTLpErwiQCxcu1F7/37SAeThuNrxGJUuWjEpnC+2HDv2l1+h+/XdQHTy4X+3ff1BHFOxVKEU7duzQdOAn9f333+u/7bKW+/cfIHOQQpmTY8aMUaVKlRIv1bPPPqcuuOB89fzzz6v3339fbd26TT3ySCWp/4knntTK0yPqvvvui2rPP/UAw+ikSZPEGIO3jXG84YYbJIKCiAoDrOkvv/xSR0UtU3PnzhX63KhRI8X8TouHHlq3eDERWjsSGMdM6qKLLkwVTfzgg9WyLnPlukgNHTpUvIimL35X2jNhwgR14403yhxu1aq10KeOHTtoWrVGrV+/QRuiHpOs1avXUOXKldXRYaFx9SvvWD/DA//GG2+o4cOHqzPOOEPGkb4QCcO4GgDfjOPy5cvVnDlz1Mknnyzr8Z577lEnnXSSSZbwlXW0dOkyvUZ+TGgcWRulS5f2LZ9okIkTJ0pZOXOep/Lnz69KlLhZ+uOX4bPPPtNj3ECNHDlCFShQICIJ/Gf06DGaD72VMJ2pWPEBiRZEObVh5MiReo1MVrNnz4opc9Ae1gfyCbSjdOkyat26taL0du3aVXgqtPKdd95VAwYMUAsWzLer+cfv169fL+1CkS9WrJis7cKFC6ukpKTwGofebdmyRX366adCBz766CNR5KHpl19+ear68PPPPyvyZ86cJVX5tGlKcFquXLlU5otM/uyzz+o5f7Lq2rWL77gShQAfb9OmdRTtIfIMgyZrKJ4h7I033tS8b54aPHhwZAOsX998842mL1VUt25dA9eHSb5x40ZtOJ+qeeAvgrvSpUupMmXKmNe+V7PuoWUbNmxQXbp01XQhhb77ZrIebtq0WejgFVdcLtFZ+/fvVxs3btJlrdey0y3q6quvltTQIdpH9B247dXrFU1jTtFyWy15D5296qqrhNbceONNatCggVpOLmrVlHILbWF+/P77rvBD8icl5RG6Fn6obzp27CRRZC++2CkurbfzuXuHgf8KBo7aI9+5cxd15ZVXhhe7jbj331+pmd069d57K9Tnn38hi7Bx40Z2kvA9YYE9evTQys2z4t1L1HqOAgahzJ+/QMLK48SJE9S0adOFIIUbYN0gvEJU+PMD6hw+fJgW+G8SYemzz9YJAe3fv58I/3//fVgrDPtVz549VN++faUICNemTRuFcfqVGe9Z1apVNeHsrRWIlUelyFPPnj37pH3x6vR7/9NPP6shQ4aqW2+9NUqRJ30QzvzK8j4DR4cPp96utHv3bgkT9ApplP/JJ5/ImBQqVNBbXcRvQlG/+uorhZLA2CLUMI4ol927v6SZY5dw+q+//lrlyZMn/Du1NwjjJ5+cesE6tfWkJT1KbZs2bRSCa6tWrdSDDz4YWAweXP4Q3lu0aKFeeOGFcF4EqdQCOB85cpQYB3PmzBHlLTLlQRtQwIsUKeKryPO+fPl7ReAmD/PK+8c8RSBhHDFQlChRQisMBdWpp55qqhEB97vvvlOtW7fRwv7EI3Pib3mP8E6fDSBAXXLJJebnP35FkG7btq36+OOP1XPPPaceeyykqPo17IILLtAGigtEoMVI0blzZ9W+fXsR6JkDqQVwO27cWL0mv9E04rxAmsA4/fzzDuEfiRo3P/10rYIWNm/+nF6vX2vjb0U1deoUaX9QOxlnjBXNmz+v3n33HRnHzJkziYDPukY5M/Dll+vDgql59k9e2crCOBL1hnGFvgcBiiR/GLeaN2+u6VZ3LQR3FBpIGXhgUwOsGQzH8G6U9CDazjju3PmLGLv8FPm1a9eqmjVriYG+ePHiotBjNMUIgSLlp6hgHIQmQ1+8MHnyZC3sFwzk39701M/WIAwfGCkx7tFm4M4779TKXjctp3ymiCyizwDXs846U/g7v1nbgwcPEQWY7SgYxAEMCosWLVbt2rWT3zgIEjFCSuJj9B8Ojm7dugk+iegI2gqF3IPRhD+iq+CHTZs2FaMzdABcJQoYeFu0aJnwGJlyGRdwayvyAwcOElpkxoy0tNVrtDdlcP3hhx/DY2c/N/c4RYhquf76G8SAizGnatWn5DXzHKXVro+0KPY4UeAXBm65pYTwSYymtnHUvOcK/aFMuzz7vblnzsNr6tWrK4ZFjOONGjUWYwL3Z5wRiq7BKAOfZHxwpAFEWmHYxpiMEt+w4dOKeU/dNtAGnDCNGj0dfsycffHFzloBzybpmfvwYgylRNoZYEyfeqpqmEeasjEcAsi8GDW+/fZb2X6H427JkqUmu0T14aTLnftiwcdrr72m+dMnYbpCvdWqVY1Q5Nu0aauNYguEduEwhB65qL8wSt2Nw4Bg4KgU+VWrVok3bs6c2b5ECsU2T54k8QKxN/MI7wxEPeFc5557jho1arSqUaN6RDqs4DBbLzFkv+4332zRQuit2hOxQghQRMYjP2Cu1157rXgNEWpsIdxOnzVrNhGEIHQQvCCwQ08R6vEeQIhoH0oaRBRlF6s3AGNgLyPXzz//PFwsBP6KK64QxrRmzadiCTZCQjjRkRsUQLzV1OcF6sUYsnr1B95XUb+zZs2iGeMaTbxfFEXVJECJRpiBkcSC0BiEBKFY6VL7Lt78CCqPOYACChPzAowCARaPsh+YMeMdykuNGjWF4dBHGBsKbeHC14bzM4Ywba7eccRrgfCZCDDPjjdA+XvmmWekb6+//rrKmzdvQk0EVyjAGOKmTp0q8wpjFwpkaj26zH2YvbHyBzXg5ZdfEYEh6D1CBQrCrbeWlLaxXk899TR1+umnyRp977331N133y0eiKAyeE4f8Lbv3r1HhJxs2U4SrycGALwVAH0looh5aM8JjEDMibR4Q6XgNP6H8ke78dTgiUZwTwQYR7y40AVocYcOHYSetmzZMuF5bephHAntfvrphuaR7/XVVweKkO770vNw0aJFmjbVF8WiRo0aIryyFh966GGtUI0SL68nS/gnETAIlShyCKCsU7xLRJHcfvvtkg5asGPHz1Kudxwvu+yymIpBuKJ0vKFvKORbt27VPHFUwgZcxpH+wecIjUbJRDDnN+ObGmBuE1H27LPPxMyGYkEUhheot2XLVjKXypcPeVmJ9CC6oGfPl3V0SwsdqTctSmFfvfpD3d+rojyi8M8NG76SuUU/EwGii4geI4qhQoX7FYZY26jBWR+PP/64KBRG6aLf/fv31zTiLqkCJY1INvg680VPFYGVK99Xw4YNDTfju++2yjkFyDvQIAN4do/G+GvKSe0VBRDDLFFSfnJDUHngAdo1e/ZsrVy2ljJIm7gynyx0l3XJOSqJAMO5ZMkyiZ6z02MkJUqAuqGpjB+RA7GA9vPnN0fYVjBr1mxtCOirtxCdKrIDTpJTTz1Fe+lDMgRG/Fde6SX1ELHzxx+7ZPyI6kORR27jnAEUfOQ36CzGBww+GN3GjRsvBgnmyf79+yQ9tG7ChInSbNrGOjBRfswbogqrV6+u+c0Tkuapp57S9X8rW9t69uypjXIdpD8o7Dt37pAIWCKsiNbBO24b0ZBPmG/XXXedLis0WeFdRHba85KKoHso/9Ab+DUyIDwDIyD4McD6wWlFn1GmiVA7/fTT9fxoJesB3grdeeGFDjLmv//+m0QWEA2Hso8s/PDDKTI17ahZs6Y2OoRkZyInDS2mzilTpmqH2zSJqqDuBx98SORf6JgDhwGHgRQMpFmRh5BBQAiPY+H7AfsyYZgwNSzBiUCJEreogQMHag/SoxH7NPHE4JGwGTDlQTggRIS0vfvulMAqYMyjRo0UwQalw/a82ZnwYAEoflje4wFGBBgDTIYwK5ShVas+0ILT3xIlgPcAgZawPAR6LJoA/YCY401evHiReFLMs/fff08IJP1KBGBWMA7qShQgrrt2/eFR5A+LFyLRMv7pdDBSwvHBIQzorrvulibBZBDezjnnbBEAYP5lyiB8peCT+9y5c4vnkEzbtm2XcShbtqzMJWPpRvkjXAwGXKnSw8KQEIZr1aotdTFm/MEEFy5coMOEL5LneP++/PILubf/y5QpJGDA+KdNm2q/knvGBQMYQtSxBJgqjBtBGSUeBh0LYNJnnXV2lKCE0M/awoMDfhGQ/YSpoLIxnlD/4sWLI8bLTk95jH2srTykv+66YnqrRFk7q9wTOtmnT18R7mMJpqzlOXPmqnvvvVfNmDFDwvsIycR7XazYdbLmmBOE2bO28YIAZk6Qdt68ucfUU48C3alTJwlhBo926LU07sh/3377nd4W8bkov36KPnjDcIhHDvqOgAm9ShQQGt99911FKC+8wg8YR8K2/er3puecBjx8GJrq1q0jr1mHhG8SxUWYLEqD37YjDBt4h5ibc+eGPEaM0XvvvS8GC/gURluid+AnCKgA/YWuoPwTep2oYUsyH+V/8CuiBYg2Y3uEdxuTKR7vHN5mhHbolBdQ4JgDGDLwbhN9kJpxxOA4c+ZMwU2scWSt+Cls0BP6QHTA1Vf/L5wGAR5+SaQEsgGGJ6BJkyaaZq8N03SUE8h2kyaNxUvMfGLs+vbtp+WEQRHdxWjQUSs7toefNfjhhx/pyI0KkpbIGmg/cw+aZxvZeMZcYX1Dh1HsANbUrFmzRB75448/dUTBJJ0vm+a3r2vjwE0SJQcPgh5t3kxI8lcyH6mH8mnXjTfeoF599VUp71j9hwHopZdeSliJZ/sD7fV6PI0BgDHEoOU3zkF9ghfYTo+gdOb5KadEG5qYr+eee642MHaSZEOGDNHb4EbKlphR2sDlBeYH/IF8GJHgZThmWAcYBfByt2/fTsuuIUMs9K1lyxZiWGKOnn56dpGLGFO22rVt20bmBLQA+gAwr3HeQL9Yq8OGDZf5iGEHAyqGYuRV8hAmzzolchUjAFu7SG/mJOVxvhRp2Sp0zz13h9fyhRdewGsxOjKPqB+6TDr6Rz+JMvKj88iwrBsbkDu8gHyE04l+4tmnDv7Aow3M5846ApfIBO7JByzWvJr7e+8tL8aM1atXi6PMbGXEgEpkbr9+fWUc7TJNHeCHe/ADYEQj8rOjXs/wX2DEiOFannhCwv4HD34t1UZJKcT95zDwL8RAmhV5Fi4Kq7Ee+uHGLFK/d0HPMAywBw5PKmFLBsqUKS3WQPObK4QMbxl7LLFYBgkaJg/pDcyePUcRNmvC4HgHIyfKACCcxxwIYwiWpl2ShvAf49nYvn2bFvKn6+eZxRsH88czB1M8ePCAMEaExHnz5ou1EcIKkXz77XeE2Hfq1FG8QqZdEEgIdTxFyqQ3Vz8GaN55rzAEQhxhZn5AG8BFEPD+l192ChMzaUgPA+NK2HO2bKGpRVoiBWyByeTxXnVSnd/7NPg3443gdccdt4tSSUqMRqGQskwSerZ8+QphmPbYUwfCFozawE8//SjbLWCmhJCdrKMqGEMYG+NIfqznjCPeyhYtnpdxREFgX/HQoUPEGGPKI4IEoY+0hw+HGB7vWBMw35w5c0R5ELNkySrWdwTHYw0I64T2jRkzJubcQzhs2rSZCOAIH8xVL6AcE8nAvkH25+LxShQYUzwOeBLNuvPmJSwa4SAWMA+J7JkxY2ZUMtYn9QwePESEcjsB480WgUKFCsrcwtjC3CXkmnWLkLto0UI9Jw7JuHKux/z5CyTM/4UX2kta5sibb76pXnttUJSn0a4rI+6hW3jhEHb9hDsULgwOrFUEWK4YLPv27SOGF7tNRBygwA8bNkwMIqRPFMAvRi1oOEZNP2BNQWOhEUGwRXve8JaxxhDGjRJvp3/ppW6izD/8cCVJg/HI7jtGNiJFGDvCUZk/7PHEw48Qzh/CIiHSeNe6du0i6585Rug0wi9z0gb6h1EBz/GECePT3duKBwvlka1Zfko8xihCTZmvhNNDB+Flr7zSSxRmu6145erUqSNzgnMSkpKS7Ncx7ykTxZZwffiGH2TJkllkAb9xhF4wzijU0GZbCWT/LB5f1hb4JB2eRK6E9LL+WXvgH8UaIAQar2eRItfq9ykGor1792hD6qKoNr7zzhTZ4sE8BlAqmfO33VZKFEN4swFCgsuWLSeRWTgSDDA/UFag6eTF6Eu72NIBzaad8P2rrrpS073PNQ0dLWHW0IuqVatpJbGl9kZeY4o7ZlfC6VnbKOKMTSyezleHiEajrd5oKPJSBtusKHPQoEgDSqwOgQMMeuPHTxD6GZSWuTVkyOCg177PmfuMhxeYP4wZV94bev/bb7/LGUbgAcMc3undu//UBp0DEvmBsQADLzhgfKEDyAMG1q/fIGXCG4iw6NOnd7iejRs3yXxCbjPrADmRurZt2yr9v+OOMnod3Spy54ABr6pSpUqZorWD5yn5chNz2xjkKAd6DRCpSn8A1gpzjj/6CfmExvKbd+A8BMF09UiC8IWy6TN/sQBa2q1baK8/RhLwgAGAs22gl926vSRzHUNDhQr3iXwA7YZ+gt8gwJiK4YH1T5j/9OnTxZmHIRI5Crjoolza4PesNogN0ka9B2V8iLJ14DDwX8dACpVKJSYQJGDSWJrTEwi/QdlZvnxZhCIPQfQyIqzzKF0sbsAQukTaA6HgcBBCkyCY3FMvhAECS0gTzxdrBl6y5C2aoIf2DxkCYxR5FDWMDxAxmBWEH2vsXXfdKV4GytBNF4G1YsX7wxZHvAEISAiOpl8QYZgO/cDQgHEihShH9wqBFAtmr169RIChzHhA2dRnK5fePKY93ufmN8yDkEgvvmk/OCQ8zZRBm7CeBoW2mzK5kmfPnr1iIPDrC2Fe558fslCbfAh4tWrVUklHhFOEBsYSvHFg3b33lpODGE16cyW0k3MSDCBUTpo0QQRzPD0wKBRbDEihQwFD8w8Bm/284J32ggsMFTBfLz5QfFAyvMDYEkKGl8wLnCx+rIFxQ1iuWLGiKKR+9eOBgMEyt1HQQl4WPbEDgMMFYe4cJkV4cKKAQEIYXbztHUSTYBAJAtYd3tnQvIsUaIi6IXQajwHpbKD+HDlCAgfeJ7yh0BgEFBQmFGXC9QlXZrxZg0TbEAaMZ5lnCFTsr+WQINbDsQQEIpQ16JIfYIQpUCC/plXj9PzNLN5GDBe1dITJ9OnTIgRX8jds2FD6zJ7m1IQ0ggMUyLp16/o1I/yM9YPRxw8wIIwcOUrW8rx5wZENCJ/sl2UvcHMdCUNIJgZSjEEAtOH11yeL57p16zZisCAt3i6iUBgjM47MbcaRZ4sXL9VGrdNEMLUFespk3vzyy6/irYdmpzeMGTNGPKm2d9muAwN26HDYetJW8Mh2E2gKSorXEAyNxMDDOBKxkSgwjvBEPwOKXQYKLUYZL7AGCe3GMOqdk4ToAhhdbNrJOrND+d96i0PtMktUAHUgG3iNg9CC5cupP4UmscZ79+6l53SWCK8w5eONhf7birxp/wMPVJR2mf/AJbwYHFeuXEXoWb9+/eR8B8o3USCEa8O38LyaiD/oJkYHeP2xBGQjQrxfeeUVqdbwY782sC2NKBTGwU+RM3mJzsF4RQQSjoBEgPkDb3zyyScixtibFx5kcOZ9F/SbCAg/5Z+1W6XK4+JsQfag/TzDQE7kB04PeDbzAOMesgL9Zqz4+hJtARhL5AADo0eP0tu5vhPDHeXZhzCi1BLxYwP1ISdyJgNgrmvWfCo81O4v9xzsSLkGaDfRKcw7DOLmHY4uDA60mbaCY/oFjeIexdqMmSkrva60gUghZCSiaQD4KYZEZGmM12xX4oA6tgoQXYgxHANcENBmjKgdOrwgkW/QL6IMiLIiIg7aQL3gAVqLkYBtfEOHDtNK/YCgYt1zh4H/DAbSrMgj0CPMoNCkJ8BMIEJYP1m4QYosBOy11wZL/WmxylEHJ2Sytwhg/xth1C+/3DOiO+yPhhkaBodQYQNEBgECxRbi07ZtO1EsEU7vvvseycv+KojV2rXrBGfUTTQAjMQmuFdccblWlFYIQ0PIJNwJIcQG6kP3gFFTBiG+AB4M+8RsTgQlpNEun3QoKlhVYUh4qcCxH+DtKFXqNl9vEAwDfF1ySW6/rBHPKIcTihMB+orwgVfED/AQ9uvXN6JPGpVhxkse5iR9pm/sW65du7ZfUYIHGzfcr1zJgVKNRaFn/yaePXB85513iyCnaxJhgPA8E+bGe68gair0KonmOddY7+x0x+KeUDiUVYT8IMAzgHcDz8zmzWyVGR+UVJ7DeBGS8d6wnxnBKRHInv108ZTgLYkFrCfWRywoVqxoeA+inW7z5m9UklbuONApFjAniAwiHJmIC8I5EfLxEPB1hh49uovHC+ECwx+CHwaObdu2iicCHBxLwIDFH0qGH3CiOdEqPXv2CNMzImcwaNSuXUfohR8958wCQnTx6vp5h/3qQvnBCMJfLMCgeNNN0UpBfR22inGUMNOnn26ox/q2WMXIOxSGcePGyqnNCPIcuMj+S8YR2kv7e/fuLZ/hY38qtK906dt137qKx4gIHNYlAj1rGuXwtNNOjzJuUBljO3z4MPEgIbimJ6CAEhmGJ8sPiISD/lSu/JgoIqSBTxIxxBYEPMsok16oVq2abHlhPmOwiAfgjfmM4sBfLIAfs968AL+qUqWy97H8Zq6i7MBnYgH8DoUIZalmzRpRSjx5oQcABhkAby1GGzzSxtCCt4972lS7dg0975+U7TIoczx76623NQ+9V3DLHIDPsTcePBC91adPH4mweeSRSqJIYBDBAIbXsLP+ag/GF/JgwMSYBjDHsmbNJvfH6j/GAocDczjeIZLgo3r1GrI2CJmOBdBb5jplY2wFZ/GAcYGm+NGVeHnt95SDssi4MjaAHhZZh6xZxsgLPGOdmnfIcIwvUTSUhwHDBvozQUfXED0CXtiywjqhfMYRGgKN8cLixUsk7YsvRhrIjMxoZFhzxVNNGLoXzHvoEEYuDoOjDc2aNQuHl5OHbXdEwjLXwAlfg4CesXUGepoWXLPOX3qpu/APaAv8GsXaphPgEcMs2+o++WSNnHNx6aWXaM95ZYmSIWrAGKzat2+rDY0VtSPkdvm78sorvN0N/8YwBH6ZXxg0mLNJmj9z8Co4RNcgDdsfduuzagoWLCCGaPI4cBhwGNCHf6YVCVt0yCOMwmv5T2t5Jh/EAoKKsglDCoLF2lOOBZ2D9tIKdvkonIbg2+XxDKJuiLI3DaGPWAaxpuKBhQiijGAJHq/3aeOZw9sJcWWvFMSHssAfFmUbeG5CODFO+BkoEC5btWothB5rNJ5kmBWWY9t6jIUTxhz9+ZdkYVQwC6yqCEl+cOjQQWmzV3CHUTA+N910Y7rv48bIgBeta9cuohR524Uw58U/TBaGZgBcAMWL3yyCfL58+YRhMzY20A88kgZgmv37DxCFDcMD40gEABZfwqRhUoxn3rx5JRyPOQHjRWhO1Dth6jreroQY47lG6A0CGOuwYUNlrm3YsD4oWcRzxpJ9oRi14gmUZGR8MZolwqAZdwTwIECpZi6Qrl+//hJdwZjjsTOeBA7P4X0IkiUUsHr1GuEiR40apZXel2UOECmE8Ecb+/TpJMIsXkH2zrNmWS8ImAhEGHeYJ8caUCCgKUEhjF9/vVHWtE0naOO+fftlXbGu/cDQGBQvBMZ4wHok/BIlLR4EjSMHR2FgwHgH3jlHJB6wHlnnhDaPHTtOC4YlJQuCbme9txMl/uabi8t6xkNMmDCeeWgcuOOqyb0Ix/C2bdu2xjzfAHpt+EK8tqXmPeuRaBAv7TVlEP3xxhuvR70nSgV82sK3ycMVzzGCMoY7r/fQTmfuobUdOnQQ5ck8i3VNDS4GDBggYcN48WwDNOV7aTxjQuRVmzatJYJt06ZNckK+nY5+82eeoWyiBMEjq1QJeYPh0xjiScMfaxmvX2gbWCYx/MJfy5UrL2WhMEH/MQhX16H5OXOeJ3wdpR76X7z4TbKtbvjw4bJVCwMvNI/zelDkOWcFQ4DZZhYLd+n5jvXC4XAY4OIBkUYYImrUqC40LV56HAYYdeCPiYy3GY/ly1eIQmZ+2/XQ3mrayGT2g9vvzD3bGvgSCUB6w+cxQKOAsuYTgT//3C2fBoZO2O1nPJE5V61aKXIt87JateoiA8Ai4EnMAw4btoG2YKxGMcd4RmTDbfrgZfrJFiZoKko5sibyFucqkIe9935rEMX8nnvK6vr+0vTzgBiIMDjbc5t1bKJAqJu2QSswchkgfaJAG5FtiB7EaAodRRYi+mTEiOGy1kxZefJcKvIsW5RoA+eHIDsVLVokHLHFvKev27f/oKOfLhanU5MmTWX9+tE0onvBSdYjBq+kpCSpDoMZsGfPbvH6G+OYPNT/2eNnnrmrw8B/EQMpGlAqe88CvuCCC1OZK7HkLHYIaxAxwjP4zDPPCsHFKs5+1SDAywshjOd9gzEs1sYB4+E25ZnwP/PbeyVEGkEEhZE2oxDhxQfw6CLM4h3nAD+EF0K/SQ/BZj9UaoBDgQif5LTt4cOHaoJ7UmB2thuYLQfeRHirYDqEYKUWsMaCK4Sg9IeQcoYQnSjQDsJvzzknlOerr74WJsrebRQBPIl4WgjXsr3CGG7saAeEGSzC4AUlEOUF5gRwWCFz8T19OBaKJuHLeL741ixz0TAeb5v9hBaTxjYimGf/1JVDvuhvLDCCU6w03ncosyh1W7TRKpYij8D99ddfi9DjLYPfBo9B9AAh4LrrrteCdorXH/rEoUUA0QQYrkqVKiUCKM9oF8IVf5SL0YtQaRvuvPMuEVYIEWcdI7gg3APmAB68MSg7M2fOkDlRUx/ixaePmE/HGhhHDIYGX9768QTx5wWUG6KDgk7Vzq0PLcRowhjFUuQZZ5SZIIOAaVescSxatJgWSs8Tz5lpJ3MvqG0mjX1FEK1Ro3r40Z133inh9OzzRuhlOxMCKcA7oF279hICjucHJZCDqrZt2x7RDkl4DP5jHKEptoHSrhbjuTGgw3M4kwTlkrBWvPJBEQJ4yzDicLCUnxJh6ti6daveevKFpvP+hp1ExvHaa4sEKmbbt38vNBuDKQYfL0BT4ZWsa84ywAvLPfSZtuHpe/rppyO235g5ZWh6njxJYkREYUtODq1xzlKBJmXK5K3R/zd8iLkHPitWfCC8vYDoGxPpBU/Bc4g3/qKLLpQTvB999DGhK/PnL5DogWOtcIAr8AS9iwUcDoxR5+2335J1ESutecfhg0T8UEdqYO3aNaIsYqCygfmLYQa6FEuRZwyIxoMOw3vZxgAwh5jP7DlHCU0EGA8MNNABA9D/Vq1aC+3ESMF7FFJkAeYLNI228910G155pZds+bj66qvlbBXyGvqHwZi+FSlSRJwyzFHmMkYWnvkBRtgPPlglrzg/AsMA59dgEPfOI9Y8CjO0GWMldBoDQWqBcytwPGGEMkAoPxF63bv3kHc8xznE1gqiMYhcaNy4iTZi55KzAZo0aabx30gbxirJqfXgChkVgwjGC9ZH8eIlNI0aGKa5pi62CL366kDx8LOljq1qZn6BS/gOdBvaDP4AfsNjDS0yZbmrw8B/EQNpVuSxTvKdyYwAyiW80DBnuw7CnqpXD1keWexXXnmVeMRg1l4gf9++/bQXpoT3VdRvBHqIa7t2bYVZkACiTNhQLDCWUdLg4Vm/nlNRnw63HaGSsFwEM7xBECyUfhiE/bmQWHWYd4SdE4bYvftL5lGqrzBC+goe0wK//PKb4IU9g4SdBgHCOEQ/SBgNypeW5yhpOlhdsnLoUQhCv2nD0qXL5IC2sWPHHHkXGlvGxoC93439Z4RzNWhQPzyOpIPZYXwpUeJmHTXQTZRf6ib81wswGN4hIDCPDGB84d3XX38l3lzznCuMOsSYEpQ07cxHcY8H2e9096MoUrJiZIERI5jHgg8//EgLeeO00Jw1LDSFFOxQqOz33/+g5+zf4m3Van1UUTD3zp07hxV51j145AAqgLJQBPHoAXwOCCGEE3DxngBsVfECQgp/wLBhwyUkm73aNl1C4MMDumvX77I/G8WQ/iKcHGsgOgSjQ2gOJVY785gQ7unTpwauVeYl69hEMgSVjICKdxLPika/jL09jhg4EMBy575YF+E3jvtFCIR2GIDGs4ZsnJt33itpWNMYOm0gcgIlnvcTJkyUU9KXLFkcUSZ7OUmH8lqvXn1tvKskofUY8Y41sB5RWo1CEKv+des+kz3bKB3wk7Zt2wYmBzesSdLGAiJoMDyHaFX0OGI4OHBgvygOfgZJ3hHWHqSYQZNRqIcMGewbPcKY//rrb7LmaYMeNplPtBn6O3Dgq1qprieH+pUoEeLtGGYZ3yxZQjTdhPmzvcwAvNrm1+Z5vCs4q3vkSwnw7Wrae8yZDPacrFSpkhgroTNEPbC1C6M9ETKxIofi1Z2W97QRRwFyRhDw6UX2OnNgH+1FoU4EGDdkP9Z1aoDIQKKVOKvCBk4zx/Mdj2ZBg8x2EYwPBhgbHBZ45UuVulWP79XmVeCVti9ZslQbO7aF08CDANrBSfQ4OzD+0+YgIMJjlI7awqhGZA9GHYwiOFyYG6NHj9JzopScW3H99aEtkJSF0dzwnaCyeY4yDe/r37+/zHfkSFueeu655lLORx99rGWtZnJWEmPzxBOPxyo26h1z1msozZ8/n/RhsXZuITOCf/qAAm8MINQZMvBnksNSTcHQLju6j88C84dCnpSUZJKFr8w/aALRBayzDh06ShSDmRPQA2QojBoGkK0++eRjoffmmbs6DPxXMZBmRT579jM0IfwuQ/AGE8fyaRayqQTlE6JPmBVhvhzsU65c2ZjMGcXZW44pz75CePFW2IQGgh8vL5946tTpRREAETgow3jkYY5l9Les8ZQAWBDxqBO2hPUze/ZIRRhPEIep+QlwEMwNGzhxObMWkkIKid1+7iF24MTugzcNvxHoCN/klFoMF1hkQwTZL3XkM0IPaQMMJlO0LC74IsST+dGkCeFSaZ5ikRUH/EKJa9q0STi6YepUvjua4uWBAb355htyWizWa5RzAFzZijwh0nhWUEIYdxiRGUcEo5tvvlm2T5AX4ZE0KPwwZZtp8d4ACl2XLiltMc+ZU++/v1JHanxsHoWviY5DOMO/4AYrvgmjQ2hYvfpDMZaYriGwcAjioEGvmkcxr1u2bBHB44wzUrYK2EL3l19uENxzkBuAoGC/N4UvWbJElDqEReYLYbJmTjDvMPxNnDhBknOPwI6HBmUBD9I/AfHolWkTcxPBiPWMcIYH82gB44UxYICvlStXyTiaNrVp01bq4zOgiQLzAU8ZuPeji3Y5rFNokleRxwD65JNPicKCIQFPqxlHymffKzQCIOKC9xgqiW5AuQ8CorX27t0XNiAFpUvtc7+5GFTGDTdcr5WSxfKa8bzjjjvlrBbv9omg/H7PMeoZwx50jkgkjNAG/xx6ibI/efIkv+yBz+gXvBIDGwqQAUKaoaFmnrDXt337dua1VqhmR6xPFIVatWpqWt5QDvA777yc+n1oDRuPvCkrXMiRG9YtfA9Flr55gXyMP1sXmHMA0T0Y9M2nxlDc6tdvIDQBA/LBg4ckvTES1K5dSxu0RsiWLnjKPwGx5hD0rnnzFqJ8mW0YZmyD8PZP9CGoTm/fOFwXpXro0OFyuKHpS1B+xh25zeb/0A6A/vMeWZO5wj1bjzDUcvgt2x3h+eyv56ssKJ58gYjIP5RRyt258xdxLrEGixUrJpEIRpEfMoSv25x/xCid0kLGBA87eWwZgINJ+Y1jAb5mHA7Uw1Ynoqn4msAll1wqEZaEsBcufE1KwQncYUxBmTZlk4Xfhw9rgVYDBlwMaLSNc1bMJ5TNXDHjAa54Zp5L5iP/kYZxev755vbj8P39998nB/ZhgFqwYH74OTeTJ08WQzpGdAcOAw4D0RhIs5YFs/vwww+jSwx84qP1BaSFcNiMnWRYBjt27CTEFc8qgjJWeDx1QQBhSRQg/nhC8ChBVAGuCKSxAKsp4UMogtOnz9DMZKh4K8gHs8fQYACLLSH+ePfeeiskOJp3XPFI4oHwY0S84zkeENL4Ae/88nrTIswiDBH+dN99FbRR4Ub5XrQRRLzp7d943QoVKiihXPZz+x7Cy2ebjgXANOiPgb//jh4vrOoc3NK8+fOyrxGlCwHe9pSAD8ZwwYIFcsLqiBHDJQ0MiJCx8uVTDuBj7uOpw2vF4Vp+gJBPuDLfLUYgMHDKKacK7h966EFtlKpmHssV5nnZZVfEnNMRGdLpB0zafOYmnYqUYsAxazCWMuStj3C+IUOGyt5TI2RSBuOKsGULOeTFUOQVHBA2GFtz8I63jk2bNsqYsO89FuDdJmSekD7ahPJBO2gDApN9YBFbORBUOBDLGO5ilZ0R7zDIYeRkznpxYtfHHGfPOCGS7BvPkeNc+3XUPesLeua3vzEq8ZEHhHpyvgAn4dMuAHrKH2vDFqJ55zeOPAeom3nB1gkjNIbepPxPfxctWqwNKZF7WElB2CveNU5X7t27r3jKUMBoA0YiO6IGJY1Pj/Xo0TPq4NOU2kJ9QUnDuMoBqfHmkp033j34Qnlk3vvRc/aUggfWrQ2dOnUUIyPjawwq9nvwCC1CUU4UCGPmAFc8t4QxA2YcUTwwctngN45mPhJyjqecrxEY4OBI443D6Ap4x1h3NQrY+kB4NZE4vXv30m0KeeS97YnKqB/s27dXPJlsjwEnBsA1XkMOtbTbgCwyZMhgibBq2LCR9nhW0caiu6ROjAx85tJWgqDrfK0Den7jjen7VR/T1lhXaB8h2ih+ST4eUA7mxeCBo4G5AkCr+U3/eYbCirziBcqkbL956U2byG8z5omkjZWGKEXmF3w+nhEV+o3ifd11xcJFMs8xUBmA5tWuXUeP+S69Fn/XRp0zRV4ytIx5xpdLmAcTJ06WvfR8fpQv0iBvXHZZISmKNXn33WWF9nC4MofEcuAe/MIA67x79+76zKf3ZN3WqVPbvAo7CaBVRCIwz3D44CAgMiV0uGPom+5sX+PAPbaTJAoYA/j0HUr7xx9/5AnfT5b1gRxjgDpoA+uc+f3nn7v1q2ShA2x3BfctWjwfsX5MXr/5ZN4RsQE9o4/I1Cjtv/76u3jymZtmPfbu3Ue+ZsUWVgcOAw4DIQykWZGHmGeE8E+zYCgI4bYwyh4hFCgONYEIouxr2S3dgLqwuL/+Ogp2SHJAgLAZvV9lMHnaA/Pv1euVI2GjSlvo35D2e/ci4vEhfJN8XmB/U6w9Tk2aNBFC27FjB2/WVP+mfvYjVa36lCi4hBmz35+TQSG4XoWJCjjMi713NWpUj1mfIboxE6XTS8bInif6l2/JnEsA80WJBxBoYbgGGEP+Bg8eIsKAEZLx8KN4eENsMYIgzNheX1MWV/bzgQe/ceY9ddsMkmfA+++v8BW0DU4j+xrKc7T/I7Sh/KY3ENbK+knyESb96mJM+BY0e/2MEm/SEfp+440pe/h4TnroAYY0Gz79dK3g94ILzpfH4M7gj0OE8N5493qb93Y5KHV5dSgpawPFAUEMIBQd2scZGDaY/elBc8Kkpa6MGkeUVQRDv/VL/USBtGjRUn9R4EE5wdy0KdYVxREjiq2sxErPmM+dy+fdLgwr8SY9hkAOorSBsjGg3nJLKEzafsc9+IL28xcLGC8/QOBkHInmqlbtKa2QhkKOMQ4zR5988smIbPnzF5DfQWuXl7SJyCO8yRh60lORZz3SNvDop+hgVFqxYoXG8ZyIcaaf0D+/uUyb4Zmc3A7tSgQoZ+bMWUKnjBJv8nHYVYkSt5ifcoVvc/BVmTKlI54z1zF8YTh6Rofj0i/+UAYWLVoo0Xd+/TSF6OxRQHoOmKUM6DDlMe/NdpqoDNYDlJa8efOJQdV6LLfwAOiDDawlQo9RoJAN6tSpI68Ze4z3RMHZRmH6y/lBQeNgysYgErROTZq0XMEH/Is5VM1jLKY8+DgeZ2+0GM859BFFPmTgi1bkiVKCPqe23eAC5ZjPhtmA99o2xNvv7HtwRTj1gQMHZQ7b77jHSz5r1sy4Sjxpacu6dWs1X9/DT4Gvvvra3IavRFMSOWnOygm/0DfISPffX0FwyfykTBRQ/ipXrqLMlxiggSi2derUlUgh5mvz5pFeaeSLVas+EPkTD7utyO/YsVOqpfwrr7xK7okE5FPGRAZCm21AzkkBn4WT8lLumKscMgz+/NZgwYIFIuY2/eaPfexEWOE9x8gAIF/xx/ygvQa4hzbZ8pZ5xxWDIAYktoZh9Gctd+/eU/f3ClHk7bTIn0RoYWD3a6+JpCB6IIgf2OW5e4eBfwMG0qzIG28OhISFGwvMAsZjbDM8vzwI5wAE0GYWhEWffTYnwIaIhl/eo3kGo6BPffr0jiimcGH/Q0nsRFgRCcPjRFMEZaIEOOBjxIjhdjI5lAUPAh4iwvvYQ3fOObGFU7sACCJCSHoCBJb9fgjYeNBKly4j4Yoc3OMFvE9btEU+3sGB3nwZ+RujyJdfrg9bhiH0QUqSrbzBPBHabFiz5hOteJ8lB+dwRsNJJ50sn0IbOnSInUyEf74/TXhuPf0ZvilT3o3yXqTGe2kXbiz+9jMELKIJ8uXLK+H/9rv0uC9durSE/5nQvvQokzL4hBZjkUikB+nBOQYFxmXlylUSKcJzgDXTqlXLCE9QSCBPkvfmP+gHXgYEMARa1gwKuFEC+SQZimNn/bmo4cNHyDsMWLfddqtWVAuaYsJX2oRCh4dty5ZvpByMPeyNt4FQy/bt24uhCIMbn6L0RgSgRDGOnHJv9uvbZRztPeNIOxFmELa8gGeDthEOag7r8qbx+83hawhXxgjml8Z+hpLHGCBIsYWHdhngG+3t27cTBcw8QwFLSkoyPzPkSpuYVxMnTtJ7xH+Ug8k4IAvjq81TiGjA01akSFExeLz11psyXt5GIZAPGUJobT39Kr7A7M0f6zf4ImyXtvh519iGwpc0iIiDZxmA54DLIKMCc5k5mKg3i0MoMVLAv2fMmBkRlYRii/fPFqap27vXlrZxOBrbG+Cx9rxDHuAwMA4ltYEzLDhs76+/Dum6T5d8fjg2xlbyogxSf6xzW+w6bEXDfh7rHmUL+oLizvaNMWPG6m0ZV2pluWpEtjZt2khEBVsE8SA2a9Y04j0/8ACjtLVs2UoUlqgER/GAucnefKJi/BR55q0XCB/n8FY+GYpxPwgoEzpAHakB5uRjjz0mSqOdL0eOnPIpNRxDsQDDKQcRw0+Yc17eTd5EDY2M/YIFC2ULl6mTrUY2QBNq1KgeIa8i56FYE8EDb/EDeCj0EoeIgUqVHpZIzbfffluMT+a5uUInaTuGNq+Sj7xleNhllxWSLHj5CdmPBz/++INEApi5jqzHGtEoDAPjAo2paZ14z0uiXcBB1aqRc9tkhB9gWDFlm+f0ne09NsB32G7SuHFj+3H4vmbNWiIb16pVSwwKnC8BP+UkfS/AO0qVKi3rp1KlShGvccIRDQd/hcazhSuebhJRgPvhMHCCYiB11NjqZLFiRWXPzBdffBm4WAhVwjLGp4NYzBCqSpUe0QpJfi1onuu7XwarHMQGr4GtyLMPLhoyaaH8gDBXhAQvxFN6NT0XIQFixJ8pw1iIIVZY4LnyF8S88AguXEhI9iQt3HTRjCabEObzz79A+gLRR3FkawAKyejRo+QTNwj+hILawpC3D8fqNwSdMHEMEX5KPO3gxHZC0LG6phUY2xAzsbiJLgz8mnGgbDMW3npIw7wwyjqGoRdeeCGcjPeJtI9tFBxEY8O11xbRRoy58nmdF17oIOONYp0r18XSHupFkONLCTBe9kc/8MCDeh63kDC3ROq160v0HgESDxyeEs4DwMCQnoAywHpjfG1cBtWhURzFwL1pGWMEF/bvJRJaz17tqlWryV55woJRkPC4EcECQEc47ChIgDL1s8du/foNMkY8Y55gbMF7xgFmGB4RllBO8F6jMFF2ly6dRfk35Zgr+6cJy2bbBQd4UT/RAnnyJIXnBHP3xRdfFAGCfcN48Bvrw/RY57bh8uOPP5FxhBYwjuntMUC4g7706tVL96eL6UL4Sh9Q8vGWo2DbwNxu1Qql4kr7sdwjvBNZ5DVMRCXUD8xBURUq3CeebsaU80xoFwDeqSOIlkoiz3+MIQLyKaecHDjvSIOBJggwIBDmP2/ePFmvpCMiBuMNtIb+M2cxtBIeOmnSBPlGOPuwWee02wvwMwxPGPXSE8AVY4lXlL36XsAw1rRpUzn0tWLFinqrUyExnEAfntd7UPPq6AM/GD16tHwWDUE3HqDYEKqM8bN+/XoSfQJfwHMHMK859CoezUMgJ/QcYJ+vF+C1tkLO+23btqtqlieZ8bGVD28Z/GZeU5afAcsvPWn5w8NrgDlAVIGf0YA0GC5Yt4QQt2vXXnDAdhrmnVnnrLE5c+bqc3D6yRyvVau2hF971xWHLjJ3OMhs0KCBpgnpcoVGsW2AyCHO3OETjvEhJAPBP4MAHoRxibLj0WFvGZwxw19aAZo7c+YMyY6xkqiUeBDUF9rOOiHyxcC0adPkoE3kvRCE5D7zniuh76yxu+66M7D/ffv2ky0oxpgGrW/UqLHIf/AylFacRRiPDQ6hXRh2+RoDinDevEmiXGOoI1IJ2sN6N3MsETxSJmH+GCxs8JOr2BLANiHC+6E7q/UZNdwzZ73KsimL8s2feca1ePHQJ2ftZ/Hu7bM2mF94+tluYyLq7PwY5J977lkxkNltw0DJYdM4XdgSN2nSZG0wfiHKmWaX5e4dBv4tGEizIg8RSkpK0orfR0LY/BCSL19ezehPEQs2wjICLwuOg6ty5/YXJiCWKP0sxniAhRGmCgMOItow6yDA2snBHeTFM0CfnnjiSRHoyMNz2owwRx0QLq9Ah4BJuNm8efNFOEaAZT/1tGnTRQgixArijdIOk4AJAQj5KIGE7BJuZg7WkZfWf+CCuvlD+TSKjZUkXW8x0PgBe38Jf+JU1qMBlALC99gTZQNfHfjqq6/FCowSh1DtB4xnkyaNw95B5lK/fn3EE4QMgiDF3nXvfEAwxVvPGCNQ4p1C+TIAw+UwG8YR5ofVvUKF+zUznC33N99cQr5GAHNgDnMYEjBixHAZR0667tXrZa0ExPYsmPpScy2jQ1VRFmCunBjt57VPTXnetOAEbwn4INoCb04swHt9ySV8kizYoMAJtHhR+P5yPED547NtKFD169cXxR9lm++88y3wrVu3idJLOB+eGA4kzJKFQ4mIUDksgjRCGUoF9RYokE/2KLLPGIWVcWX/dKFCl8l4GaEar/qWLd9qwXu2rFH6jbfaeJAR0KkzNCcW6OelxGPF/OA753g2EQg5ZRelDu8tgGD+0EMPS5l9+/bW/TlPnhM6jjLA/mv67A1XlkRH+R/h/ijkGEMwMNpA6D/1h2R1I7CGUuAdRbH1Amd+QHcwDsQDTkzG4wpd5vNgCN94UDgoDOETHEHHwCn0zm8cEYCNwGrqg3eUL19exluTYF+gT0Tn5MzpH4mAQsM4zp8/Xw7gQwFbunSZnHOAh7Ft27YaN511tM1m8ZRSSd++fUSQraaVShQu25ABHWJ/PdFMefMm6dTpC+xbRXjHgMKJ+16oU6e2poHXaq/8R1rx3Sr0kLVjvHbe9GPGjBGvF0bIeIDRq27dujpZJlFcoTcYhjDKMOcxltF/cMqa9RtHjBHwSngmh7MGGW6IXitevHi4SaxpFHu20h06dFDWOx44W+E2ifGQMlegM9B8DJKJGMdOPvkk+RwWOPEDr7cXXkJEB0ocSjq8hL3YrJm+ffuKstWyZUvNH7+SaK4WLVqEldYGDeqLYQ9FDW83+AB69Oiu8/bTh+597deEo35GRBLzmvahyNMHU7df4TgTGjdm+1BS1GuTl7Io0x6vqMRpeMD4IWcxlhhXTfSUKQqjOc4RA8hUGFJtQH5jjpCOuUmZyEpBfaY+AF4OQOPgJcxl6M3evfuETmH0ov/wAsaf335zmXpQQomyaNiwgdA69sNjzGar1fDhwyQyDfmPM3dwiBD5AF2E/xKRgGyFQaFr125yuB754J+PPvpIFE6k0TH+o80Y+aBdyFYAa6NcufJRThLoC+vntdcGa1lqgPB2vP600QboAvI5NBz5iT5jGM2SJavgHVzu2LFTDMXU7wXagYc8VoTeO++EvvRAhMDGjRu1PHiSfNLU5gn0a8mud1ScAABAAElEQVSSpUKHTCQH8hvjZ2g0zgOMew4cBv4LGEizIk/YDft0+NQGe4AgRl7w7iH1vvf+ZvEjHCDg3qBP440HKLnNmjWT04VZxF6AcGAN1fTGFxAmEcj9iI7JgABpAALmPeCP/ToohghVhNMabwjMs0aN6kL4+HwSzAXlzyg/CM0TJowXJo/1EAXCDwYMGCAeDfCLJ9a7n9MvT7xnEGD+EgU+VwSBBdeJKpFB5cOc2D/oN18uvPCiuE2CAZtvuTIHMRYlaeHDeHXY9w8T8EY5oLChXBjvG4o6eQ200x6WhQsXaSv9NfqchEni5eJdyZK3SHkobwj+hLmjsMHsgZD3bqLsixs5crTsAZUXMf6LNd/8soErDiSkrkTx71dOrGfsrUNQQaHhfIdYnja89/wFwWK9NxOBBSNVIlsMvv32OzlQCI+L8ag9+OADOkTvdi0YD9BC1lYRtAhLN7gzV9rAnGBbBICByITwsdeV031z575YPJt3aU+KFwi7R2lhXXGKPZ50zinInv0MUewwDF199VVieDMCCIJPrVo1JdwYLzsKKmvf7KnmymeW8GgOGjRYvgxBvawJ6MKrrw7MECWeOvj8HZ44IisYRzNPeUf7TR/4HQ84l2DIkCG6r7V8w8u9+YmqwNCE59sIVNBPDkgaOPBVCZdEwGaPvhk/c6UsaOSnn66JKBacsZeVuYFwZqe3E5IOAyFGEi906/aSCNTsuSSsGGUEQFBlHKdMmSpRHBh2CetknQEIvswfDBEoXV27pkQ5QHvefPMNSZcR/9E2wrcx4NEGI7DadaFU8xcP2OaAYoxxwPCnWHmYz6w5tgwZ7z3ziu9bI/AvXrxEPkEG7zPjYa6UC19eu/ZTqQJjzsMPPxSruoh31Icid/HFucLPP/roQ1Eewg+O3PDJsW+++UbeQa8wtviBlxdBL1Cqn3jicWmryQN/5zR+FCmMGAZQEjFiUAcGTyIUDDzwQEU1duw4PVdOk606GNGqVKlsXoejgYYNGy5frTFKKnQcJ4D3DJ1wxqO8gWcQ4l+jRg2hBfGiRug7Y+wH4A96gqKK08GPd0fny5RgOiXG8m7duodlI0LRbUAxtiFv3nx6HuezH0mo9ciRo8J8nzbbspudODQfQuPLGRAc/Jk5c6awwYy1htEVo72Z1+RBdsAA44VQeUrWBHMEI2rHjp1ELmTbBXzQAIo5eG7QoKHMM6J9jBMHmZDx4i81AM8zbTD5MEaxPTVPnkvNI7kSTeHHA6CJfF43FhDNhpHKGOjoK/00wLwg3J6tSX4AfcdRYOr3tpk8hODzByBDMD6UC94MwNO82x3BHVEONWrUFMfL+PEThOeYPO7qMPCvxoAmVGkGrdQk6/DkZG2lTnMZdkYtQCRfe22R5JUrV9mPfe91CFyyFrKTtZXQ9715OGvWrGRtTTc/w1etfCdrb134d6I3Onw+WYdXh5NTv7bQh3/73WgPRrImYn6vkrXAlKwFC993PNSCb7L2KMqfDhlO1gaLwLSJvNDMKFnve0zWAksiycNpNm/eHL6Pd0NabalNpq7jBcCx9sgna6EsWRsmopqlhapk7SWNem4/0BbeZC2k2o/C95rJBY5xONGRm7FjxybrEDrv48DfOqQxuVSpMjJugYnS4YUOg03WAm6ytnjrefldmkrUEQzJWrlI1p6/iHUSqzDmNLQkHpBGC5PJ0AnaCs5ZP97xNGuN9Kmd59qoEG6G9sIka+U0/NvvhjpsemCnoY2mLTzXHkQ9jqXTRHfscuPdQzMqV66crIU2me/x0vu910adZO3VS9ZCWTJ4SBS0IBc3adA4fv999Lpk3TKngnBsV8b61cq8/UjuWbPx5rP2JiXrfcJReXmgjROB6943Qzo91BEOyVr5TtYHaCWvX78+TaXCO/ShWMlaANf925dwGfH4KgVBMyPX43ZZj8z7YwHQY3jNN998EzhHmY/aoBXmm4b/kccP6PfChYsixps8fjKEN3+sNF7+Wb9+g2RtGPcWke6/Z86cmayjG5O1Ip7msjt06CBlUFai8NNPPyfr6Jdk1lU8YB5p42/ysmXLktes+TRect/3zAX9GbVk7SmWP2iMH0AL9NlEMm95z3gjC65duzYqOXwFmYE/eI32+EeloTxkTGQ8wMgQ9Dse79ARjlHlpfYBtFlHxUbwz6OVEYPaQLnQkKP5M/ITZWmnXfKGDRuCqhO5Gv6NzJYo6G1jyfoLJ8k6siPRLC6dw8AJj4FM9OBoLBV4rAjJwXqfmKU2uDZCqpO1F52Tb4+2rOBa3BuHgRMLA5rZiSfNG2WQEb3QQouEwmqhVLzzkafgBteItV0LfDr0dI6c8E+oqYNIDBAqSOQInoyMBi1QyjjiYcSLggcyEdBKi4RR45nGW0iEhqPFiWAuY9LgBSU0nb2zRERVqVIloYpg63hPicrgm/Bs7SKKwMHxgYHVeh/y9dfH3z6YHq3ViqZsyyLChIMHE93SQyQCh2MSOQANYR45cBhwGHAYcBg4vjBw1Io83SE0SVtANbN4Kc294/AXvi/LHmq/Qy7SXLDL6DDgMJAqDLDXmYOxWIsonuxJI/SOsFw7VJu9oij8bIfBoEfIHeHpCHx++whT1QiX+KgxwBkBbH3ijzBLxpHDyvLlyxdx6jPKIudfcJgVn9hC4eNkbsIwnfJ31MNw1AVor6GsRdYkW08YRw6lQiEz2zmohHXLOLIlAkMMwL55DDLHwngkFbr/jksMYNBDiWcPOvuy+UwahxVC3w2tZssB4dNffPGFGGShB9ALQsM588CBw4DDgMOAw8Dxh4F0UeTpFid358+f78ghOanrKN48LL/sh3Xen9ThzqV2GMgoDOCdHzVqlBzAo0PhZG2a9YnHjz88uOyHZu8oJ9Tbin5GtcuVmzoMsHedg7345BXCOmPI/kT+7HFkDzqfoOI0YO+BX6mr0aXOCAwQZaG35ejzSt6Rvd1+48g6ZY8/h/nxZ/bfZkR7XJknFgZY6yjnzCGMPUR4mTlET3jP/NHhz3JwIOeGcKaH317mE6vnrrUOAw4DDgP/XgykiyIPA4DYc9CF7SFIFG16v5qcZum8P4lizKVzGDh2GOCUajzvfBoSrx8nxHJoEwo8Xno8OxyW5OD4xoDeRyrjuEUf6sY46n2cougxjklJSan+LNzx3dt/b+vgs2y3YRyJpjDjyIFPZj0ei204/14M//t7ps+MkOgNjHxE7gAYgDhssKD+ukVGHar678es66HDgMOAw8CxxUC6KPLHtsmuNocBhwGHAYcBhwGHAYcBhwGHAYcBhwGHAYeB/y4Gor8Z99/Fheu5w4DDgMOAw4DDgMOAw4DDgMOAw4DDgMOAw8BxjwGnyB/3Q+Qa6DDgMOAw4DDgMOAw4DDgMOAw4DDgMOAw4DCQggGnyKfgwt05DDgMOAw4DDgMOAw4DDgMOAw4DDgMOAw4DBz3GHCK/HE/RK6BDgMOAw4DDgMOAw4DDgMOAw4DDgMOAw4DDgMpGMiacuvuHAYcBv6LGFi0aFGGfmIoV65cqlChQv9F1B7TPi9evDhD6+NU9KuuuipD63CFK7V06VL5DFhG4YLTyQsXLpxRxbty/2EM8ElQaEFGfUmE8kuVKpVh5f/D6HPVOww4DDgMnFAYcKfWn1DD5RrrMJD+GMjo7wTzbfJJkyalf8NdiREYyOhxvP3229X8+fMj6nQ/0h8DGT2ORYoUUR9//HH6N9yVeFxggM8TnnXWWRnaFj5lmdF1ZGgHXOEOAw4DDgP/Egw4Rf5fMpCuGw4DacFAcnJyhnrj09Imlyf1GHDjmHqcHY853Dgej6Pi2uQw4DDgMOAw4DBwfGLAKfLH57i4VjkMOAw4DDgMOAw4DDgMOAw4DDgMOAw4DDgM+GLAHXbnixb30GHAYcBhwGHAYcBhwGHAYcBhwGHAYcBhwGHg+MSAU+SPz3FxrXIYcBhwGHAYcBhwGHAYcBhwGHAYcBhwGHAY8MWAU+R90eIeOgw4DDgMOAw4DDgMOAw4DDgMOAw4DDgMOAwcnxhwivzxOS6uVQ4DDgMOAw4DDgMOAw4DDgMOAw4DDgMOAw4DvhhwirwvWtxDhwGHAYcBhwGHAYcBhwGHAYcBhwGHAYcBh4HjEwNOkT8+x8W1ymHAYcBhwGHAYcBhwGHAYcBhwGHAYcBhwGHAFwPppsgfPnxYbdq0ybeSeA///vtvtXXr1njJ3HuHAYcBhwGHAYcBh4F/AQaQGeD9f/31lzp48KD8cc+z5OTkf0EPXRccBhwGHAYcBhwGMhYD6aLI//LLr+qee8qqDRu+ShMD3rnzF/XCCx3U2rVrE+7tf43RH01/jyZvwgPiEjoMZCAG/uk5nJH1Z2TZGTgkR130f7XfR424VBZwvOH5p59+Uu+88456+umnVfny5VWxYsVUwYIFVaFChdR1112n7rvvPtW4cWM1bdo0tXPnzlT21iV3GMgYDGBk4i+j4dChQxFV7N+/P+J30I+0rPM//vgjorjff/894vex/pGWPiTaxkTGbv/+A2nSYRJtg0vnMJARGDhqRZ6F17FjB1W58mOqXLmyKlOmTBHtxLq+bds29dVXX0c8t39ccMH5ql69uqp69Zrqiy++sF9F3X/88cfq8cefiKonKmGcB7HaQ9bff9+lBY1GavHixXFKOjavwWvnzl1Uv379Eq6QKAeYAnnbtm2n3njjDcm7fft2ZZgD4/fMM8+p999/P+Fy7YSjR49WJUveetQRFRDZ9u3bq8GDh9jFJ3zPPPv11199GS3C4B133Cken4QLTCDhN998I8Lmu+9O8U1Nnzp1elGNGjXK9/3RPGRcy5UrryZMmHA0xYTzfvTRR+qWW0oq+nS8AHOzffsXZF546cqxbiP1d+vWTb377ru+VWOErF+/gcLLmFqg7JtvLqG6du2a2qySfuTIUZq+fpWmvLEyLViwQCtZ12kD7YZYyaLebd68WVWp8njUc8pp2LBhmPbQ77p166nPP/88Km28BxUrPqC6d+8eL1nge2hgWoTG3bt3a1pyR5ryBjYmFS+oHyV3ypSpEbmgB88884z68MMPw8+Zq88++9xR88pwgfrm66+/Vk899ZRc7eeJ3B84cECNHTtWPfHEE5qXdVZ79uzR419XTZ8+XegOEX20uXr16uqXXzDuv6CefPJJ9frrrwsfS6QObxoTJYizAXpp4JNPPjG3at68eXpePu3LO8KJjtz88MMP6rHHKvtGH4L7atWqJVSOt9z0+E0f/JwhzHVkJqIe4gH0CzrXrl37wKTwU9btwoWLAtPEegGvefjhShJ5ESvd8fTus88+U9deW0TPy18jmsUcrlOnrsi4ES+sH6tWfSD93bt3j/XU/3bcuPHqrrvulpfQp9at26ihQ4f6J/Y8hZ4+9NBDatWqVZ43/j+hx2XLltXr8UlNkw+o9957T912Wyn13HPN/TPEeLpp02ap+8sv10sqaHosI9xvv/0mdZkily1brnWIKr5zFNkO2vbBB6tN8lRf69evr4oWLabWrPlU8hYufG1E/abAiRMnyPpOC28wZbirw8CxxkDWo61w4MBBavv2730VTBjksGHD1EknnayZ9m6tpH+pBdbiqkGDBmJ5t+u+4YYbVNWqT6rnn39eGLv9zr7ftesP9emnocXI86VLlwmjV8qE4mVS2bJl04w/hWmxKFu2bKkuueQSKQqrI8LC//73P9WzZw915pln2lXI/dlnn6W+/PJLBYEpVapU1Hu/ByhBCCaZMmXWgl60QJ8lSxZ19dVXqx49evhl1wz0JRFkMmcO2VfoR7ly5XTbW0j6H3/8QSEM+cH48ePVvffeq8466yx5DdOuXbu2eDwaNWqkvv/+e5UnTx559/zzLQT/zZo1ld/Lly/TjL6KX7Fxn91zzz2qT5++wjwMfv0yMQYwmiDgPcaVw4fNOAal9H/+2Wefa2b5sMyFIkWujUiEcIJRIxHijKA8a9YsYWz79u1Te/fulT8YNu++//4HzbS3aqPBbypnzhwqV66L1GWXXa6Z753qtNNOi6iX+jBM2ZZgmBJMLBYwH0866aRYSdT69etFwYIRpwf8/fdh6WfHjp3UqaeeGlXkKaecohXqduqcc86JeDdnzlyZz/Hay9hTxp49e7VBabLvmosoWP8AfwgDiYybN29G/J41a7bQMr+yEfChd2bt+qWJ9Yx5kZa5j/GqV69eMjdz5Mgh9AEjHXOXK/OWtb9x4ya9vjboebNBDK/2vFm0aJFauTIk/NH+rFmzikC1e/efMnc7duyorrmmsKxf3qE0MiakrVatqrrgggsiukbdhkaTduPGjQra9/nnX+jna4WuMhf4Q/FgjfAeHFx66aXqjDPOCJe3bt1aXd9fWggrGn7GDfPC602C5q1Y8Z5KSsqj8ubNG07P+ofmk/7HH39Uc+bMEUV4wID+mh/dHE7HDTSoTp06YTpLH2nX1KlT1Pnnn6/vD2sldmNEHvODvuzYsUPdfvvt5lG6X6kfPgrvAlDSdu3aJeO0du06VbjwF5oHnKl//62gibTp22+/lbV9+umnC36ZMyh9xvvGegd39NMAfKZRo6fVAw88oNP9pmnb6UKToIeffrpOlxdfKTFlcf3uu+/E8LJixQpRzh999FGVO3duO4ncJyUl6fFLUpUqVRLlfuLEiWLgWrlypWrevLm66KKLovIEPUA2aNKkiVY4F+i+/RU2PmC0rl27jpo/f5668MILNX6+0/N/pcz7oLLMc9q/ZcuWKFrP+0mTJul1oWLyOWj/8OEjIuQTU3bwNZOsNWQK1t15550v6461aAA5C0XsmWeayTiy5i677DJ5zViyHr38F4PbeeedF7HeyIBSxtq3gTazVq644nJZGyjjZcqUtpMkfL937z7B4fFC1xNpOHyR6BGcTjawZj766MOwcRJeP3PmzIi5BN1Dlly8eInOmkn/Jcs4Ms+vuuqqcHHLl69QM2bMUGPGjJZn1An9rlWrVjgNtAyZFLrqhVNOOVmtW/e5OGX+/HO397W06bbbbg3PA9oObUWW2LXrdy2X/C5zB5oBbTj77LOjygh68Ndfh9Tmzd+E5/WIESM0jf5FjR49KioL9AqjWps2reUdhgecOH379lUnn3xyVHocgRiNrr/+BqF1GAHBM/OHNYDsAV0C4COZM2fR9PrdsCzMc3ghuGON5s+fT3gPegtjUqrUbSQRwEiJTgM/LF78JvPYXR0GjmsMpHCCNDTzm282q5EjR6ohQ4ZE5V69+kPNuHtqxWqSEASYyGLt3cbD1qRJU63gD9VM4YqIfHhrXn/9DbVkyVJtLbs14p35oYuRxWp+f//9doV1/cEHH5SFevDgAa0ovKkV05BHiHrxAvz5ZwpjgkDNmDFdCykP6nwPacVtpij/pkxzrVevnma6w8zPuFeI4k8//ayNEQgcuaLS45n9+ecdUc/Ng7p162hPVmX5CXHq06ePFj53mdeaAGcOE+HwQ33Ts+fLmviPEeXcKPLkx6OB0l6rVm0RBLJlyypEHsHMKPEQN4TPwoWvsYuMuMdySxlBjBdht0ePnqLQR2TUP8iDYD579izvq6jfEOWdO3doy+sHEYyKMrJnz64t4pEKul0ABJx6smTxDzLxCjF2XvseIbdDh44i8J5zzrkqR45z1LnnnquF+PPU5ZdfJoIP8xYBkH7zR9lc/YD22O8IK8WbGAQw6MGDX1MYtgD6bqInTB4E7379+mtGU1yUbhSnWMBcAD/xgH6ULFlS+uhNi1HplFOiFfxrry2s51n7iD5689J/BJIWLVqKMuRnOPPmMb9pU6JjZ/Jk1BWBGOXTDxAsEsGxX16epbWPGPCYD1WrPiX0zCi39lpFSWO+3nDD9dqI2lB72SOVYgRLhDrGafv2bdo4ulwrUg+L8vbII49Ik3mPErxkyRKhtcwH8vkBfTG4+Pnnn7Xi9lQE7YCW2PDSS93lJ/O4X7++4vE27ydPfkMUcK8i7zcvmGNdunQRRTGvpciDC/gOig5Gh4svziWGD9NGUxdXjAAI0gZ/tL9mzVrCW3ivu+Y718ExyjGGiIxU5GkD7TY0hQit2bPnhBUHfnujtuBxAGHrAwe+KrQU+g+tAY+1a9cRZYH5AdB3+EKBAgUE92XLhoRuDMUoIiEaqxGRIGDgJoqAcpcuXZqQEY+iGcNWrVpJ2+DnhOL3799fG0+jeatfU269taQYgDDcEEVhcAa/xDjFmgAwhniNv37l8QxDEfn8DArILbTTb16Z8g4ePCQGWC9NN+/9rswtIgvoN/z9kkt2h+cj6eFZI0aM1HiqqZWU/GIYY8wxYBhc0SbkJIw9q1ev1grfOjH21ahRQww2dr1ensW7V199VeQ4FPnQHMii544/z7PL8ruHRsHP00rz/MrMyGfMHwygQQ4Ye7wZq1atWkv/TJsw0KKgopgbgF9Urlw5QpHv06e3jqB5VhxOGCqJVJk5c0aEYR06jFxnjHCmPK60I3v209WoUSFDgP2Oe3C+ZMni8PxEjvngg1XilWdtli9fTm9xKSD0wKwV8mHcxBEXa7y2bPlW1heyImURAdmmTVsdsThV09vcYnhEDgHefvttdeWVV4rjid9E4bRo8bw2Fl/Nzygg4hEjJFG/U6ZMESWe6FIcKVOnTtV6Rg9tRJ8reMLI8dxzz4XptykMPQUnITImciJrA77kNRyAw0ceqaTb00LTqiUmu7s6DBzXGDgqRX7atBmi4BQtWiSqkyihmTNn0la6zWHve+nSpbVVbbpeRAslZOidd96OyAfxQIFBEPEq8ggDKEEQCgjKmjVrtJKVQ+fPpBd0Tk0An5GyIKQTJ07S1vvnwmW/9dZbemGHf8oNyvyUKe9KOA9CxqBBgyT0BoJhAIIEQSV0nLZBiBDmsf59+KF/mA+E4KabiovVz5RjrnPmzBZF3/z2XlEY+TMAwTGWRvPMe0WQx/oJcTcWeNLgPcZDXqVKFS2A/yBMe8eOnZpQF9JCVROxuufPn0+xVQFiRlgTQirt5w+L7siRI6Q94AHmCyHNli22p9jbPrxtCCGJAPV+8skaUfio0wBCZaFCBSW6wzzLyOuuXX+IcSetdfz440963m8SYQsPNIYSwi7pB1ERMHEEKHu8qOukk7JJ30lnAOt4+fL3ytwLPQsJ0nj/YepXXpli0Td57CsC44QJ41SpUqXDj1kjCKR4qUAz446XEZwjCODRswGlzeu5NO9RjLweWfPOXDHMsLWDMvr27WMen3BXcMkY+QFKqF8kg50WPDA3vECZjPl3330rWzWsqS9J8cRhtMEjbAPziCiBu+66S5Sj3r17qR9++FHaccYZ2bXnea5arI2n0NmgtlFviRK3SJgh8+DAgYN6nPh9q95qcUtYYYD+EXLJFoAOHV4IP4ceGmCdM9cR6qDRhJRmzYp3ZIrQFBQJtpqMHTtG2kOb7r77bvHGsE+attj0j3JDdCCFFpi6gq6kt2mHSdeqVUtRvuiH7eEy780VGo8yboBoslgCLOlQ9qtXryHjgxEgIwB6/tlnn4tAzfolwghPFsbmpk2bikedNhARVrp0KaEx48aNU3PnzlXwP4wc0HlD342hEL4HH61Ro7ooiRi9GQsEbQCFAYXfpkmp6R8GdLxt1Auf8hrxgsoF5+aPeY+humbNmnrudRD5IMigZtpGueCIsaYNyA+MPdEJeFavv/56UYCZb1u0hx0P9mOPPSb9ZMzpc+HChbWc0kqKZB0R2ULIMPPjzTff1PTzsBgA2NuPPEKd4At828DzG2+8UfLh0R06NNrxYaf33iOD3HvvfXqcm2gveJmI19Ad+liiRAnZtsJLxu6xxx4VRQWHBQDtatWqjRixMGSh9KM4EU0GsGagTSHan0n6QpTCTTfdJDIQaZBFOAdpx46fJT3yGEqeWaNEa3lpFPm8QH5kmxMFhgwZqtdEES1PRUeQePsAX/78888iHvfu3VsMARjoYwHRfhgDiaooVaqU8HecTePGjRWjFnnhxXPnzokoJiSv/Skh/vv375OIj/POyynjAo+w6SFpDfCceZw9+xlCd6Hlgwa9puu+LWKdwlc+/vgTWcMmr/dq1vErr/SSdYaRJ0eOc8WZh+yIom3kBNYjck29evXVa68N0rTrkOgDrC1C6G16Cy+EbrRt2yaiysOH/xb8YCQBkIX4M+2ISKx/sL7fe+99beQYKa+gnRiiixeP9roThYQO8c4772rjeEVvUe63w8Bxh4E0K/IwOoQE9tR4AaGBcBgWcM+ePdXkyZPDSVDm58+fLwwRIoOFzAALuGTJWxShnuxJMuGDvCckZsKEiWFBBGsa1u8CBfJHEKqQYKklUgtsQmY9FmLFHu/TTw+FRMNgbUJnp11/xCKLUHLppaEQffu9uacuFCQv8NwQHe+7oN82QfOmgWDhXcPD0a5dW2Hcdhq8T82bPy+EHyGI8cIIAh4BBFaI64IFC3VkRIjx0/cPPlitQ8U+Eg+fLfyDV0L0bUOHXV/QPcIkRDQRYD7gzerSpXOUFxohLBHwGz/zzJ5rscrS0/CoYPHiRerFFzvL3KZuwkqXL18u4ZgmMgHjl59yjBBpA2vgyy+/CD9i3Fu3biOMcPr0acI0wy8DbuxxJAlKAYzx1FNPi2CaCLXDhg2PKIVxB/f0KS2AFwLrOWdg4FE7kQFBwTs+pj/79u0Xj4f57XeFfrFe/bxxjNGqVav1PFkRlZV5O2jQwCgheebMWVpB2aI9Gu9InmuuuUYL5ymRNSh+0JAg4YZMhLqjINmKEYaDpk2bWcajUJMQ5ENGnRKhB/p/5tKyZctEARgzZqwIhqShzYSo58uXX3tg3pR2oGx07NhBvIamAMIkUXJMJJF5np5X1uDFF1+cpiKDInxMYRjoOEuFPiNwG1pj3qfXFQWUiDXDM6dOnSb8cPToUWE6Ah9g/EMGbiVbjQhHBbd++EVBHD9+gmwzM+8x6EEDoC3poWyxvxdFmfMWjEfO4IQwYraTeYF1hgfYdhDgAYd3YfjBu8ae11jAvEQpYssLc5F1gJL10EMPS7aBAwcKTapdu7bQ0qefbig4YvxQvIiauvHGUFQUGRDs4Ys4ADAKvPbaYNnHjwMBRZ5watrNAX14CW3A8NKzZ/cIA5H9Pt49yjryQ0i2SUlNiHLt2nW0Yr1T3XnnXXoLQjcxXmDAwLhEvcOHDxePK2HXrEP4tx8fpGzmF9GE0HtoBnn37z8Qlo/Ai+HDtAfPL/ITQN8fffQR2cKY0kL/O9rL3MqoteJfa9qesu4w4MC//PDGuteoiHjH/KhWrXrYAGbGrXjxm8Oy6iuvvCzGF7tVFStW1PPqNdnqwbYTaDLKvRe864h52azZMzK/GXciZ5KSkvQcrqgqVKgQHj9vObNnz9Y0a7ye2xNkbWJkxdAGjbYBpxzji9MsCJDx4CNdu3YRehQp6yZHGJJxdA0ePETwSnkYlNiW5tdXzmtgzeFMM8Da5owFw9uYqxi6AO79+B0GEaJriTJaunSZIuoSeu0HpMHosFgb7+6/v0J4zvuldc8cBo4HDKRo0alsDYsJxRDroRdgFuyBY3FWq1Yt4jXhyRAFLHYQHRP6ZRIVLVpMiCLeK1uRJxy/fv0G2pO4XBSZjz/+SGfJpK3fb5qsaboSnmMATwSH+bCQvUr0hx9+JIJ6xYr3m+TpfkWwIuyPcHrqx/ptwh1NZTxHoCZ0DoL16qsDtAemtHkdvt56663aIzdbzi+AQJ966ikiBDZs2EDwSl5CrTDGEHbIISkA+4Z++ulH8eSbwkgLM4J5Y6DBsxYUVqebJ22HISC4I3giUMQDg2+YO/de5TNeft5TFyHnRig1eVCcKJdtBkZ4wLABc77syD5Ck5YrworZdwqTjgcISeDSABbdu+++R7fnkBg/8uXLL4ozlmeMXAC4TARory1Qs3cLQ9fEieMj+slhZwithMYbYSuofOom6gCGFk9RwehmhwQGlel9jvECxZ25SsggcywtwHz66y+ECCVRJd4y6Ks3PM6bJj1+swaoy+tRNGVDD/0EPfM+dE2WfcF4qL2AcEMYOyGGXrjqqv95H8meS8KO2drgFexM4kTmGKHkL730kqyLk09OXbQNQj5r7rTTTpUqCUfEo8J+ULYJLdNhjng9WM8oTAjEGEKIuApN/2StAJ8keyPhGYMHD446g8H0xf8aKVgaGuKfNvGnKGnr1q0VPgXdY2y9AG5RKFGe8H5ikMhIuPzyy7UyPF/zhj9FYEbArFq1qihmCMUcCMfcxIhshGgTIh3af9on6pyBXr16a0NLXl1ejXDTGzasL2cI9O8/IOyNDr9M5Q3zACMy59P4zVFC2vPlyyfbyWweAW79jOX0j8PvUDA5myWvDr0PAujxiBHDhUey7QsvICHl1bQ8ct999wquSEMboYWcmWOgS5eucmYM+8dtoL433ng9/CjkxMgknv3Jk1/XvLuHRMeEE+gbnBlly5bTd5GGaNYNRqC9e9kWFckLGD/4UjwPMDQJzyv8jogAHBLgDb6blJSk19t2ve1xqLSJtYFiaNMo+CG4pt0YIjlgkO1ktIfxgiZhiMG5Aq4wJhKFQNQNtIfQ8DvuuF3WMuUYWQpcg0P2XXuB/csofYx3LGMM7Yee/NPA+QnIAqW0h9wG5m6ZMrfL/GJewu85/8AY3eHzHTp00NERV9jZZAw4XI7x9wJGlAoV7tNb+EJREkuWhKJAwIUNW7duk0hX6sKgRxQItACaCyCrooRiUOratavIe/fff794n805SaRDbuQMJgNEfPjxN/gr8xj5xQtm3M888wzhj/BqYxRGnoVH5M4daURFpsX4bDz0tJ1tk5wfZdPwdes+kz4Q5UGkoAFkw86dQ0YHIgsnTJgg528gh+HpHzDgVZM0fH3vvRVhOapw4Wu07LMk/M7vhm0GhPQzTn60yy+Pe+Yw8E9hIGtaKybsCmLM4vMDlKQaNapHCdnsI4OZ8LkZrxJPORwehsAMMWKBG8ULYZE/ozBhCQUgJKkFlAus3Aaw1EMcYEB4VyBmI0cO13WlhH+h8HKwU0YCjADFCWED5nzjjTdJxIFdJ/2FsDz66GNa+X7Al/CSHmKaM+d5WkirJQwRzziWzfbtX5CtDt26dRVDDEyAkFijqGBNPuuss+0qRfkYMKC/WHw57Ofll18RD1REIv0DIkz7EAjYq4enDQZoH4IHg/PzSKJYQzSZUwjOxortrQMh48wzz/Ktn7QovYT4eQEB0J4r1GULNXZ6yiCcnXnIH23zA/rL/Lzvvvt02PGz4SQwPv7IlyVL6DAW5pj+J6Gx4YSpvNmtDyBCOWYecuqqDRjN5s6dJyHYiTAeGC/RDzbjtMsz94xHEJ5MGr8rRoLdu/eIoc1vPPzy+D0Dv6v1eRsITfb4mbQcFsTczGhACWUuhEJPo2vjPYZJaAtjHQSssyAImmfe9Kwf9h8yLrHK8+bz+83YcFAjZRI6Tx/jAXMGY6wX7yGF/lS9Ps/QY6XkasribBD2KLJPO+TdCb2hPhQsPCRBfQEvbPUx48/a4p4DTe3nKLlEExwtQIOhPxijadMtt5QMC4GmbI0CCdXnMLbrr7/OPM6wK+sA+g2++IO+GwPfvn17BR8omcw/G8j32GNVImgYfcMAAc1AGcPQi1LA+S6sd2j02LFjxbCUSKi0XZ+5Z3xQJBgrPIN+QCg3uEMpTxSqad44ZMgQaTsRH0EAjmg7B5cS3YfXsXTpMkKvq1atpo0UrbUSU1YbBUZoGqjEOF2kSGiLIMo1ePOCd37SRwzkzXXkG1sV2OLiBWQK8rHN0AbkD8YAZQcDmpnbpOFkdLaCsC0uFrB2OWg2W7ZgMe7OO+8UJQxF3csX4PVGBiMkm7YSDs3apT333HO3VvJ7igGuRo3q4f3c0DpoAFEufvIfuEO+8zOAQbM4bBD+yxaF00/PHtF3019zfoH5/U9dP/tsnciGtgJMW4gQwalEHytVekRHtowTwxJj8vvvu6S5RCt4IxiZl6H3kfPB9M8o8fxmvJKSksyr8JWxYjsFB5ZyYBxROIYWkOi664rJHzjGCIHnfcCAATJX7X54nSV+SjzlQa87deokfJgybeA3BkbayrjbY05kD2M9YcL4KDwwP2xgG4sXiHaBnjEX7fXBHGKrGbhl/TAXMTaF+JI//bfx43X0eOvlN18OwKkGX/SuG7/07pnDwD+JgWAOEKdVHJYCk/ZarU02I2yY31xZ5FjiWIiE/PgBCjoLkv1XEAkvQw0t6lBOGCRpEfR27NgpV+rQj4T5kIr8oXQptSGk4HWhjSjPeAzq1KktxHDIkME6TKmZFj4e1Afr9JMD+bCcs38HC38sOHAg5Pn1tjlWHvsdzBZmymnBNhhCBkEFJwhbjz9eWfprPLykJ52xumOhx+KN8MKhP6NGjRJL74svdtJMoLYcKogACDHctGnjEWEjs+zTLVYsUjCFwLOvECC0kT8/QCDHEn/ZZYV0uH87UbaTNCPiz0D37j0k1NoPRxBMPMuEXAYBQujo0SnhpCYdfWdeweCI+kgrMFcQstjLTTjowoWLNLNs46vMYgQh3JCD8IIh5bR+DBzMubRC69ZtZY7a3iNTFusgNWUz19i3jvIF7oIAgxrhoqkFxoKyj0aJp068UwjkeBT8FN1jJfARqcKcRZnyAw6J4/3y5StEMfZLk17PCEfGaMChPJxxEQSMAfMiEUEE3BIe3KRJY6EFQWXynMiPKVNizwkzpaBnCFFZs2aTQ9nWrl2n51uKsEX7UAxoqzYFRlULTtnbiFHQAGUztzgDYNq06eax9BX+kZp1EM585Ca0/vfKHuonnng84jV0AXpLmzFSYQiDJts0mAx4wv0OhowoLI0/DF5pA4DxgnvoIt5T7xoJ8bhfJY2pEjqEcpuk6TK8DfqOgaVAgYKijOCl52BKDoRju1lagPZg7Cc6yXjovOUwhwmrBTDKHDpEdEewEYx0vEd2YDsHtD5orKmfw8nwWHJuAeOEUgBvZY84ig17yTmvB6WM/bAo8tB0vH+h+UiNKXAE5SkP9B0eSJRfomko39t+Q1vNeNmZaSNfpPHKQpUrR847O4/3nq8HXH11YU2XzooYY+YxdRO5CA1muwXGfwzsvNu5c4fINBi4ARQWZIucOdlbHcqLoo4BBGcAp3kbMHPQ/PZewYEd5WG/37Jli0RUoESyVhs3bmS/Pu7uMW7lyhXpUaaRzDtwBW1lXsAXzJYW04nSpUvJGjO/uZKeqE8cEmkBwug5d2fYsGF6XZ2s1/1BcXoFlUXbkpLyipzCXEGeKVOmdFBy3+fMoz//5Myl3LJdCvkTgDZXq1Zd5hmRVvxm/QAYG9hOiILuNWZIgjj/Pfvsc0IPMKYuW7Y0nJq5i8xeWZ/phJNkz57dsrYJnWeNQYtZV2bdhTOm8iZPnkukXMY/yMCRyiJdcoeBDMNAmhV5FiwMMDWwZs2nen/ZtxIOGutzZ1jMYCx+i5HQLJgs1k7SQDwJczLMkDwwbbMXjvZhtYMAGOA7tpxyT/7atetECLpYLPFe4yF66qmqwviHDx8hoXYmGsCU471iaaVtiQjO3rz8JhTNrw5wXaFCSJHBso/CDNGCcMJ8DSDEoagTXs1+I7YjEPYJELqEQoTxhS8GwIjYV0f4GofzwCAQlsl33325TJEJXdlXj9CH0I4CTF1+gguFYWWtX79eVLn0A+KNlb5161ZCjKMS6QeMr5dhkg4DDn2yx9kvf7xneEMQMhDS2cM+Y8ZMGZPSmil7gb3fzDVbyPGmAQ8oAFh38YC9/nrKeRHetLF+g1+ETnDnZzwLCRShAxljlWPe6WZpHGN44lOJwUKFVzEw+ZmD7In2E3gZB0Lrf/31N9lr7TcXYLbMVb+xNHVwZTyZExzO9E8CYaq05T199kTRokWjmrJt23aZ80Ss4OHOSNi48WvZUsNBkihiAOcmoKAZAOco3JxoXb9+A6EV5h1zlpBYDvfyAoeA8T4WYGzLkiXY2Ebd2bJlEbrCHkwO20M5wPvHmSb2GiUt0y9oDnK6euiTniktgobdf39F8YJyqKmdl/tEPC4ppUXeIewSDponz6URL8BJK30aNQZsyn/ggYf0eGM8DB1UaPcJL2WPHt1910ZEoWn4wboFZ4T8VqnyuOZzD+qxyCrjy5YwI2SbolmLXn4E32ZbAJ7cEN3IJKGphEwTsg/wqUnwDC7SAtAN+LIduustB0Uez1yHDh1kGwZjx95gtuJwXkcQYFRmC4c97t608HbOj+CLNChc0BtzJgm8H+/566+/IXhr27aNRKp16tRRzog599xzfMcOTz3byugbyipzAgME+3jZS812N/ipzSswRNJOeLUXGEfaaQPziIO8EgXKIAIGvpvizc0kZxwMGTI0XMyMGdP/z96bwElWlXf/p/dt9n1gmIUZhnVghkF2ZZNVjVERBFERk/z/mETjq755k9dEE43RGBM3zCcqiLhEDYILiCAQ9lVFdhiYjdn3rfeu7nqf73P7VFdXV/fUNjM0/s5MdVXde+65537vqXvv73mec44byDkG2tDhhy90URYHPcRxku2tjRsSTYfYpx1VItEtDB6cP7z9OBtKEXqVqEshZfDsOHPmjEKyDsmDYOcemJ24X+b+RrPX7+0zERhcgzjvhSZ4x/y02aeeerLQTTP5uH7z3EGXzewUnz8xJHG94HdA4jmSLhREz5SSeB6lCxbvVv1MIsIkRs5g+CUaAKfc5z73z4MMhuWK74aGRm+X3PcPO2xBZv/6IAKvRgIlC3keEIsR8vT3ZlqIc845y3+gI8HgwsmDSvaNGksboXhY5+gHSJ80bsAM7IJX7otf/KLfYPOVy83x0EMPzazixsELgZXvBstNmgcx+gniQeYCRfjU3hL9iMoR8nj9CN296667XWRx8aW8M844I2B8IEwQ7wZ9m9auXeseNG6ySYgUBow+8zbM8moSNhgTD9N4YBjMhsTxwJaR09/85jfZRXedPQh8xbzp/+RehWzvVyxjpPfvfOd6t0jzsLC3xENwvgdtHo6w0PNgOdJD3HDl79iReJ14eEScDpfYx9y5c4d9MNm8eZMbPNgervTtvfbabw16OItlX3PN1zPT+MVlvNPeeABAzNL/8rnn7nBPCKKjlJs4A+fR3ql7fOg566yzzYjTY3ur8gcz+q/hHcKIwzJSfMikvWQn2jwDHDJlUUy0B9jzEEk7iokHuHnz5sWvmXceCDdswJOadHHJrLAPtFt+Czw0ICbjQ0R2Hn57rB8tacWKZNRrmNF/lQeKmDgOzjWDbzJSez7PXJI3CUnH6MTxx8RvGv481NNu+BxTPN/xO+9f/epX/TfCbzomBCjeiZhgTlujLK6d2b8J2gnCJjdRDwY2ytp9bhb/Tt3zPdjzUMfvh3BKPEX0VYxebRghCmDH74P6UTfKoS5JWxg4bnZEG6JMPKi5ie3xyue7BzFNHh4iZgMoNrW2tnt9NmzY5CGpCDG8Z3gyzznnbO9TzoPjxRe/3a+jXFsRQCedNDAwGnXKx6fYumTnhxX33BdeeNHPK9ETiDB+2xjU2B8eZs5N/L2xDb91WPA5JtYj/mLifBApgcEspth/NXrY4vJC32l7GAay58nO3RbPGiNXI/YR74gerrUXXfSm/r6x+SOdKJMojuxjyi2be8x1112bWfyud13mUWJxAQbzM854g0WLjDFxcoa3P4yTzGSzYMFh/ffUmDt5x/DAoGIkQ9gvwhODOs8XGLA/ZUaJRYtudOMB+aJ3m/v4vkzx3hn3gXGHRLvg98AYDlw3YtuI+eL7UUcd7cb4+D2+YwShmySiLCY4wH7Lls3eLY/PtCF+38mzSMw5+J18Dz/8iLdbBsb72te+ZgPw3WyGgisGZ3wVfYNfFKvFVovnLK5R2Qnj2XDjC2XnG+7zd797w3Crhl1+wQUX+owHxXRhyVfYcG2HvLRvDGDc70kMhLhkyfHeVdYXFPnnxhuZXm5KxlDN5pwHrinxd0994mfaH6+YqAcRJSPVOeYd7p3noPg7Gi6PlovAq4FAyXeX5Llg4OFgpIPhAfXDH/6w9yUmlKyUhJi5+eab/cGNhxPm2MQ7TR9FHkAXLRo6IFQp+8nehgsDFygeNJOBjf7JLxzDXRzoa05d8nnVs8sd7jPHc7AJ8WuvTfrt8cDPTfjRRx/xgUyeffYZC5Ob7J+5gN1+++1uJc0X3UBYOEKTGzwXNcqiPyTb8RCydOkJ5j1IBtY688wzfdoRWGIUWbjwsEFVpFsB1uV8x434w4vNOub4zJd4SOehafLkKflWZ5bBmpBJrLgj9X/MbJD1AQHEeaIPeb7EcVPXhQsXep8tzlO+hBcn2wJ/5ZVX+kBSsPxzGygwJrpjUGa+/p8MrkT/UCIUMArh3WdAIRKGhmLSJz7xCRut+Uc+mvDPfvbzzKaMUG279wQ3jChPPvmUezr4TqL95nuQJgyQaViof0yw+bM/+/887A4vX9aqvOed8/mGN2A0GJpoCwgcBqH53vfye+3ZKl97GlragV+CKMEzwOCbGMg4983NLTao1KleObrqwJRok7NteihEBt7RfIkHEYQK4nAgVflDChEb991378Bi/5QIheyF+QxdCPDcRGTR921UcgTNSA/YcTvCJ3/84x/Hr8O+I3iYNSQ3XX31n3soLw9c8METH7si4Hnl+pLMmpF2ATB37lx/UKIdIvBju43l4lG89957LXx+oN3HdSO9v+Utf+SCkL6jxSYMWfxmiHbguse16/nnn/dIGKZ6wyjy7//+JRM3SVQRYcvf/Oa3PGqg2H0Vk//RRx/1dkeoJwMEMk7G//pfH/EiCO3GW/bRj37MvjON2EY3MkyaNNl/4/TB5jqUnTC2PPPMsy70OEaMBLwT6YahBxESjTDZ2xX6mWsx7SCfoTyWQbQY9yEGbIyJ6wqDwzEgJKHz+RL312ikyreeZRiBGJOB47IrjQ8ORncvOHDd4fiICHrnO9/pRWAsxyDyu9894QO55bs2ES1AX2j2TR3Ozhm347Of/SdrB/+/D5wXuyNxDaZ95xMEXGNz2zzCMd++vZLD/OG8ffzjf+3PQzELyyiHF4bFe+/FAdI7aH94djE6IZgw7DBLAPXNTTfe+BOPOoj14h1+//mf3whf//p/eHYMSESoLV16fO7mme/Ll6/wMYCIkiBxP8WBgKjn/vNqTAwmyHNdKWnGjJmDjGOUwfNYbe3Q6Ixiy2cgOLogxnMysH3ajbw4IEg4SGh/uZEfA/kL+0S7XGXTit5wAzMgJVGgLMNIGBORSNTrueee92gswv9LTbTJ3MS9kyhZnqti4vipB6H2kQXfuYYTeUo7LSVxnad7QD4jcinlaRsR2JcEShbyPMAsW/biXuvGzZwB5JiPkRBJEjd5BuDg4W0gHGygKDzvyQ13wLOKuODBBaHFRQrRu68S9aN/HdZiBhOhngyQww0cT328YOTun7A7PBn5vGi5efkOG7obHHnkEb4N/ex4xUT/1+hFZxk3fiz8JOpA/yHE0jvfefGQGyGCnIciRDzWdEKT2R8XdfqVEtUQE+IWbw4PcZ/+9Kfj4sw7U2YhCPI9lFEPbuIkRkHOl+B26KHz9yrkeYgg/J/+it/5zg02wMo/+KAmuQ+h+faBiCV0F0Gb7/xwcUcQX3/99fk2zyyjX+fixUsy38eMafFIBQxRM2ZM99H9r7vuOguTv9MG/fvXvEYbRmVF9BHtgODJbg+Gq6hEeyJsjL6m2UIewZidnnsOY8vL7jXMfTiM+bipY5DhgS43UUce7DhG6k47yU58p6/zvCzvfD7OcRvWcazJe5EHHQt5lbwzYBBjTtAeL774Yps14B73cDFjBm3zu9/9nl8jMA4RuXPttdfZg+9nh9Se9g1DuklwjYmJh9iPf/zjHrKfa0SJUSG55yNuO9J74k1ODDoj5WMdv4958+aaZ/lkvmYSy0nZD/hcB/id5qaTTz7R+LzDw6UZ0wARz3bU/V//9QuZ7DyQ0VWI6032b5u8vOI+ESB4bYtNiLf4sFnstlxDsud75rdCGD/imRR/OxwTbRtD3qc+9Q9uVB1u7JBi65AvP0Kd7mJvf/vb7Fr+pxmPOvUhKotXTDzsMn4C01DFRH3JG6/hjH2BoSURmMksFohfrvPkZaDXcoQ81xPaLmUOF+b6gQ98IFZv0DvGMn5vwyXCwBHSI11/EExELBBRQD/542ykaiLNaF9r1rwS7rnnvgwL9sPgckxxxW+RQd7yJdhxXPF6nrt/2m0ySN273dhDtxCYwzOfUCVihGeM3/72d1aveL1Nm2BaNeT6m68+cRn1+vzn/9nH84nLOGamMouJunL/WLlyhUd1cK2HBV21iMwbKSVtKRkjh3wYiugb/Zd/+ZfW/t+aqSvXtpESzzLnn3+eXyvJR9eem266ySIlPun1H2nbA7WO68FIxnfOOR522jndBgg9j+2CZ4nsqCmOgfzZUTOlHteKFSt8Wmeenwe6YlSZyN1t+6j1Z+RSy87djuPhOYRweZ6huK+TrFm70yder4lSu93GLcGAhqgfyaiTlFDcX35HRIO8+OILmQ1x6DFmzIMPPuDruC/Rve1zn/t8Jk8pHzDe8JuNkUmllKFtRGB/EShZyHNzRnDvLfFQwejzXMBj4uZGWBUeqHyJm28SFjOwlr6bJDwl8UI5sHbkT1wAENn5+rbmbsmN9Yc//C/zwrzg062cfvrpnoWQpne/+wr3yDANC2Vm14OH/bUW7o7gKjQlRo6/cANFtoCP22MVzLZ4xuXxHYs2Hq5f/ep2ezB+S1zs71gkeRFSyAMFofkkLlAID/qoZSeMI9x4zjvv3OzF/pk+4InnYqgg42GNkHG8Hng4uLgPTYX1W6VdUOdPfvLvfaC5z3zmn1z48JCKsWK4hLV59epV7k2OD6r58hZi/MHzSnvNTq9//en2YPZFY/Yxfwj60Y9+5MLkrLPOzM6W+RxFNsJ54CabWV3UBx6WSLSFeAPNVwDtkcTD2XCJNspDU3YINtshQHkw4OGX9v/zn98SmJYs24rPuSFU7l/+5XPDFf+aXc40NLSrGH2B95uZCj70oQ/7eA48xJ1yysn+kMZ17r3vvdK8cu+zh5zDBzFhikf6pueLZOBhCI9fvmn6GGGb0O59mRAnCDu8sXTvob3RNhgcibrxgDpgRGQmBwYnS7rDxHpFYZZ9jaZLCNEpMXHNxIhBe/qADaKVnVgGv1hO9rpKfs6+bu+tXIwJXKeHi+Bhe66P//APn/bIm+GMaHvbz97Wc/4ZqG337mQUdK4FGEQITc8WiZwrfst0ASECYkAgMiPMQT5tE9fsP/uzPzUx9j6/h2FovfrqD3r7wwDF93ITHDAmE71BRFJu4lrETDD8prjuZCeE0Ujhx4899ph7Okc6jxwjAvWFF14w7+BNZly7NrOfD37wg95djVDwmBirg4G5uH5m84zrC30nxP7//t9P2L5q/PdDm6bMJhvdPjfx+0L8YjzNvm4TqYAxtdBEW4B3bHtwye5KQzl0daFr3qJFx/p0fzNmfMQHwYsRMyPtC69mtmeTgVJJLS3NmYibkbZn3bXXXucDGP/7vw829n/iE3/nRigMLZdfftneitnv648++hi/VhGVc+SRR2b2z7kjwoCunvE5jnPIs9XGjRv83NP+jjnm6Mw2fKAdXHzxJf7sHLuF5rb/QRuM8AWRyWCE2QkRy4DDlUzc+5jCkmOOKWljNf6V4yedfPLJdu3o8QGL//u/f+y/I7YZ6XfqGxbxh7K4PsXfaLZBnJmGfvrTm8xQ0ln2Pum6dMQRR2auGUVUUVlFYL8TKFnI48GNHhO887mJHzADfGHNnTdvrnuFN2zYaCHee9x6OZxA5cbHttxYRxJlufsb6Tv1JOSNvl7ZD4nshxfeaQaKYrAaFNBl+QAAQABJREFUHsrxwBPal+19xML44x//yATlpfYA/6Eh/fwRwQj5D2TNyTtSnVhHHxxuvsMdJ+Hw2R6r3PJ4uPzTP/0TnxoEUZlrEcdC/OKLL7rIIPQcA8nFF7/Tp0rLfjDlwsiFGuZ/+ZcfspvRDYN2le2FGLSi/ws3Ih682L7cxPmAB4MR8frUpz7lYX08iNG9ITvsPe6LY1u27CUfPCcuK+Wd7gjwnjNn9pDNTzjhdd7/nNBj5umNAycNyVjggmjFzs3OQ9m+SoSr/eQn/z2keG78hJAR1UCIKd4wPKvR+DNkg1f5AtrQUzafLO2S61Q5Ce8J85tjSIoPyowWzJy73OgxfCBo48BxXDuYy/mf//nzHtKe/RBDhMxIiXrnS/u6Dyn9ozHUEYpPmPPxxy+139p1PpI5InzFipXejYAwXK7PvPAO0zc8dwq63PpjkF26dGlmMQ99P/3pT124ELp46qmnZR66KHf27KG/vczGFfoQz8lwv8Hs3fBwTp2jFzZ7Xfx82WXv8i4JdAlCJOYmvEh45hi/otSH9lhmbCM0Fa7hjDYfy+S6yW+X6/nKlSvdI5+MR0K7qnLhFu812eKM/Ag/2jcPyPEhmX3CCMGAMC4mUQb3Tzyu+YQ89ULw0v2B30x2on2MNNUrZeKJjOcxe9vcz5/97D976DiGfPbF+Aa093vu+Z9BWRk0Cy81Zd5zz73hzDPPGLSeL7CnPSAeRuLxlrcMeK9pO2wzNH/Sv/fcc9/oA+8O2VkRC4g+waiYm7Lbd1NTg89AkM0sGqlyt9vb9+w2uLe8rH/ooYd81HSm08udV51ZC6688krzoH7OnxOZVixf4jrMubznnnvc2I/BKd9zZ75ty1nGtZy2yn6zhTwinOgsnnnoe44RAicE105+j1wvPvnJT/q55/yTYM+L38a//du/eb4bbEaF7OfMYuoay+U8khgImmfGfZG4bmDk7e7u8va/ZctWj0DAOETU1L333uPP0DhLGIwuTifHecNI+E//9Bk3FFaibhz35s1bTH+0WXTNWr/eYSDi2e2hhx6pSLvAOUZET7xeVqLeKkME9hWBkoU8XiVu/MtsBON8g6MhDr7//e/7xYoHNFK8kHEjeN3rTsh7TPxAWT9//qGZB+e8GbMWUu5Iadu2pA93rlfrH//xH917gTjDE8bFmGNh0Jp8iYeH73zneregZ6/n+P7hH/7RBX625To7T/I5GdwpLserxUWJMMZ8aevWbT6ASL517JM+SNwE6Zv2/vdf5dbZ+FDHNlyIrrvuWhsU7zYfoZ51c+fOzQg0OMPu85//F2dOv+krrniP95cn5K7QtDf+hZaTL9+nTMjjkSfcnv5q+dK1117nN9RSb4ixTPoC4hXN7d9Mf8f//M9vuJHnM5/5tD8MMpUPRpTopY1lDH3P3zYZ7wHPUnYizBVPaCkpnoPsh7eRytm+fZv3Y2fkZmZ8+PrXv+6hpYcdtsDHTvj7v/9kgAcDuI0UDTHSPspdx7HwYGDNtKj0yCOPepvhYerJJ4cP0d1bofw2mYYLtrkRM4ycTV9P2gXjFUTPFr8xukJgFMQ7EiN69ravfbE+RqDsrU0wawViLfaRJX/0iPKgSVQVEVQMhonYp48i3QwYNf3GG2/0B9rh6s99gldMdL/h4e6aa67xvsiIefouD5diu863Pt9Ai+SLQiN7G+5Ta9eu6w/NXOb3lv/6rx9aP/jn3FONgRBjbW7iOktkypQpg42UsV5PPPF7ezCv9Skq6R6BF5pR0bPTBz/459YOn/RuUhiAyknWFDMJwy2h3DEhVjmXGKsJf3788ccCg05Nnz60G0Tchnfu4xwP7yRECmVNmDDRzx3dlWLK3n9clu+d3wFdDXjAxsDNdTU3EYJ71VUfcF4Yubj3cw9i2+Ei2+gmhrHiMzZ4297aNftDQGBE4XkEIz0G+y9+8V8zx0qeFStW2vgDf+PGOUQR7fHXv75jSBQGIdZMc0X7Yt/kje2AcvIljCQY+nJFJ4OgcZ2gvZSbOG+MnB8NIpwjPIrM4x0T11Dqkv18QtsgAo2uJPHcx/yVeiea6VN2D3/f+97r3YfylUvEIEapq6/+cxvA+G/zXk8Y4Z6IIAyMGBe59sS+9vnKrNQyDJE8N2LcwcMe+WHUxOuM4TEuY59Mr0xqbGzysT24h7z5zW8xEdwT6GNOv/YP2xSfXFdIXHdLSUT68Tu9yMZbYR8x8fzQ1DR4PIy4rtT32277lY9VQpcWjJK8uCbyfEkkKMKdwYY5J/wuuNY+/vjjPoUnvxF+f9nRfaXWI27H/YPnXt65rlx44YU+1gNdN+68807v/hjzlvLO9YWIIbrYFHKNKWUf2kYEKkkguXOXUCJ91Ai/ZXCYXCHPxYQfMqF8+RI3whgqn7v+N7953D0ghDRlJy5W3DS5KZpJILOqrq7eB5fighEvjpmV/R/wtGJF54ITEw/oDPhzxx23u8ftLW9BzFzjIm6kG/SRRx7hN3LqwQMH++SigmggdHakRHcEBgPhWNgHIajJxehg3wwu8RiwBOJ5OProAY8i67iZIbC4sXGRYQA7BhajfxIeVMK+SewjXoQ4Th76sCjjqTznnDea4eFTLjJ4wCEEk4HzmCeUsGHGMsBDG6f08wJz/lBXEucEtty49lXiRvqxj300b/FcdDnm//iPZNCdvJkKWIgHizb71/0DAHLj4fxg5CCsDg/8V77yZbem0/eUB79PfvJTPkDS3/zN3/h8yPGGDhs8MXDhlfuQxPqHHnp4yHJY8rC1t8QNlbDamLDw8xCMtZybZvb+2BeeU9oeZeN1+u53v2cPJvf4Q8Q113wtYz1P6t3rD5ff+MZ/2kP19T4bBA+JGFPw0vNgE9tV3D/vtDfaJ8fA/umnnC9f9jbxM+Gv8Gfb7ER9OC4S0SWwzJfYN8a3eL1BkCLKKBcexYSpZpd/9913e/cfRDxGvOy0YsVyC6v/hHlEj/epKbPXkfcv/uLP3RNx3333DnmIz85bqc+0N443Jq5NjI/BdYpB27IjcKZNm2593JMRwWlLPFwySCTXHJjTntatW+veecqlKxHeDj4jEMaNG+/5eUBn2jtGTsczxbYkvELZ55LtEJYf/ejHPDKLh3G6ORH1xEMuYhrDAGHJ2W2XsrhOnn46/U75NpC4x1Bvru3ZiTrkRiaxHoPDyy8vt3Mxwe5XJ/omtJtnnnnaHrh/4YNJxnKS62wSrfXcc8/7g2s07nEstGseovn9I3jxwmPUQxR94hN/Z/sfZ9fjN8biTKi+ze9RGHbKEfLsm9DV+DuLO+B3Qd/2L3/5y2aMO93qc7WvwrjMfeHv//7v/GE3RhVw3FzfKI8HVo5xx46d1j3pXh98jvUc41VXvd+FPPngyjlta2v3z4X8ttk3BkKuIwzamZsYt4Xz8dWvfs3PD2XCjXaVL1EHyqOtFRIRxfWOY+Z3wawSeEwR1Iw8zzR7TBXH/Zf79xEWXRMH1+OZhjBduppw3YwJzyxiDh78nnAExDYf8/DO+YAV626//Q5vj9Q5O/Fby2c4inn43VIGr9idYjjvIHkIz8d7zLkj8XwWE1xpMxwreUn8znjWwmCX+5uL2/HOseQ+D+3evcuzsJz2ExlQNr899kf9uXdyb6arGUaukRKOg7Vr1xjTT1sU4TK7v/71IG8oxlmMMvwOOV+0d64plTCEjFQv1n3oQ39p97/3utMneuW5vjKAZ25C2PPb+trXrvHuHDxLxShC+HON+NM//TM3nnAvLTXR1en7NvBiPJ+xHM5F9rWe8865KOT3GsvIfUekc+3Cy07kGddPxlWKifsM3QXYz91332VdED/qBnAGumXcHu4n8foZtynnnd/0L395a94ieF5+2a7zuVzyZh5mIU4WniVot0oiMBoIlCzkufgzMBIhabneW35oTONSSmLUcm5CuQPO4L1kVFkG6zr66CMzRWPJ5+Z+zDGL7KbNzWuw+y7e2LCyJ2GGweeKxcN7ww3Xu0UVTxPhnzz4cFGij2h9faOHG3JB4N5HX0NENOHwXKjpK8y0NXh1Hnvsce9XHx+OM5XL+kA5CGPyHnvscX5x4wb9xjee7Q8YZMVj8Hd/9/fu8Vq9erU/QMYHIMLHuZhy8ySMn/7xTCvCgwavb37zG3aDe7973y+66EJ/OMJTjyX4iiveY0aGt7vVkgd3+gxijWfAI/rYM+UPIp6E9+yzNvruxz/+v907jKEgXyL8kZFwOa4HH3zIH/ry5StmGecqnq9CtiOki5BChDXtYG+JmxznMV+iPSAkCDFm9H1GzEZcIl4R99njK3DMn//851zcMk0KfWQPPXSeDxRIPjxQCH1uoszzTR/nmNg/Hk2MAslUcXFN8k4/dB4U86WkDab9IYFBXrITDxaE1r3//YMHLuJBDLGO2MLo8QHrl/ymN13kIdG53uJc/jwwYZxCRGNUwljy7LPP5H0oWL9+vQm1j2a6gvz+9096mP5wD5/ZdaddExmQ74GS4yLRTQfu+RL9P/HkRCGPQYWH8LNtVOlcAZ5v++GWffvb11sZZ7nRKzcP9eXYPv3pzwx64Iz5GGeBa8Ott/7Sfn/vjouHfY8Pw8NmyLMiac/JgzvXDh42sxM8eTEbQSyfNsm4CwhPEl6i44471q4d7/PvPPBxDUCgR48e3O2nY9eDVv9NMI0VCTHEwGFcD0k81PMQt3r1qkwYKp7oL33pK3bde9RDUD/72c96tBX5EVW33PILvxbh6cTg8ld/9VfeFYj18Xfw0Y9+xK+7LIspaQtck+OS5J0ohI997ON+rc5ek/0bzF6e7zPn7Y477vDjwpiHxycKhh/84Afe/s8773z7Hb3JZ9iI1wbEB5EudMUgNDu2XUKK8dyPH58/8ipfHXKXwYJjYIpSPF5RyOLVvv/+B9wriMGNa39MRIqceuopPgjpNdd83e8BV199td/j8IQjbmnDc+bM9bmS589fYA/c8/0+gcdx2rTEk884B1zv8SKvXbvO7ykjidC4fwboo8sW9zDqm+/BmOsLL9pOFIFx+9x3jEhcKxhkNNfDnZsX7zn3MAyXnB8M1PEewf2T+x/eO8ZhQRRxPY+JqfCuvvqDbiRHiPI8AieibmjzMWE4zdd1hwgM7k1c57mHcG8uNmFU4LdIlNb69es8koB65ktct+Pvm3bLQHe0W9os9Z5t4pL+7O985yXOmLz8Zul299WvfmVIkYRQc50g0d7/5m/+dpA45LdHVwGiIj6VZXShvRC9QX3e/e4rvCsfUQf8TgpJPIedeeZZdu/8P258ue66gXENLrzwAjMq/5t3j8SRQfRd/E0WUnY5eei+QtvlHkSdRkq0TerH8xSzmZxwwtJMdsTvz352s92P/8MH0MTxgnd+uPtaZsM8HzAM5RqHsrMRQbV69St2DnbY+2rvDpi9vpjPiHeuYfkSjiEithYtOsYHeMSIwLMNzwIYabn/lGO8zL7Hsf/YLvPVBSMQRmS0AvcSnHzFJowtXOt4dlYSgVFDwH4oJScbEC69dOkJad4rkexhJf36178hbSJqSHE2gE/aHmTS//IvX0ibqB2y3m6aaXsYyPvKzWw/1rRZ3XIX+3e7UKTtISBtXqK0XaTSv/vd79LmqU3bxSHzsgeBtN0IPb+F6qXNypq3rOEWmrjyerKv7GQ3wPR///eNafOspM1LnjavU/bqtFm40+ZdGLQs+4sZITJf7WEv/cADD2a+5/tgN/u0jVuQb1XaZhVIW5/6vOtYCBfzaNjr/6TNwJI2A8OweQtZYdbctD3kp6+//vpCsmfy2EU383lvH6zfU9oe0DLnLju/eRky7Yr2ZYafgo+JdkfbjIm2aGIgbV1LvC3F5fGddj5cok3QDnITfE2QDdtuc/Pn+56v3Ox89gCaNs9l9qJBn0eqN23aHrTS9rDj7dSEbto8YoO2319fqMuVV16Vtn6IZe2S+nNu8yXzBqXtIT3fqswye4DKfN7bB3uAdW57y5e93owE6Q9/+K+yF1XsM9dbEzppi0rIvMxwl/mN5NsR11Uz9qRtPIu0GRYyWUzMpc2Dnfme7wOczVM6aBXXoC996cuDlhXyxQyyaROphWTNm4fz9uUvf8WPhet+duK8m4Ene9GQz9wTspN5/NOnnHJqeqTfT3b+4T6bFzJtRhS73z6fyWLzcqfNqJf5PtwH7qk//enPfDX3Lu5Zw7Xt3DJo5/Awg7ld036Q5vdVaOJ6Zp7rtInptInwQjcbks8ixtIWdVPwb5q2aCJ0UDscUqgtIM9wqZh7S3YZZjxI29gZfq1etWpV9qqCP5sRzZ91uJ5av/4095R8ieVmCElzvyfxzu/NRqwf9PzA/fWuu+72+zq/KxP8aTPKDCmSe8Q3v/nNtAnBIesKXUA7Z/tS27sZQdK06+xEWdZHPn3qqaelzXhfctnZZRbzefny5emTTz4lbV07RtyM35V11RwxDyt//etfp7ku7Ktk3Q/S3M/NoZA2I+K+2o1fC6ybVN7y77zzLr9m0PZKTfwGbUDPdGtrW9qiENNmIEoPVx6/ORt42X8vuc/Ohe6f6xz729uzUqHlKZ8I7A8CVeykHKsDg5SsWbPWvX7llMO2zElKHyMs71jylAYIcJpKsdwOlKBPIjA8gddS+8LTRkg+oz+XE1I4PC2tEYHCCXzSQvCJoIoe7sK3fG3kxPtLtADdt/A0E8FEuG0hiQg0pvvEu8l4JB/72McykQ6FbK88IiACIiACIvBaJlC2kAfOJZdc6n3HcsPhiwH3pI2YTf+zL37xix6WWMy2yisCIiACIiACIvDqJfCd73zHBzkkRJ3pTxntO58BMS6jixMh8RYBYCHIHw6XXnrpq/fgVDMREAEREAEROAAEKiLkGXiLPncf+chHvE9pKcfBoCD0lWPKMSUREAEREAEREIHXFgEGnmNcFqJmGIyOsWnmzp2bmfWBQTItlN/HFqFvOiPfI+ArOVjWa4uojkYEREAEROAPmUBFhDwAsaJzA2bAsGKT9UH3aSQYYEdJBERABERABETgtUuAWQfuvfdenzmGgdkYLJOuY4zkzejyDI7HYKBD519/7TLRkYmACIiACIhAsQQqJuSL3bHyi4AIiIAIiIAIiIAIiIAIiIAIiIAIFE+guvhNtIUIiIAIiIAIiIAIiIAIiIAIiIAIiMCBIiAhf6DIa78iIAIiIAIiIAIiIAIiIAIiIAIiUAIBCfkSoGkTERABERABERABERABERABERABEThQBCTkDxR57VcEREAEREAEREAEREAEREAEREAESiAgIV8CNG0iAiIgAiIgAiIgAiIgAiIgAiIgAgeKgIT8gSKv/YqACIiACIjAa5DAhg0bfDo5ppTbV6+urq7XIDkdkgiIgAiIgAgUTqC28KzKKQIiIAIiIAIiIAIjE5g6dWp44oknQnX1vvEV9Pb2hvr6+pErobUiIAIiIAIi8BonoHnkX+MnWIcnAiIgAiIgAiIgAiIgAiIgAiLw2iJQlkc+nU6Hnp6e0NfX5+FzoCGMjsQyXqRMaF2oCmlfx9+0W+uT/OmQSvVa/t5AmTU1NaG2tjZTlpdh29oC/to7//u/9y9gu95UKvSYpT6WjTeAV5LF/rLb/hSXsZ3/67O/tr66usr2XTNo33GbUt77eim3z/fB/r0K7KjKP/mxJAvto1Wqz9b5KvuSTld5feJxsH/qm50nYZvUjBL9uOwDu+DcpOBhXziuqsiDHbEfeNpy345t+Gf7rEoqkBRKmeTjm/1Jzldm1T79wDH4+eFDUsukLtSfCrG4P7EoN/lmtnC4dfmW55ah7yIgAiIgAiIgAiIgAiIgAiLwaiNQlpBHKK5evTq0tra6+CbUDQFO2Ft7e3vo7Ox0MV9bWxcaG5tCbU1t6DHB3t3V7aK9qakp1NXV27LusGvXzrBnzy4XbmNaxoQpU6eEhoZGF2GIOZPkocbKqa6u6Rfbdb7P6hoT6lXVXt7mrVvCtu3bXZA2NDaGMWPGhObmJs/nAtTsClW87Cy4wO/fjvp2dHSGXjMkNDc3h+nTp1h9G8o6V9S5p6c3tO7uCt09HVZ2lxkaTITbvtLpVEhXpVxEZ4Sx5UdUUxeEenWVnZq+2lBX3xhaWppDU1OD17u7u8fKTVndqpxHXV2NHV9SVdu0/9hC6O5Oh40bNjkP9tnQ0BBaxlBOo/Mw24Kxr7Hy67wsjA3kw/RCneCDUOYzho3q6nSotfz19Q1DjCzJ3ov7i5EnZYYXOA1Nxskq0mtGkO7u7v581KU61FldautqjU+1b+t1teMfKsqrQqonMTDBx7Jb/oE9pexc1NRwnIOXW848Zdl2ti2GjtyUOX+2gs8YoZK2lceykLuxvouACIiACIiACIiACIiACIhACQRKFvIIsa1bt4Zvf/vb4bnnnnMBw/4RMYhRRBpCH6FWYwIegY8IT2cJuNq6RIyTH9Hf1dVpJaRDg4nFZhOvbIdAowxEHGW7f90WViOY7B3xa98sT19obW8L7R3ttoGJTxN79Q31JvzYb1Y/PdNi/o1tfbvEY57q7TNhWxfmzZsX/uRPrgpz584pAefAJhs2bA733fNQeOTRh8P27ZtNnKecS9o9/ybm7Z9VAd2YSQjBPqsHcjERqgjDOq9XfX1yqmDVa3lIVSb2oxilIMS5L7cDxGiwZ0+rGSja+40pxsNEe3IeEh546RGebNvHxsY5qdcALxg7a1s0bfrUsHTpknDO2eeGSZMmJzsr8e+zzzwfbrrpprBl62ZrK91eSjqNQSYR94huXkRZ0NZgQqoxww3tCFZJu7DzaAx5DU52TFgD7NjsMHnLJMrts/PgUQpZy5MMVr5xTQxEyRLK6eu1ermZI1OMf/A2Sbu017x588Kpp54aFi9ebMaXlsEZ9U0EREAEREAEREAEREAEREAEKkSgZCGPUN+xY0e4++67w6OPPhpmzJgRFi5c6F5wRFb0tiKCYvg94snkmYseF2PdeOwTiYZgrDchbfLWvNfpsHt3a3KIqC7fCmHHtog5Mwj0L08yJX9T5lFHCPYi/Fyt2bZWLvVJBL+ptj4EYH+B9taXtuiBtvawavWq0NbWZiLs+PCOd7wtlCvkN27cFG795e3hl7fdZNEJu53PzJkH+bEjKhGXGCeiwqSOyWfeEwFqHyzhncbYkAjPxChBHpIJTKs/Hnz743n8uCnb/g3kjfnZJ9tlf4cPyxMPN9vHuvCOR3zz5i1hzZpXwrRpkz264MQTTy5byC9fsSJcf/13w5q1q8LBB08Ls+fMCY0NzW7s8KgEOx7qnwh3oi6oM6/kOBMmyXn282nLY3Lh3d8GKAPjBQnhTl6OMW4ftxl4N49/tRlPzOjBvr09WltP9SZRJN5Nor8MyqOdb9u2Laxbty4cfvjhHtHB70BCfoCoPomACIiACIiACIiACIiACFSWQMlCHjGE4EJgTZs2LZx77rnh6quvDvPmzXOh3dHR4QIeIRjDwWMfeIQVIdqI+V7zdCK8CLsnBB+xlggxBJt99T8uZ+1jKvG0Wwg/++flyfQdn7q62kNHd4eJTeu3jwfV9DACHo9yDf3ezeMbek3M2Svqvp6e7rB27dpw7XXfCg899KDXKSm0vL/tFh2wYeM6P7758+eFCy+8IJx//kXexSBt8f1WLTtewuURp1ZP45h4x7P3C4vEAw8ThCWMYr6+vm4r30LPzXiBJ59xBoh4oEjyuLEkJB73pNRE3CPaXRf7fhHLhOcnXSI4p8m2SZeFXTt3hwceeDh8/wc3mEFil0dLJAaC7HoW/5m6dnSmfF/nnXduuPRdl4SpU6bbOcV4QPSCtQlvJ0lEAnVKDB+I8F5vW5RBPsR1PKF8RlzT7mBGd49G62aRHCMe/2Q8BrZL2hnbwt9KsEaEOIcbXRGI5kDI05WBfWafCz7T5YBuJY888kj4wQ9+YNEPHWaA2mV1YpwGJREQAREQAREQAREQAREQARHYNwRKFvJUJwppPJBnn322e+QnTpzoojSKJN6j6M7obhNNA97ixDvKdxe1LqhMUSX/s46aBSarXGjhPfYaZK3HKd3fz9veM6utPERyFMyuclnpGZJtFh6+INzx69u8LIRc4v0dVHTRXxJB2enHvnDhgvCGM14flixZkgh5l4fUC4/8QBpuv5EzOf1Y+lW4c8V7bzAi40xpftww9a0yi/347VsU8gPfk5ycryj0ydPV1RPGT5gQHnzovvDs80+GagwiWaWV+hGxXGOebwT2gsMODyefdLoLd87rwPEiqjkf0fAQ90ybSdrV4P0nxh+2R7ATsUC7Yl+keMxxH7xnGgIf+xOMvT3a+0De/gZj526gfsGNBky1dN999/l4EdRLSQREQAREQAREQAREQAREQAT2JYGShTxiJ/GSVoVxY8eYV36KDaTW5AKICice0ERA7csDqETZ9B2n7h42bZ7WfOKu+P0gQOvsVRUmTpoQDp41I4wdO849xMWXdeC2qLfB9mbPnmXn2Pp8E77vArr8+tTg9W6s9/bS0jzGumSMLb/QA1TCIYcc4l1KLNzDalCp9nOADka7FQEREAEREAEREAEREAEReNUTGOwSLqK6eCyjkO8hfN7Cij2su4gyXi1Zo4fVvei9yXR65datqtoGoqttNDewjQxfWx0afXT46NUtt/T9tz0+8FrC2u18421O2Uj8iSe7vDoQlt5o4etx9PnySjtwW9N20jbuAhEe9skqIiF/4M6G9iwCIiACIiACIiACIiACfxgEShby4EHIk9qtn/BOm/aN6dtGc0KU9ZqQr4RHHoFaW4vHOQnVN8e8e+dHI58o3Dm/9D3H4FFuYlR4IiHoKjGaE7MDtLYyxaB1SUDIV9lvYHQf0mg+Haq7CIiACIiACIiACIiACPxBEChZyBMyHlNPqsf6UncN6jsc142mdzzODL4XhWs5dY8DpiHoGZG/xjzalTAQlFOnUrbNjiFgNgAGB6yIkDceTBGYO05AKXU8kNukrL0wIGB3VzKF3mg8xweSn/YtAiIgAiIgAiIgAiIgAiJQPIGShXz2rtpa28KOnTs89Dp7+Wj7jIDvMkFWiQHL8MTXmtcZg0dXZ6dNbddeEQPBgWCapm88it7H1ePzgBGn1PrU2VSDY8eMsaiO0WngyBy3cUmmsiOwnn+W/E8mhz6IgAiIgAiIgAiIgAiIgAiIQEUJlCXkEam8du3eHbZs2RJ6bTqw0Z6Y+qwSQj5yQADvbt3Tb+gYhXwQqn4w9iHq9/geD7KEd/rHT5w0KTNSfQlFvCo2oXvJmLHNNu88U9Uh6pkxgU9KIiACIiACIiACIiACIiACIrBvCJQl5BnwjtTR2RFad7dWVADvm8Pdv6X6DGgm6trb2iz8eueo5OOSlD/mhTebTX+f9vKFar0J+QnjxruQ379npbJ7q62rCZMmj7FpBeuMkSR8ZemqNBEQAREQAREQAREQAREQgXwEyhLyscDeVCr0pKzvtDyREYnN1DYw13mvKXrmuB+NCed7EnnhOtVGaC9fxMPBxw5gNPzRCCWrzhg36B7gff37DR5Zq/VRBERABERABERABERABERABCpOoGQhH8PqqVGq10Yz77HR3r0jdcXrODoLxDvbL96Zaq3ORrAfrSkjtu14fKq+Smh5K9RHrEcJv0aS6/jXyLHoMERABERABERABERABERABF69BMoS8oTWI+h7rG98Z4/1La+EwHv1siquZllCtbGhKTQ3NSde2+JKeVXkjgIVO02fGW0qkXwwwFqa32tMyPdiwKkEIZUhAiIgAiIgAiIgAiIgAiIgAvkJ1OZfvPelCPjaWqYPqzKPfCp0W2i9ueT3vuEIOfD2xoHm4hz1udmz87CO/buXOCsjy+Ira/F+/YgXvrmp0cKuq/x97NgxPqd8sZUgRD/NAGr96jAeVxyfYLjyyB9fMQ/f2X44tjHfoHfT2b0+Wj2COymz3PNM+bUm4puaGpzPoP2V+YVjpA3x6jWjA8ca22l20T4oXT9TjAmGpfw20z+qf1V5P4PsauqzCIiACIiACIiACIiACIiACAwhULKQp6QoKl08mdrL6KIhuylsQXd3d9i0aZPPST9nzpxQXz80HL29vT1s27bNC4wRAVGw8k5CuE2ePDk02IBqByrV19WHcePG2hR0tSaE0y4qS7Fz7NnVGrbv2B46OjpCyqIeWlrG2OBqk8LEieOGPTREKpzabJA9mMIJUbtnzx4Tz01h9uzZzmjYAnJWgDWe20TO52Qo4WuNcWlqrPe6lbD5sJu0t3eETRs3h1fWrgkvvvB8OOKIheHkk0+2ttTg7ZUN6fKwa9fOsGPHtpCyaJLGxpYwZszYgLGlzua2Lz3R/qTiS+enLUVABERABERABERABERABAohUI5qKaT8gvJs2LAhPPTQQz6FHZ8R4e9973sHCXnE6Y4dO8ITTzzheVM2wF62kGdHCHmMC+PGjQtvf/vbw9y5cwva/77IhCBknnQ8811dXSasO3wAvEL31W7C/Zmnnw2///2TYfXq1aGzs92EfG9oNiE/c+aMsHDhgvC6173OWE0aVCSCf9WqVeHBBx8MGzduNKGa8vXwQ8gfccQR4T3veU9RQp7JCfonKLCyKidUzQ8+qO7lfMFoQRtatuylsG7dBjv2TaG1dZcJ9JZBxcLmiSd+b0xX2bgOnTboHt54IktqrL3MCcccc3SYP39+cVEL/XuAjM8pX0FGgyqvLyIgAiIgAiIgAiIgAiIgAiJgBCoi5BHUhDCbJio6IX5eWPZi+MIXvxCWvbDMvchnnHFGeMc73hEmTJiQKQ+P8jPPPBN+9KMfhZ///OfmPR0bmpubfb+IVIQcQh/RPNcEPF5Y3g9Ugkejeb+rjE1XV2doNyEeIwb2VifE99pX1obvfPu74f4H7gu79+wwT3yLldMddto0dhgrjj32uPC3f/t/wmmnnWYe5cZMkevXrw+33XZbuPbaa038d/p28OEVUxT38fve3hHxtkuvP0K1EqHjdBdgbAUrdG+7H3F9NFD8/ve/D1/4whfCyy+/ZJEYjd52lixZEg466CD3xlMIx/3AAw+Fr371K2HDhnXhqKOODFOnTQtbNm8NL7zwguU9OFxyyTvDn/zJn5gBYMyI+81dCZ9eO57urp5yDym3aH0XAREQAREQAREQAREQAREQgUEEKiLka+vqPIwdgVlMQtju2LUrdJj4nn3InLD8peUeCo4AzRW9iLDf/e53LuYRZ3iVFy9eHMaPH+8i/pFHHgk33nijCbmXw4IFC1zAFlOXSuetMU98Y2ODT7PGGAKIvEK92Zs2bQkPPPhwePjRB8MEC6F/+zveGpYuXRpWrlgTbrr5J+Ztv984PO2CneNnXWS/bNmycPfddzuXK664IpxwwgnOFG88hpFDDz3UDSCFHi+n1GwSiZDv7yKQe24KLSs7n/W2t3Ns3THK8F5Tj927d4df/epX4ZprrvFzf8YZrw9//MdvDUceebQd78QwadIkZ0MI/fr1m8Kzzz7n3vgFCw4N73//VWbwOSUsX74ifOlLXw6PP/54eOyxR8Lb3vZWb8911q6LSbTbHbt2ZKIgitlWeUVABERABERABERABERABESgUAIVEfI23JwLvUJ3GvMhPhG7Rx95VLj8ssvCiy++GLZu3RpXD3rH60/I/YUXXmjhz8cEvK0zZsxwbzT9wfHMPvDAA943/K1vfauvG1TA/v6Co7nf2dxn4we4kC/Q+fzSSy9Z1MEt1r++Llx0wYXh7Re/3Y5neli0aFdobesImzdvD2vXrgiPPvpYOP74pfY6PiPkN2/ebMJ0eTjuuOPCKaecEk499dSMcQTPPX3kiRYoJiHmeSXi2/8Ws3nevB7F4YMlljxxggvmm266KXz729/27gSXX35ZeNObLvJohSlTpth+BwxLREXcc8+94eGHH/G+8O9612UezTBr1iFm9JgQLrvscuO6yboyPBV++tOfhksvfZcxn5m37sMtJBpk9649yXgIw2XSchEQAREQAREQAREQAREQAREok0BFhDye0d6s0O1i6tTc2BTmHHJIqDfv58T+UProXc4uB/GJeMfDfNRRR2WvcuFESDmh9Qg4xCue2AOZnIl1B+C9z6YkQ8gX7n2ussHsJobjFx8bLrjoIusPv9APZdy48eH0019vnufV4Wc/W2NGj202aNtuX0fEwsqVK8NTTz3lYw1s3749PP/88+6FnzlzpnMpVsDn51egNSL/xpmlCHkGJcwW25mVBXxANBN9ccstt5hB41ET78eGiy++OJx44kl5DRV0S8DQ89RTT1pUwpzwhjeckRHqhNG/4Q2vN+PJzd5t47bbfhXOPff8zPoCquNZenp6krEQLHJBSQREQAREQAREQAREQAREQAT2FYGKCPle8zj3IVTL0C/Z85PnE5yIviOPPDIvB8LG6Tf/5JNPuheaEPJiw6ItgDxv2aUudAHvxg0T8m7oMDjpAQ/xSOUec/RR4SN/9aFw8KyZ5i0eGJ2eMg+ZNSscaSOx/+pXDS7S42BuCNtbb7013Hef9am3cPP7778/vPLKK+GRRx4N55zzRjOCLA4M5sbYAqUlpvmr6h+wr7DjGGk/GGvofoCnv6en24wdDF7YH8M/0ob967Zu3e4inq4EjJUwffp0G7wu5YPcETtAP3nY0Q6I1ujs7DAeK83Ys9X2M8+7XiSGBGY5qLG8YzPRHStXrvKBAQuoxqAsnO5UqrzuAoMK1BcREAEREAEREAEREAEREAERyEOgIkK+x0ZT72jv8vnO8+yj6EWEgOfzykfhlVsgntB169bZKOWtPtI93t7iUxlWiHw7Q7ej7Ez89poAT9mr0D1MmDg+tNho6w0NQ6dn27R5bVi1+iXbY5WNQH+4TSV3SIYVohV2vBD2a9euNeF6m4n5R8LUqTPCX5lx4GIL0y8tMRVgrYniJMqgtDIGtqqtrwvN5glnMMAtG18J69e8HGYessC86Xtvkl1dvdbPfUP4xS9u8W4EDIT41JNPWT/5r3vf9trq2nD44UeGd15ysY1AP9cH/YNFW1trpgK57Ys2E5fR1532xMCC2QMuZjYe5gMj39dU2TR3oZT2N0yhWiwCIiACIiACIiACIiACIiACOQT2rppyNhjua597Igc8tYgrpkJjLvdivONRUEVRNdz+4nJCyvFAI77oF37OOee4kI3rD9i7oaiq5g814I9/KKg6GCyGM1o8+eQT1tf7LvOO91r0wcmZKIX6+noLuz/dBPvUsGnTJvNy95hho80Gb3vcvPe3m+BdGX74wynWR77ePfSI/WJSpn+8GSTweFciJXzSod2miduze0eYboaPQrrv79y5O7xsA9StWbPWz/ucOYeEs88+Kyw84mg/zqdN1BOdsczGGrjiistsMMAlYdu2bW7cGKneNWYA4DwxMB4MMQwVI+Rtkj4zBliUwUg70ToREAEREAEREAEREAEREAERKJNAxYR8bj0IA2e09rp0cSN/sx2vQhNeUwaHw2jAtHUMhlesSC10X8XkwxBRg5fXNoqvYrbPzUt4+C4b4f+5556z413m/eaPPvroMM2mTyNhLMGQwSum3bv3hNtvv9MEaafNnf6oGQDusRD0ad7PvlBGdPfu7LGQcTuX9tf7+Rd+dmJNhr5TBl0OsAlwbEnXisJK3r59W1j+8go3VjQ21ofjlxwXrnz/+8LcOYeFZ5973rziVdbV4hfh+9//nhk2JodZsw5yYw9Gn+GTnS8bXLDa5pTHCMUYAwyiWHySjC+embYQAREQAREQAREQAREQAREohsA+E/L0cx83dlwmXLnQShUj4ilz48aN4d5773Xv6ezZs33qudJC6wutYWH5XMjjXjZR6XrVjROFCdV8eyDigLnSCRFntP7Xv/71ex3Qj0Hc3vjGs0NL85jwv//6ozZX+rM2EN5WF8759pFvmQ1/EHa2pUNXD/PQVyasnv1wjuos8gBOfK6uwehRmAgmAgMOCPO5c2aFpccvCccuOt7nfp85c4Ydb0vYtGFruP+Be8xD/5JPW4ihZ29ti7OT9vPV5957ohoKTR5JYvVPDFGFbqV8IiACIiACIiACIiACIiACIlA8gYp15k2b65Zp6GKKAo33YhMe2r2Jrlgm060xvzxCaty4cT5ieSn7JCy6kqnGBm5rsHD3Gguv7zHB2WUDsWXhKXpXRB5cd911Nn/8Mz5t2lVXXWX942ePWE617ZtB3OYvmGuC91CrT7ML1ELZUni/0zyzHz+bA6c5s7zYD9VV1X6uqq19NLe0mAgfW7DRp9sEdlt7G7ULM2dOD7MOOdiiMBq8OwKRCQvmzw8XWGTG5CmTvQ/9M8885xELw3VXSOpuESSpHhvXoNvbEiH1TNVXSKK9NTSMscH7GkOnjY7PcHdKIiACIiACIiACIiACIiACIrCvCFTMI9/rg6CVX81oANhbSYhR+j0z9zxTzx1iU9gxcnnJyXV88UaH4faHYaG+rt7EabWLYbRdgYPWDymSgdcYlZ9jZfq997znPT7dGuMP7C1Rj+bmxjB58hTvcoCRpJhkjvLQYt3p62pg0z+qfAUw0V7weBNen5xzZg0orOC62joT2cmAiJSRyvGcT5w0MSxevDiMN8POhk0bbMC/7eGggw7aqzDv60tC7xH8jDVQ+Aj/CPnmUFtTH3q6uys26GMx50l5RUAEREAEREAEREAEREAE/nAIVE7I2+BrZbmc+5kjPAnL35tXnX7MeKd/85vfuCA85ZRTPKy+1FO3t/0VWy7HUWveYYQ8ZTOwW2EydWBPGCu2brUQcZtKjqnl6BN/2WWXhfPOOy+TiZB7QsyZgo195kt41RHw1cYVkVrMsVLkmMYq82jXmEGi3yiRbydFLmO6wk4bWZ96MbhcD97wAj3ZEydODPPmzQ91FvGwfsNGG2F+46DuAoz2P8W88XjniRThO0J++vQZ3raoKqPvD02JJ72lZYznHTt2zNAseZbAs8FG4afdej98gCuJgAiIgAiIgAiIgAiIgAiIwD4ikF/5lbAz/LyVkC8ugAsQmwjAJ554wqdWa7Cw6vPPPz8cddRRJdQ82cRFsInuSiXC2hGSiDw+1+DaLiJhqNixY4cL+J/85Cfe1eB973tfOPXUUz08noHYCLdfuXJlWLbspcyy1ra20N1tojiKSTspHR2dJng3+N4RwcUIeYwPycv+Wpk+KF0su4jjyc1K+DllId577Vz2mpgvNBFKf/IpJ5nHfJyJ+PVhxaqVPjBdjDbAMNBhofd8n2Te+RkzZpo3vjkcc/TiMP/QhTaYXcoGDtxuzDp9l7BCgJOffLNmzfZxCBobCwutp5DaulrvRkF0gA/iV+jBKJ8IiIAIiIAIiIAIiIAIiIAIFEmgAh754gTqcPWL3uTetHlo8ZaaAB4pIbpWr14dVqxYYX2kZ/lAZyP3gR6ptER015qHd2/7HamU7HUcD6H1iPj4r9DQccph1PRvfOMb4ZZbbnHBTkg9hoENJsi3bNmSGeRv9+7WsGTJ8S4877/vARudfU9YesLx5r0/0qf+azNhv+aVNWHb1o1h7tzZPqo95RSTophHAKe62isSOg6TGpuqzYa5C40WJt80pqVgA0NLc32YddBU6wt/aFi/7hVrA6vCww8/ZLMWnGnjJIw3kb4zPPX0U2H3nt1hzpzZNqf84bZ8bLjoTReEVateDnfdfWe48cabQ0vL+HDEEUd4RMcrr7zihhNmATjxxBPCxIkTCkZEU+U8W8u1sRCMj7VhJREQAREQAREQAREQAREQARHYVwQqIOTLEy172lrDyy8vD3feeaePRE7I9cpVq8KNP7kxHHX0UeGw+QvCIbMOGSLy8Ojutnm+CVk/1AY3a7LQ8pKT2wwwSFTGKEE9PKQeEe9lRylcWA1fXv5yuOmmm8MPf/Sj8MLzz3vfdvpr33DDDS7O8dQzPsDvfvdEWLJ4aZhxwQwT99vCHXf8Ojz//HPh0cceCYceeqh5rMf4aP6vrH7FBe3JNu/8G97whsCc88UnI24DwfX2dLtnvvjtB2+BgOcfKdWT9JfH419omjFjSrjkkneaJ77NxPmq8L3vfd9H5J858yCbX35N+PWv73JuGECOPXaRifYWN26cd/55YcPG9eGuu+629U3eXYHIhqefftqNJIsXHxfOPfec4uaPp9pmWOrrNW+89bPPREMUejDKJwIiIAIiIAIiIAIiIAIiIAJFEKiAkC9ibzlZETy7WveE3z71+/CjG/879Nr32XPmWJh1Kvz8ll+EVWteCRddcEE4+OBZPjd43BzdxIvp1Y4+ZlE4z/JMmjQpri7+3Qs0gwSTpvO5AskCx12XllLccosyuO32X3mo94IFC7zvO571Bx980A0ahN3DburUKeGcc84KZ515Vnhl3ZrQ3dNpoeZrwqrVK92QgHeavvPTpk0Of/zHf2xT0b3RBX4xofUDKAh954UJpZSjGijJP1FEf38MDBNMizfz4MMYTq+gRBeBiy++2A0VN998sxuDurtvMU/6xLBnzx43Cp188knG5xyLRJjr3LBfnH76aR5S/73vfc+8+A/7lH5MZ0cExMEHHxwutNHuTzrpZOdWUEUsE4fi3QNMzCuJgAiIgAiIgAiIgAiIgAiIwL4mcECFPAdXbyOQzzKhfuH5F9hAbDXeR5mw9O5Ut03nZYPeVdsrhwLf62pqw7HHLbL+zAeHd73zEh9lPCdb4V+twGorLxkIrvDNRspJdHUiuEfKlX/dnNlzwqWXXhoaLDR/jHmS8aAj3OOr20ZGZ7R2+n4vPGxhmDh5fGi0cPP3vve95mE+yvrNr/J+8nin8UYvWXJcZhT20kR8Uk+2LWQgwvxHNXhpPJY+A7XZugowMv/Rx2IoKCxRl8bGRh/87+STTw7PPvusjxfAfPGEy19++eVh0aJFPshd9jHPnDkzXHTRRWH+/PnhhRdeSKJATIAj9o877jgfMLHQaecGampmGzsOhdQPENEnERABERABERABERABERCBfUfggAp5BNZ4CxlfcuyxYS5e9/5R1TncFGHKvekwwfoqZwuxiKLW8p579hstX2+YYdPOsW2pCcMAI5vzsp2VWsyg7fBaI1ZLcfEfMmuWRSJcGOps0D/6s8fxA9gBZTI+QByYDdGJAaSlpTm87nUnuMe91aIcMCLgjZ80abKP4J5dxqCKFvGF7gIYPPKdjyKK8ax0iajuHwCQkfcZkC/hVXhJ1IP53hnkkFHp8exj4GBavsmTJ4fx48e7cSa7RIw1U6ZM8VB7xDvee2+HlhdvfvEiPimd6fRor37Ks3eozyIgAiIgAiIgAiIgAiIgAiJQYQIHVMhzLA31DWH6lKn+KubYEKZzLAy/UglDQI2NPF4ZGd9fqxILoz83r2ISPBC1vPZV4nBKPKQhVaK+RBpUx5kCTAFXYfcoISHcp5sxh1chiX2XwnikshmBHzFfiuFmpHK1TgREQAREQAREQAREQAREQARyCVRudLfckkfdd5OoFfLGx0OPopfpyEr1zseyDuR7EldQ5X3BiQSohNu5xrpMxOn5Ek8/TTESO5BHW/y+8cL32fgKzqb4zbWFCIiACIiACIiACIiACIiACBRFoAJCfnSKryGUKnwY2cXRd7rU/vJD6rmfFyQinp3a9Gqm4ZlvvdgQ+HxVxmZSZZ5xQuyTgQFH70BxHAtefl5KIiACIiACIiACIiACIiACIrCvCZSpPJCrpfdN39cHV0z5Hlrv/eyzJXgxJeTmRalSFgI46dOem2M0fM+mwXGkUhXqB96PB282c8pXcuq//c+1yvvlE+JfifED9n/9tUcREAEREAEREAEREAEREIHRRKBMIY9WzZZ6o+nQs+pqx1BXX2v99evteAZ80Fk5iv6Ip9nnkrct8WD39uJxpuzRl2gkiO10usb6gZuQr8ghUEqv865hxgB7uZ6vSNn7t5Bqaz/jbNBGpkMctQexf5FpbyIgAiIgAiIgAiIgAiIgAmUQKEvIo+Fraioj68o4hrI3xRTBoHsNjQ1YJuxbZY4JgUdKupVTZvLdF46yP1VVjFZfZ0fA+IiVOI4+Ky8ZHI6+8u7Nrki5+x8sxqyxJuTHtoxJms/+r4L2KAIiIAIiIAIiIAIiIAIi8AdEoCwh/1rixOjpCO9KSFS4MPgZU+O5SYA5xlHzFTIQ7H/uNn+8DU7Hi4H7KnEcRCvQnQERXO9CnmiI/X9kFdmj1Zv+8fT5VxIBERABERABERABERABERCBfU2gLOVByHglBj7b1wdZSPl9iG3TqDYJmmUvC0v/7vrZwMiWeNmu6gupzastT3IsqVRP6OnudiNFuTVEwNfYPPK819bV2Hzvdf3REOWWvP+359xiuDFrzf7fufYoAiIgAiIgAiIgAiIgAiLwB0egEor1NQENQVlJlzB9vpsbG0O1iVVsA+6tHbUuZ4QqA/b1mke+cqc7GoGqq8zbX4MBZXQmak77SY/i8zs6yavWIiACIiACIiACIiACIvCHSaBsIe8C+DXArtbCu+vq6QNemUSf70mTp9hc6fUWsm9h+4SRV6boA1IKk8RxDHW1hMCX3Ww8kiOVsq4H5s6mXAa8G7V8rOJ1tbX+cqvNATlD2qkIiIAIiIAIiIAIiIAIiMAfCgFGLisrMT96sQmnbrZocycv8cl5UmmGAkLB8xQWF9nOc3vDI7ybbLC7PZ3tMVdZ7xgGGMW8pro21NQigAdP05fUL7uSEMn+nrV7h5UQS/5mrcv5OLTcnAyDvjKy/qAFGW7Zyymzz0aYJ7igsaHO+oPnbDS4iIK+cV7r6hhAz0Z8HzcuTJw4cRT3MedY6qyLQK1Nz1f876EgYMokAiIgAiIgAiIgAiIgAiIgAv0EyhbyMTy6ra09LF++3ESeCVfzsPb0dNsuTCia+CMsu9cHe0v2akHaoSpd5QOEIV09bDuV8oHUEI0+6Fy/WCQ0vd682vU2qjyDotXYgGLkb29vN9GUco9u/7G4KOQzfbmZ7i3WLa7HekB9CHNncDIGb6u2V0dHV9i0cXPYs6dt6DaZjYv7gNTl2Oghv3XLtrBi+cqwfv0Gm6bM6m3GD/j0+JR0Vh9Xzcl88y6RMzrZOFl98VjDJG1x7T7fvXl/SXyv8rB0jATp0N1DH3bjyCB77NyWgbGGP/1lwoR1vNdauRgcKBODTBI+T32YjSAZjI6+35u3bgs7d+60bXot316MJOy2wJSMRxDCtm3bnc2s2QtD3fh635ru5rt27bZzssfqlfapAesb6vvryLR11S6cm6z7Qr1NG1jdH5pP/bo6O0OX9eWnPz9975uamnxGAsaio1zWpXpSzp0y66yPfjkJVq2te0Lr7tbQ0FT2T6qcqmhbERABERABERABERABERCBPwACZasOBDFp69at4ee/uDUsOPR5E4G1obOr04US86kj4lO9PS4mXWC6yExG+mZbBGSPidDo3U9C0asTsWmitdHEWnNjs3mD6zOic/fu3aE7Z+C1pC4maG05ZSWitX9nth8EapUJPl4YHDzs3YR8Z2dXeOzxx0xwbw4Tx4+lSmUnjskNDfa+ft2G8PBDj4TJE6eGlpZxJri7Q4fx6fE6Wl1cyNus6vYdXg7KRDh+cKueHzMGB0a+9y4A5vllbdpEa+Lxt+8Gtqur215d7hVG5NvCgL6txZVu5aZ9QL8sIW8it9FEcI0J2V7zJPso+2xnqZZQcRP5GEQ22bldtXpVSFkf+faOTj9fnqnMPxhzEOnPPf9i+OVtd4TtO9vDpEnWHcHqxDnZunlb2Goiv8/q0NTc6IK8z4w3KeMAM0R4i035hlDHG84yjr+9oz20m2EJHoj8MWPHWL4WD33nnHR0dpjY77Y2UGVtqyk0Nze5IaD/NBR9VB0dHeHJp540g8fmMGvWzKK31wYiIAIiIAIiIAIiIAIiIAIiUFsswqMAAEAASURBVAyBsoQ8ntypU6eF6dOnu4fzFz//mYklG33cZCbiPQppxBoikuQy0f7ghfYQ7Sz1hIRN1idiMvFUs1USAp5ktVwmUJkGLRGmSTnkZT8MyOal2PeaxP3u3z2/1QmBTYpeblzeLoLNi1tr20wYP8HFsmcq4w/1qTeBTNg4ovjFF5eFteu/EWrN8EFdBiIGBji4+E4I2J6JZuC47dVfj8iU/uoJE1vj6xNyPjUcXNjWciBsYxkwiWzhxPo4XdqANz5hw3mlzgnTPjeM7Nmz20VzVb01GSu33FRrfe2bm8eF8eMmhFfWrA4/ufnWcMsv73KjBd52WPT2pty4Qb3duIMxgn9+7m1pgiFhlMWJxc6Cc81ye/n0cLacdWxvf2w5o+YPcGBtLNvzWN6BBMuEqW1hi+3lrGlzfR45kEp1uVEhGrcGttUnERABERABERABERABERABEagcgSoTLGibkhLez2effTZsMc+paa5MwuPc1tZm4cbt/o53taebsGzz+prn1z2h5kVtarKwaAubRzTWWh9ypiFDnOMd7utLWT48zYlnm+3w6ifzsSe76rV1eKpbmpvd47p9+46wbfs2F31jzAM7YcKE0GzvCK22tlaLGtgWdmzfhXJL1tl2iLka8+ZigGgyD+/kyRPDaae/LkyeMjFzPKV8SKX6wrat28Mdd9wZ1q5Z5wJ1/PjxVs9m8wZ3hV2720wg91qUAR7hZu9HTxSDh8WbSKQLwZixYz2k3PSrefFTYcfOHYFIBA8ZN295c2OL1x0bScpOAGwQkTXGs8G6IrSYp7m5uSHUNRhHhLEZOTrNYEE3CJg32rgAXd1dYd3adR7GTncFtp86bVo46KCDzZtdG3bv2hXWb1hrXDdZ3RvC4sWLwkUXvTlMmTK1FCyZbfCWb9ywMTz00KPGZ611b7Bp7dJ1Vk/rg2/dBRDVdD/A4IHBgfZBF4G+tIXM2/JO86q3trZ55AeGCW8/FgkS+6q71DaVzrl34w1i3gW4FW2f6VbA2AUcrwt/2w/ts6u70zz2Vq6NlcB2sRznZZEhtNm6ugZrlzVuvOq2/D09XbZtt5VXFQ6dPzd84ANXhZkz5ZnPnGx9EAEREAEREAEREAEREAERqCiBsoT8oJpEc4Apn5R1j+8wwYho7LBQbELdEeL0X+4zwYl4bjDRTNgzoeLeVxtRZSHg2BXI02vvNSa4KBaBhXcWkeue1v4dI+DYprGh0UKkG8Ju60+N0MUfjeAaO2ZsaDSDAV566kKf693Wjxkhj9AnrNqFfL8Hut4EfYMN5tbYRF2QcOUl6o2Ro72tw3ZpBgfbJwPqdVs/dsR0j4n9hvpG22eDRwh0myDkmOwgXfg3mRD3CAerCsYN+ou3t7d5yD7dFxrsuHl344cJUdjhffbB9YwrQr2x0YwkFiSBucaqY0K1x/uQI/YZcyBlXRo2b9kS2kwUd5khAZE7ceIkM2gw4n6tG0C2bdscdu3ZYeXVukAlCoNzV24iZH7HDjsndlxdnWakMSFvPm8/J5x4wuD7MNbY+aymfVRZ27DvtAUMEB3tHcayC83v7QAWCG76rNuBcChuwMi2VXmEg63w825l8h04tCvaV4+Nr9DV3WHiPHYhoDUl3RvqbVYDDCS1ZnxK91V7V4SUNfZe2ybV12Pt2CI6Jo4PCxce5p75cvloexEQAREQAREQAREQAREQARHIR6ByQj5P6YhHV1l51g1ehFTKTWwcl3tBuRkGfUeQZQu2ZGUi5vg8dN2gze1Lsi90XSXT4P32i8shXHJ3mhy7L81alZ8nGXL5JBsNdyxJOa7ZfdP+oPucw451Tcpmm1iei9+c3KV+zX9MhZUWjyM7d6xj9rJiPw9fp4H2FMscqEPCKRoK4nq9i4AIiIAIiIAIiIAIiIAIiEClCexTIV/pyqo8ERABERABERABERABERABERABEfhDJ0AMspIIiIAIiIAIiIAIiIAIiIAIiIAIiMAoISAhP0pOlKopAiIgAiIgAiIgAiIgAiIgAiIgAhCQkFc7EAEREAEREAEREAEREAEREAEREIFRREBCfhSdLFVVBERABERABERABERABERABERABCTk1QZEQAREQAREQAREQAREQAREQAREYBQRkJAfRSdLVRUBERABERABERABERABERABERABCXm1AREQAREQAREQAREQAREQAREQAREYRQQk5EfRyVJVRUAEREAEREAEREAEREAEREAEREBCXm1ABERABERABERABERABERABERABEYRAQn5UXSyVFUREAEREAEREAEREAEREAEREAERkJBXGxABERABERABERABERABERABERCBUURAQn4UnSxVVQREQAREQAREQAREQAREQAREQAQk5NUGREAEREAEREAEREAEREAEREAERGAUEZCQH0UnS1UVAREQAREQAREQAREQAREQAREQAQl5tQEREAEREAEREAEREAEREAEREAERGEUEJORH0clSVUVABERABERABERABERABERABERAQl5tQAREQAREQAREQAREQAREQAREQARGEQEJ+VF0slRVERABERABERABERABERABERABEZCQVxsQAREQAREQAREQAREQAREQAREQgVFEQEJ+FJ0sVVUEREAEREAEREAEREAEREAEREAEJOTVBkRABERABERABERABERABERABERgFBGQkB9FJ0tVFQEREAEREAEREAEREAEREAEREAEJebUBERABERABERABERABERABERABERhFBCTkR9HJUlVFQAREQAREQAREQAREQAREQAREQEJebUAEREAEREAEREAEREAEREAEREAERhEBCflRdLJUVREQAREQAREQAREQAREQAREQARGoLQdBOp0OqVQq9PX1DVsMeUhVVVVD8rAqLu7P5t/ZJl/+3GWx7OyCs/OwPjdPXB/f2TbmYVl1dXWoqanJu//s/eztM2X29vY6m1i+HS17802T400+762sYtZXsY8s1AP7LqaUmNdKs7JiGXCpra0tmw2lw4a2E8tO9thf9wROrMRe37PP5eDM8M2CMXjloG/Dl5FkG1zPZBnbUNXYhmk78FESAREQAREQAREQAREQAREQgX1JoCzVsWfPnvCDH/wgLFu2LFQjgk3o1ZiY6Uv3mUjrzYg1DgCBwwsxiPhJpXo8T7C8pL5+TYsoQiDV1NaE+rr6fmGUCOz6+rpQW10b+uwfgrizszv09HSb+K4JdXVJ2ZRfU2N16E2HVqvfbnulentcMLL/pqbm0NLS4vkRedSlrw/BnQ7Nzc1h3rx54eyzzwpTpkzxepX6Z+OmzeGhRx4Lzz77TGhvaw21NXUu+HqtXl1dHVb3jtBrDNL9xz/8fuzYq6qdSRSTZp7I2q7ajj/hg4iv6v/MsWFg6fVj67NvllwgO2D7CPC05bGcVcln/lpJxpwyMWZUe77eXiNuGZcuXRLe8Y53hAkTJrjBgyJLTU8//XT48Y9/HFpbW72dUA5CmP33pZO2M2AgomYkW2/HF6U5x11TU9tfF1seFbUfF3VO+3mus3ZE+0yZ8SAaV7y92v7q6upCQyPtjPOTsKRMXtAgf3d3t52vTm+vtonlC4G2GNsyLBsbG8Lxxy8NZ555Rn+b9QrrjwiIgAiIgAiIgAiIgAiIgAhUnEDJQh6hvmnjlvCTn9wUHnjg/lBnQrW5udEEToNVsjr0mADq6OgI3V3dphf7TPTU2br6UGcvhBjCqLvHhKwJRL6nozpL1KQLr9p6BFUi0BCW9fWNJojNEOBCFiFv5ZvIQgAiyBBj7AcR1mf7b21tc6GIYcEke6g1QdfU2OhCvtaEvws18wr3pLpMsKXCxImTwoknnhyOO+64soX8unUbws03/zzcd/89oXX3HttvU2hoaAwpE9Yd7Z32ajc2nW5wQBi6QLUPiUzth2FvCM6qKkQ1kOzI7R0NDjdP9sXFuh1vla2sqcOoUefHlnAiP3n6EtZWUA0GFRSppWRdyj74V99PYnBJBDJc9rTuNFGcCm996x+bUD0zjBkzxs9lskVxf6k74viZZ54J3/rWt8KOHTvdyFFb12DHmpyTVKrPzwnnkGPgPCHSYWGg7LsttYIQ+tXVaVtui+FjnKqr66z10UbYT58x55w3mZHJ2qS1t+7uLhPkXRRpeWtCU0NTaGpptjqYAcHOjUH0Njcg5FNmeOn2tkx5wcrGgNBQb+9m8KBdYYzh3F522aXhpJNe53wwCiiJgAiIgAiIgAiIgAiIgAiIwL4gULKQ7+zsChs2bA47d+1yATTePNizDpoVGs3jjQc0na4ObW1tLp5SPRZCbZ5ohHaDCScEWWd3p4tnFFeViUoXaXaEeFHdC9pjgqu3w3zvJjItJd7WGvuUCDnEHIYB24LVlhC7rOeQLI+9TW2aEA46qN722WB1IhIADytdAQjpTgRlt9WjtW1H2L17pxkGusP69ZtcuFFiOWnXzl3huWeeD9s2bw7jWsaEg6bNCOPNk21y2zzxdEmw47RXGnFoopIIBMRjwgFlyjEbF6uEfcwcJfrQvdYYQIxjb3dP6DCPf2t7mwv1WmPSYPxhSnl15jmuNqNFt+UjCsJFqJ2DRmPiHmUTrz2pbuOB9GWfyf74QBkd7a3hxZeeDtu2bXYRnO1B9w2K/MN+dhqbrVu3Ge8ur8OcOfPDjBmzzahRbefH2JiA9/NkAtkVudUFLtSdY6aN9Fib6upqt2OyNpI2Ye6ULJqgxtpfbYsLd/ZVa8cPD4w9tKseO9893R22D2sDtlWDGZ54sb8OK68n1Wb7gEfS7mwz87bXWhsaa7lpW7yoB+0uZfvvNkNHW9i8ZUtYs3qVRYHsCM32G6gxka8kAiIgAiIgAiIgAiIgAiIgAvuCAKqkpNRnAhTh22ee+SOOODK87W1vC+eee655I8e6aEIX4jFNm+gy36m9IxIRYya2TSwiYFmTJIRR/0fb0DYxIWXeWNtoIA/ryZTJGDfof4/LB/L4/hDDpsbwePveYn34Yq9284w/9+yL4Ts3XBeefOrJxGvdX2K5bzBAdF/89reH97//ylBr3mHr/Z8pNtGpXqtEwDuEgfUDn5JNyDnAibVGB14ufPFe93vwcVGzZ8ucePpNxLIzwNoqeMRw/VgGdc2k/h0jnNetXW+e8xvC//zP7X4+B8LdM7mL/MCOklB9PP/Tpx0crrrqynDhRRcmbcXPP3k4toGik+O24/E1ttbalrcv2pa1FT8w/nr0Ap7y5HxzDBwr4GCVpqsB7/CwPMn6ZJ1HLXhZrMuX2Hs/HD7Zx02btoRbbr0z3HLLTW4QQdzj1VcSAREQAREQAREQAREQAREQgX1FoGQh76oRQWQ1mzNnTjjttNOsD/UJ3ld4X1V2X5SLQWL2IbPDvffdZUL+9ybOKiPCEHmmU0OjhWDPO3ROOP7Epfui+vu8TPrDHzJrTmhqbnHhihGgnBSNOclYBjVh3PgJYcFhC8KiRUeWU+wB23bLlm1hxar14b77fm0GAqI9kvEYDliFtGMREAEREAEREAEREAEREIHXPIGSVRleTfpmo+QnTBgXpk2bYt7N0ceLvtPTZ04JY8e1WOWJAEj6SZd9JBZ6XVOdslBvc9AS8T9KE/3GiajAPU40BV50xHg5iYEJKYfEWxKmXk6JB25bvPyNDYT0E7qfsnEfOvu9/QeuTtqzCIiACIiACIiACIiACIjAa5tAydLb+xTbYHb0O0bXjUYRn3tqPZTfvKqIs/IT8tdGja9YeeXXqJQSCF+n/313f/96BtIr1yuPiEfMYwXCg+2DzJVSuVfBNoT1M4AeRi369nd2dZlnfrjQ/FdBhVUFERABERABERABERABERCBUU+gZCGPWGHEeN5d9pqYr4T8PTBEqTmiMhlorxJCHq91HIl+VJMxNH0MDOeD6yXjDZR7jjD8JE79tHuwe216wNGasPl4f3t7Z1T7HhtUkHEhlERABERABERABERABERABERgXxEoWcgTau1ToPFuXkkXYxXxZO+rQy2s3ModAsOtoVjZr/8prAKvwlyM9h9TuWH1lIPxJ766bQR5ojtGayI6gZkY6POfMhHf1mYeeQn50Xo6VW8REAEREAEREAEREAERGBUEShbyPr1Zf3/pnp7u0GXzwlfCk73fqeFR7WPU8ihW43slamJlZcqtRHkHpgw3SPQbI5LR3surR68JXcQu7YW2Q/eM0ZoYN6CxkenmakNXd8qEfLt75kfr8ajeIiACIiACIiACIiACIiACr34CJQv5GvNENjba/Nw2yFeH9ZXf07p7VHoiCYL2Mfv6vajJOPyVOnEm5M1IMKrFvAGyqHo7BvtvnnS85+UabKqqaq04exnzlPUp702NXo880RY11bU+xV2qpyd0tHc4p0q1IJUjAiIgAiIgAiIgAiIgAiIgArkEShby1TW1obmFkOJq88Z3hPbWVhMwo9Gzat5hqzfi1P95n3/kfXnJ+8jbHPIpU8HMTz5aEyTS6RpjU22CnmMxIW//Sk82d3tNY6iubfIi+npsXvdR7JGnr38SSl/lfFKpbm9LpfPRliIgAiIgAiIgAiIgAiIgAiIwMoFkDrCR8+RdW1NTFRrqG3xKsr6U9XnGq1qOvsu7l/20EKFN53j+m5CvRPIe8tVVLuKZqm/UJqt6b69JdyIWqhJjR7nn2RzYHoruvBHxoxhPpunYOeY8pyoQsTBq24oqLgIiIAIiIAIiIAIiIAIisF8IlO6Rt9B6piLD81xtgrW6quSi9suBjrgT86omXcD7BWuFhHcyMvuIe37Vr0Rj99lo7CDxqIVy2RhrC+LwlzOH/ShO2ecYTikzaJXb9WAU41DVRUAEREAEREAEREAEREAE9gOBktU3wr2uNplTHC92pTzZ++GYc3ZhvnMbsKzKjgfRmjiHK6UurZxspZez59HwFR98MsVgIuYZmI5lpSbImt3HumRkbCelFvWq266PueR7JORfdSdGFRIBERABERABERABERCB1xiBkoU8c6TX4pG3f102YFl7e5sLvtHGB51NP/+kT7sdTYWEN4MA1tWbocMjFUoXvgeap0XTW+9442MvjDXen71Mr7xp+FBHy7OyLWp/1Huwve1Yu/GOBxXqmnGgz7v2LwIiIAIiIAIiIAIiIAIi8OolUHIfefyp1dZP3vRd6Lb5sztswDvvR13Csba2todXXlkdWlvbQq0Nojd5yqQwa9bBPjd3IcUxav5TTz1l83k3hNmzZ4cJEyZYuH/hNgq0tuvtQnZWYJ4YseCGARe+iHn80eUnQrc55hdffDFs3rzZp29raWkJCxcuDNOnTy/q2PdWm2pznTc2Nlqfdota4JxXCBReeWbm6yVsv3/GgL3VJXc90QFr1qwJa9euDbt373aDwNSpU63tHBJmzBiZAwzXr18ftm/fae2mztsNx1lK8i4HJuOJ6vBXKYVoGxEQAREQAREQAREQAREQAREokEAZQr5/D3hVTVD12IB3SNVCEyOgd3d3m5DaHp599tlwzz33hY0bN7toPNwE6emnnxoOOvigMH78+NDUNLzAIhpg+fLl4Vvf+lZAxP3RH/1RWLJkiYv6QusS8yUeVf8bF5X8joBH9CYOfgbQY0R/fNHlifkem+Jsx44d4fnnnw+33HprWL1qlXu2MWK88dw3hhOWnhCmm4jFmFFrc5uXm5hmcNzYsaGhzqYazBoXodxyfXsT8Nar3LzyxQ0wSNtpa2sLq+zY77777vDQQw+ZoF9ro8b3hqOOOiqcddbZ4cwzz3CjRn19/aCqtre3h507d1m72+Hbwe+gg2aGSy69xNveoMwFfUl7/bHVwKfWupv0n/SCtlYmERABERABERABERABERABESiWQFlKL5l2i+m3bFoyH7W+cCmPiF+2bFm44YYbwq0mSDs7O32gMEYBZxC9737vu+Ftb3tbePOb3xSOOeaoYb3MiPgf/vCH4b777gtz5swJhx9+eFi0aFFJQt4tEYUfwois3Utr6g6BV6lEmZs2bQq33357uO6662zWgPpw2qmnhZkzZoaf/fzn4V+/8K9h/vz54S1vfkt469veGqZMmVL2rmvMIz92XEuoN681KQkjL7vYTAGl8EHE/+Y3vwmf//znw0svvWRtp8u6d3SbQSnlRp3nn3/BvPTrwrvffbl52g/J7IsPL774Urj5p7eEe81wtGbNcmNYF04/7fTwlre8eVC+Qr/4ebZGm7YXRo84AGSh2yufCIiACIiACIiACIiACIiACBRLoAwhj0LFk5q2vuD15s1ssvD0wrzNeJVXr14dvvnNb4b777/fPacXXnhRaGkZE377myfMO39PeObpp83ruieMHdtsXtYjhgh5jAcbN24MDzzwQPjFL34R1q1bF44//ngX84jPUlLs60wIeSUSIo+EwYPw8UpEpd9zz73h2muvCytWLA8f+tCHXLQ3NzeHKdOmhn//96+G++59yA0ihy6YH044YanxG1vWoeDVnzhxgnurOW+tJqIJh69E8tB6Q12srePll1/2c75mzfpw3nnnhxNPfJ11Neg0Ub8y/PrXv7JuFr83QV0bzj//3CFCvr6pKdTUNYZVr2wMa9esC1MmtpgRYE/J4zsQv5HqZe74PttnQ2huaR7SVivBSmWIgAiIgAiIgAiIgAiIgAiIQCRQtpBH8jY2NoQxY0zAFKhUCQ3/7W9/G+666y4X8VdeeaWHxI8ZMzY8cNQjJnqDeU1/bOHjz7nHNd+I+Ah5Qqp/9rOfeZg53+kff9hhh5URUo6kLFZWRpQ574DptwfgrWWQuJoqw92/LCf3Xr9yfLt3txq334VHHnnEuZ1yyilh0bGLfNvpM2YYj9+Gl19eGZ56+qnw+OOPuogtV8gzEOCYMU0ujOlCQSRFNFDstdIjZMDGAek+41Es8S1btvjYAOecc05473uvcINFKtVr7eAlX/7cc8+GlStX2gCM7UNqMNO6HRy3ZHE4dP6jYcf2jTZgY19obqqxtlviifE90K0kbWNGEFrPDAjllDWkylogAiIgAiIgAiIgAiIgAiIgAoMIFD4i3KDNsr6YZqkz8UKYd6Ee+V27dvkgZQcddFC47LLLwrve9S7vC48IOn7p4nDBhReYZ7PFd5JPEzFX94YNG8Idd9zhYh6xSkhzk3lb+VzMQHdZR+KecwRhJYRqpvIIVVOtffYqVrBm163HpjVb88q6sG3bdvf+Vlv0Q3Y9EdwnmWd6yZLjvJvCE0/81kTtpuwiSv5MhAP7g2u9ca6EULUAhZIT/f9PPPHE8Bd//kHrRnGMl0Pd5s6dFaZNm2bdKlpCo42rkK8dTJowPhxzxIJw3OJFYcLE8dZuakLLmBafuaCUCiHZq22ARpj0WtvptjEbss9LKWVqGxEQAREQAREQAREQAREQAREYiUDJHvko5vCsdnWnQruFNsc+8yPtkHWzZs0Kl19+eXjTm97UL7waMpuMHz8mTJs+yT2bmYX9IfzRnc1I7ddee62Fl68IJ510kpeHqMdjjOe61ITnnzIqI8QGprLz8sqoF8eD8WL9hvU2UNsOH82/qanBR5KPx8pgdxdceE5YsXJZePSxB8ILL7xgA7pti6tLfsc4U9/AQHcm5k3QJ5/L9zgTdeGWjRKKOvLII8MhhxwSJk2aHOqtjzsJPps3bQvbt22zOlbbWAHzQnNzk6/L/YPRh+4IdBuwIwotTWWEw5uAx9BRZYaEHqtDh431UE4bzK2rvouACIiACIiACIiACIiACIhALoGyhDyCCK9ne3tr2LXb+hkXKFbxnCPEeOUmBi1ra+vIlIUnOBHwieLbs2ePj3LPaOWLFy8OZ599tnmpt7lnnj7cjGJfqhD3cG/+VCDBgvrQNx6R2d3THWrqbRyBfCEGBeyP7RrqG0x81jkbPPTZvDkPEydNDFOmTg69Nnr7zt07LAy+q4CSR87COZ5qg+YhihlMDr695bjT+3dn1bVkI773mPGkyPKIusjuMtDT02uj968L37n+e97tYNq0KeGMM14fJk2elPfgCKOvM44wq7aO+onnvgSLgpXOVpTHO+e6r9faT2WaUN66a6EIiIAIiIAIiMD/Y+884C0pirfdLJuXZQlLlBwVJIgiQSUoIIqAGUygqJhzhr+KnznngAnFhKKCCVFEMKAklYzknARhBXaXZcN89dSljn3mzpx8757rvrW/s+eemU7zTk9Pv1XV1UJACAgBISAEenath/zE9mYPGvlmX/Ne9wPPb8Ntt9yerrziaiepm2yyYXqYbUG30kr/DV6HFR4ST9177bVX2meffdJ6663nrvUQ215JfN6GQfyNdZ918TjULzJC/YB5LPTTNq73YRus74HnKGfRosVpiSkKQrj2++83hYotW4BU+lptV4JEit6+J5vb+BxzR2eP9SVGmNldgDX//Yp1H8MDSzo49VYe/e0O27LwnHPOTT/96Unp+z/4XrryqsvMSj/ViX70z3JbsZ6jECGmg98TV970yr5HFAGUtbItDZlq2/R1usSk3C79FgJCQAgIASEgBISAEBACQkAIdIJAz0Q+CsdSTIw7t5z3ZtSMovz7iiuvSn+1YG4rmyv3U2yt/O677+4WUwgXgdYuvPBC32pu3333Tdtuu63ngbChWMDFGQtyf9IroWuuFbK4srULSBYuWJjwJOiHABOFfaONNjDFxnoWC2CmEdClthXdbeY+f6crUe69914PhMfWa9SNxXqqWfAHKSPKiQErS/qAm2UQl1xyWTrxRz82Ev8di6h/jxPpO2w3g9N+97t0zdXXuOKhjAF9FrLvFnm/T70HqKMslhxwo7lHM2fN8HLLdeq3EBACQkAICAEhIASEgBAQAkJgUAj07FpPAyAxCFZbXJX73bYNsn7FlVfYFnR/MzfxNc1tft+0ww47eT24qZ911llO5HHJJ2I5+8ZDxtZcc0230EPo+4kaTv2DCnaHuzX7ilvj3VI+b968tP6GvVmewRisIYrbb79jesITnpDOPeec9MlPfdKjs++1194W/O+OdOKJJ7qSA9/uOXPmOFklbz8Czx6JyU4p5l/gi9v7KbGUtw/lDxbwHXfcPq23/jrpKU/d37beOyv98lfsYnBJOvfs89PnPv+ZdMQRL01P2f+ApkrpMxB5lEWTJk1NM1dZxSPONyXq4oeFHbTUxEQwV30rUyIEhIAQEAJCQAgIASEgBISAEBhLBPoi8hAiCObKRoamTJ4OZ+1ZWBt/zjnnpXPOPsf2k5+ZXvziwywy+S729ywPQHf33fPSb37zW3ej3nLLrY0wTTEL/GTbku3edOWVV9u6+gUe4O3ss89NO+/8mERkc9rXjUDkWQOerz3vJn9zWuo27wBbg/3AAwvSfIsj0O/SA7Bmb/jFiw9P69o2aueee74tM/iTxQi417wVFrtFnkCArA3feKNN0pxV5zQ3qadfto592RL3ACAq+6IHLAbBAFzrvSn0Fz7d3abGVYDHmnPX8A/bDq6/3vq2BGBq+vkvphiZvzRdcMEF6cabbmykjz9Y8rDIloIsXbo4TZthRH7mrJ4JOEsnllnsgGQeEv+9mD4ehGikvoWAEBACQkAICAEhIASEgBAQAjUI9EzkIVFBlD2i+Uq4tPdGYFhff80116aTTvpZuscs1wce9LR0+OGHpblz1/RmL7T15VdffbXtjX6euVJfatbUGbb13Glmhb4lsSf9Kaecmu666850vlnyIWX33HO3Ed7HmBv6w3xLupprrzyM5X9gRB5MDCeCxC1ZYgTYLbeV1XZ0EMw32WRjXyePV8Imm2yebrnlViPxS81aPxIIj4Lmrjk3PebRO9uOAOt0VG6rRN7mSbbWf6XCorIvTgvm32/EvnfPgnJd3mP6cK+P8vBWeOR2j7C2LbVlDPda9P6rXQFUpTzBJX+BLXUgYOCkWbYsw9a196yF8lgIBB40Qm+wLCHYXZ/3Oa5J30JACAgBISAEhIAQEAJCQAgIgSoEeibyFAaxRJZawDJc0nsRrOA33XRTOvnkn5sV9XJzmd87veQlhztZjfII4nbhBRcbiVxgqgJzv7/isnTzzTeY9XWakzHI/H/+M89J/S9/+Qsr5zJzqT4i7b///kZ2N4lixvUbbCavzHID81owi3MoPQbRCNa/o6jYZpttXUlA4Ltrr7khXfCP89Ptt9+WHvnI7XxZAtv89SsEbps81bZps33ql7DN4P0LPIhfv+V6fvNWcE/9ARB5ygNzPBU23GhDX+7BnveTWb9ekpElFOZlYMx7iX0WWewFjvUuy6xu26WA7efMs6TTbRh7r085hYAQEAJCQAgIASEgBISAEFiREeiLyAdwD5oV26OZ97B+mq3jzj33vHTGGaenQw451NYzP7lhiad8LKrFspXMurxuOuigZ9re80vt/Bpp1VVnu/X9TnMl/8tf/pJOOfVX6V//usOI3PrpRS96ka8jX3vttaOJ4/5NFHPW7EOEWSvfz9r9cuNRChBFng9y3bXXp5+edFK65tprLabA9objIe6NwNKDfoW4B1NMIYHXxYO27OA+i4q/xCzawyoQd2I2gD27Gay++uqjm2qc3eznfvz+++5Pt91+h28VODphZ0dQILA+nmUH/zGPkmHGp7MrUiohIASEgBAQAkJACAgBISAEhhmBvpheWDEhePMXmKXWSHenQgR6tpL7wx/+YK7xp6Rbbro5bbzhRra2fQ2zKt9p7tH3p1tvvdUszVd7VPZHm6v4I7bZOk2fNs0Cua1qJH6mW+TnzftPWmvttdK5559t69sfSI961I4W7f4pHgiv/wj2nV7N6HSQbQilW+bN7XvylNGW4dG5ujvCuvhLL/1n+sUvfpVOPfXXht3q5tGwr0X6f5wrOborrTq1cVRXRuB7gWv9fHOtX9aj90V1Dd0fve22f6XLLrsy3XXnv9MWW2yZttpq0zR71RmO9Y033pSuuvLKNM36CVjgnVAWAvYttP66xCzoixYakb/1dvfsKKfr5Df3eSQC/sq+fIJlIEWP2+l1Up/SCAEhIASEgBAQAkJACAgBISAEBkLkFy1+0PdJX9ahezIE6o477ki//OUv0wknnJAuuuiitO5a63qwu3vm3ZsWGMm6884708UXX2KfC9Pa66yVnrz/fmnzzTdruEBDkJE1566ettt+W99ube7cuWmzzTY1i/3cAWxD11/noH2QPCzaKDw6V3G0rpf13fPnzzfvgzttecFt6dennJZOO+13aeaMaWmfffZN++23n7uX4wEwKHHrtcGNK/piqz8UOP2VP3L/einjxhtvST/58S88uN9uu+1uywj2SBtsMNfatcw8O860eArXpO232968Nw5MW2/9iKYqCGZ4u21Pd+NNN1g/m58eWLQg3XzTrenOO+5M6627XteR/rnHM2bM8K0PFy/Ge8TwaapRP4SAEBACQkAICAEhIASEgBAQAoNFoC8iH2Qa9/dlRqI6ZTDsqX7xxRc7kccqj4v4/Afmp+O/+y0nUsuMDLHmHnf9teaunXa0LeiIZI9EnTkM7B8/zfZMnzZturlU27r0h0h+nmb8/zaX+odc24mof+9/+ttHPtoPdhdeeKFZ4X+Zzj3v72ZRXmJr5bdJ++67d9ptt8fa+vAN3I0/0vf/DS0d+UyaNDlNs6B6K9l6+f4FIk853RP6pRZQbtGDi9Ld99ySfvazE9Kf/nxGWt08OYpisccMePjDt0yHHPpsU/xsPqqZN998a2JngyuvvNyc6wkSONWURnebUgCF0Xppo40eNipPqwMQeaz/I4oTlDfsSd8qh84JASEgBISAEBACQkAICAEhIAT6Q6BnIg9ZhkD3Qpqx6OKOvOuuu6ZHP/rRaa211k6rzFolTZs+0wOpQeAXm+v9ZAtWtv7665tL/cPdbbzuUtmijj3ncbffa+89uo5UX1duP8cdHyzyRuoWLFiY7rvXXNK7WHpQVTe4XXHFFemss87ywH7777d/2nKrrWwZwYZpww0fltZcc/WuLcpV9eTHWOuPkmSS3etJBL6zZQJ4GfQvlNGb18BWW22SjjzysHTwQU/yrfcWP7gsTTePhFXnjCy3WHutuWmLLTdPq9j+8GVhW0L63Wpz5lr/tT48uUhTpq6ctt7qEXZs1XLyjn7HMyAC3xFcSiQEhIAQEAJCQAgIASEgBIRAnwgMhMgvse3VCHjXqQM5FvhNN900Pf3pTzfSPd0Ckq3pRH6qEUa2fiNoGOuxsa7PXmVWmjFrJKhb3bVC2A444KlpjpE0SC1bkS1vgdQRrR7Oy1KCB235Qaf4tGo7ygqw23jjjdPOj9nV/t7EiWirPP2cI1ifW5zNu4Bt50buc//bz6EgmDSpty0LCXbIJ6Wd0gMLlpjnxqI0afJKFgBxxGuj1fXOmTPHAgI+Mm3ziG297+E0scT2k/f2mLKiF4kVJXzH372UozxCQAgIASEgBISAEBACQkAICIFOEBgI432AYHcLF/ga6k4qZU0xZHSTTTbx5Fg0w6rJgdmrznJCZIc7Esp71E47eBlED+80X0eF95iI65lsLuh2ZU7mIcT9CmVuu+226eEPf7gXhUcEBHQsBTynm/v5ZHMZZ3u1BQ8sNK+J/ok8yw6mTZ1hAQrv66v502ZYOTM6J+CTJ08yS/xUs+D7bfH/ptiSgbz/ddOgEfJOHISRWAgookTmu0FQaYWAEBACQkAICAEhIASEgBDoFoGBEHmstAvNHb7TIF+QpnbEqVsyDqkdJoEwzpw53UgjioWRzyDax5psPuMlk+xGTDXPCOpcZv8WezC3Tu90fSun2NKKVVdd1XY7+Hd9og7OjPST7pQk5b5X/t1BtVkS6h6pHwJvPN6IfP/4ZBXoTyEgBISAEBACQkAICAEhIASEQBMCA2GEEBcskZL/IjDFLM4zzVOA4GcsjZ/I1G5E8WLXYBdCEELiGvYrbM033cziK4+jUqLfNiu/EBACQkAICAEhIASEgBAQAkJgGBAYiEUeIh+fYbioYWjDyrb920yLBUBANSL6Lx2AO/qgrmuxeVDccMMNfs/WWGMNCyS4mrWzvUcDa+SXWOwCcx7vvylmxHZLeLeuF/3XrBKEgBAQAkJACAgBISAEhIAQEAITGoGBEHms8QR0m8guxf25V4/uAxDjaRbIb9JKK6fCSPwy2399WIRdAS666CJTLiy1fda3TrNnz25N5CHd1vj/3uf+TfJ4n7Pv+0TuM9xPcPE4CPyQCAEhIASEgBAQAkJACAgBISAExgGBgRB5LLwP2nZxE1kmT+494FnVdRPMbcaMmb5G3i3ZRuaHZek0ke/32GMPbzaBArn2OkHBQUA91vkT5O7BB213gj630aOuKVZnLD2oq3tCHDcmPxK3AEovEQJCQAgIASEgBISAEBACQkAIjD0C9Qyui7p9ezUj8hPeujpAN2+3yE+balvQTXJcRrAZgEt6F/elLiltmzt3bt3ppuNYmyHd7CE/stJ/MNdAED3aMUDIm9o9Xj9c0eHYiMiPF+aqRwgIASEgBISAEBACQkAIrOgIDCzYHW7aE5nIj0SWHxwZI4bblCkQ1cES4PHusDR/8hSzyENW7YdfzwBgWmLR7/HiKP4HgiRikQ+FBM/AyD0f7zul+oSAEBACQkAICAEhIASEgBBYURAYGJGfyCSeVc5TbK/0KVOmDYyEYYkn4B2kbmSP8QnapUb4+whR5W+3Pvd/LcQMeHDxIgsEOBgLf/8t6q0EPBWmTJ3s3gU8A/HprTTlEgJCQAgIASEgBISAEBACQkAItEdgIEQeIjzyaV/hMKbAmjp79uq2r/maRlgHAwkEb/JkW19uxRXLLHL9UlzswWkCSjQb0u17z8WB3q9l1ioz0/rrr52mTZ1iMfAnLpknvsAaa6yWptkyCkg8nikSISAEhIAQEAJCQAgIASEgBITAWCIwENY61azZM6bP8j3Tx7KxY1U2VvOVbb939jYfqLhSANKL63WsMx9oDeNS2GKLY2ie8ISZ98j1I2vl+6uaQHfrrL1WmmpEnmB6E1VY5z916lQPeDexvVIm6h1Qu4WAEBACQkAICAEhIASEwIqHwICY62QjeiulBxYuSosXL3VSg5EVOytroLG4YsxdalvU+TZ19hvLN9ZM9lmH6DoJskRLzKLp6ZYuscwERLN0RrBx6Xa3ZS+VtdrmA2D/cW7KlMlpqUVSf2DhA2mx1QG5mjVrupW/stW3NC1Y8IA3xtNbnXxPsnxYzI2ipvn3L0j33jvP0t2Xps+YM5hegPV9mV2Xteu++xakf/3r7jTv7nvt2sxqa6wYy+0y+2YLNrZ182uz6/e2+ZrrEVz4zfWsbO2egqKBYtnub/ESK2OJuaYv9TzRaM5RNp9GXss/so6bMkfycz7qBP9mj4pljfQLFyxK1157a7rzrrs971Ki7w8iar0R+FmrrOL13HHH7en666+z+zjFrm3EPZ3K+J3jwd+0mWvkbyR+83d+jfwOXPmOD/0wrpW8IxHnbRkErhMGbugUYt17XifpPbfVTXmkYSu/q666yvrPvY02eSL9JwSEgBAQAkJACAgBISAEhIAQGCMEBkLkFz24MN1+2x3p8suuTosWLTML5TSn28sg7kttuzLjP2xdNn/+/em+++8zsr/E1hVPS7ONyE2bNs0JEaQWkrhw4UInRfPnz4el2RZuM4zwzXLSDwGmHCKpQ9InG9GbNWtmmjNntpH4B9Ot1oZ59/zHj226+cPMVX6Wk+jrr7vVyi7MjXualzfFLKgzpk9PM2dNMe62OF1/3Y3p6quvTPP+c1dafY3Zg4HayN6IpXmldMMNN6a//vXctOUWI3u2P7jogbRg4f22RnyhBXxb5EHfUHBArrHuuoV3ZSOxBcqOKWn69BlpFcNqlVVmmwJiUlr0wCK7rnsNz/ssj5nLVxpRAEA0CSAHhnxDQh2/WSP4oTiJNIsWjdRrfNTwhzCHVRyivDRNt/sCsb3zzn+nc875e7r0kktRv7hiZITO9gcTJJj7sNTa/Kc//8EI9LI0d821XBFE/6Cts6zdYAGhd2WGKSTACRIdAmauHLJySEs+rptj8YntESHdy2yZg6lGRvqklYMiaPqMae7iT1wD2oXyaMpUvkcUIGBGGVEP5dMG6qKfnnvuuem6665Lq6++uh8Pwh9t1LcQEAJCQAgIASEgBISAEBACQmCQCPRN5Asjm2ZrT5f+88L07ve8y8ix7Z1uZAiyh7U5SA3fS806vmTJYiM7RgnNlZ2o7r5HOdZ2t8RaScuWONHHKm+My13e/xs07r8UEuLp69CNbEH0IHQLH3jQ8j7o5GzWKuyPPmKRnz//AW8H7Zr0EDnDlX5ls8ivZCR4wfwF6drrrnVco739ggwJnD59ppPKefP+nf7ylzOM0F/l5G9EaQEhHbGK0/YgpxBJPlw8hJHrdLd/I40jONh+7pZviRFL8qHcGNkabqTFfuyh8sgfBHikTCvVjkV91Gm3xevIrxcMILMI+8bfffc97rEwZ84qTlwJVNevoChYbc4cu/8rpX/8/YJ0w/U3GhE3BZDV7f3Djgcpp+0jWIxY5PO6R9KPEPs8HdcWmMbfXPeI2LXZdeMpYiWnSdZPaIdVQpdz7w8wzescwWrEW4Dj1Et9kPt58+YZRnebQmmOE/68ffpbCAgBISAEhIAQEAJCQAgIASEwaAT6IvJYiF/wguenXXZ5rBEgI2AZca9rqPErt6o7mYRFWj6jUkaw2a98xALqbKqmAHe9tjIgUyOW6CyhubMTBZ1PuH9DzJyk2TdbnqFIQKaYpXvyQ9vDUdYee+7hZa6xxhoWhG19T9PPf3gKbPvIrdPLX/6ydPsdt3lRQSzL5fq1lA5CFHuRTsuqSjdSH/WCWtQ/Qmg5xzVttvmmbnnmdz+y5tw1015772HKjinp7nv+3bKodljEtZTTxfGWhdec7KasqGfddddNO+64Y5o5c2ZNqTosBISAEBACQkAICAEhIASEgBDoH4GVjLAEY+uptBFr50gRcOuWYslwcWcdPRblEeIPKceFfJK52ZsLtX23EuPiXgbkyYzejTXN5BlRErAGfcRCCxeNNtG0xUbife9yu2Tc1adNJ0jZ6NrCsjv6THdHgDY+3eUc3tTgDj6DELCpU24MovzxLgNs4jPedas+ISAEhIAQEAJCQAgIASEgBFYcBPom8l1DZeTaya1lxLV5xPY74tI8wg/baAPIb3k9VVVSP/9QikbCkVZSr5nqvdYRQlpVQNdXpAxCQAgIASEgBISAEBACQkAICAEhIATGDYHxJ/LjdmmqSAgIASEgBISAEBACQkAICAEhIASEwP8eAoPxkf7fw0VXJASEgBAQAkJACAgBISAEhIAQEAJCYCgREJEfytuiRgkBISAEhIAQEAJCQAgIASEgBISAEKhGQES+GhcdFQJCQAgIASEgBISAEBACQkAICAEhMJQIiMgP5W1Ro4SAEBACQkAICAEhIASEgBAQAkJACFQjICJfjYuOCgEhIASEgBAQAkJACAgBISAEhIAQGEoEROSH8raoUUJACAgBISAEhIAQEAJCQAgIASEgBKoREJGvxkVHhYAQEAJCQAgIASEgBISAEBACQkAIDCUCIvJDeVvUKCEgBISAEBACQkAICAEhIASEgBAQAtUIiMhX46KjQkAICAEhIASEgBAQAkJACAgBISAEhhIBEfmhvC1qlBAQAkJACAgBISAEhIAQEAJCQAgIgWoEROSrcdFRISAEhIAQEAJCQAgIASEgBISAEBACQ4mAiPxQ3hY1SggIASEgBISAEBACQkAICAEhIASEQDUCIvLVuOioEBACQkAICAEhIASEgBAQAkJACAiBoURARH4ob4saJQSEgBAQAkJACAgBISAEhIAQEAJCoBoBEflqXHRUCAgBISAEhIAQEAJCQAgIASEgBITAUCIgIj+Ut0WNEgJCQAgIASEgBISAEBACQkAICAEhUI2AiHw1LjoqBISAEBACQkAICAEhIASEgBAQAkJgKBEQkR/K26JGCQEhIASEgBAQAkJACAgBISAEhIAQqEZARL4aFx0VAkJACAgBISAEhIAQEAJCQAgIASEwlAiIyA/lbVGjhIAQEAJCQAgIASEgBISAEBACQkAIVCMgIl+Ni44KASEgBISAEBACQkAICAEhIASEgBAYSgRE5IfytqhRQkAICAEhIASEgBAQAkJACAgBISAEqhEQka/GRUeFgBAQAkJACAgBISAEhIAQEAJCQAgMJQIi8kN5W9QoISAEhIAQEAJCQAgIASEgBISAEBAC1QiIyFfjoqNCQAgIASEgBISAEBACQkAICAEhIASGEgER+aG8LWqUEBACQkAICAEhIASEgBAQAkJACAiBagRE5Ktx0VEhIASEgBAQAkJACAgBISAEhIAQEAJDiYCI/FDeFjVKCAgBISAEhIAQEAJCQAgIASEgBIRANQIi8tW46KgQEAJCQAgIASEgBISAEBACQkAICIGhREBEfihvixolBISAEBACQkAICAEhIASEgBAQAkKgGgER+WpcdFQICAEhIASEgBAQAkJACAgBISAEhMBQIiAiP5S3RY0SAkJACAgBISAEhIAQEAJCQAgIASFQjYCIfDUuOioEhIAQEAJCQAgIASEgBISAEBACQmAoERCRH8rbokYJASEgBISAEBACQkAICAEhIASEgBCoRkBEvhoXHRUCQkAICAEhIASEgBAQAkJACAgBITCUCIjID+VtUaOEgBAQAkJACAgBISAEhIAQEAJCQAhUIyAiX42LjgoBISAEhIAQEAJCQAgIASEgBISAEBhKBETkh/K2qFFCQAgIASEgBISAEBACQkAICAEhIASqERCRr8ZFR4WAEBACQkAICAEhIASEgBAQAkJACAwlAiLyQ3lb1CghIASEgBAQAkJACAgBISAEhIAQEALVCIjIV+Oio0JACAgBISAEhIAQEAJCQAgIASEgBIYSARH5obwtapQQEAJCQAgIASEgBISAEBACQkAICIFqBETkq3HRUSEgBISAEBACQkAICAEhIASEgBAQAkOJgIj8UN4WNUoICAEhIASEgBAQAkJACAgBISAEhEA1AiLy1bjoqBAQAkJACAgBISAEhIAQEAJCQAgIgaFEQER+KG+LGiUEhIAQEAJCQAgIASEgBISAEBACQqAaARH5alx0VAgIASEgBISAEBACQkAICAEhIASEwFAiICI/lLdFjRICQkAICAEhIASEgBAQAkJACAgBIVCNgIh8NS46KgSEgBAQAkJACAgBISAEhIAQEAJCYCgREJEfytuiRo01AosXLx7rKlS+EBACQkAICAEhIASEgBAQAkJgTBAQkR8TWJd/oeeff346++yzl39DrAUf+MAH0pVXXtm2Lf/3f/+XXv3qV6err766Mi3nX/Oa16S77rqr8nw3B9/+9renF7/4xemOO+7oJlvHad/97nent7zlLWNWfrkhz3rWs9LPfvazVBRF+VTPv9/3vveliy++uOf85YxPfepT06mnnlo+3Ph9xhlnpPe85z1p4cKFjWPd/PHvf/877bzzzum73/1uqlLU3HPPPWnHHXdMv/jFL7optjbtDTfckHbbbbf04x//OC1btqw2nU4IASEgBISAEBACw43AX//613T77be3beR3vvOddOmll7ZN12uCBx54IH3/+99PBx54YLrssss6Lma850AdN0wJxxSBlWziP7iZ/5g2dbCFz58/P9HpN9xww7TSSisNtvABlHbrrbemWbNmpTlz5vRU2itf+cp07LHHpkMOOSSdcMIJXZUB6b7uuuu6ylOX+Ic//GE67rjj0hZbbOGKhTXXXLOR9LOf/WzafffdnXxx8HWve136whe+4B8IO6QOQnbMMcekadOmeToUFNtvv3268MILG+X08sd9992Xdtppp/Svf/0rnXzyyWnvvffupZjaPK9//evT5z//+XTQQQc5wa5N2OGJH/zgB2mdddZJT3ziEytzgOvdd9+dfv7zn/vgX5moy4MPe9jDEv3wJS95SfrmN7/ZZe7m5P/5z3/Saqut5gd/8pOfpGc+85nNCezXS1/6Uq9nk0028ZfkzJkzR6XJD9x4443pW9/6VnrXu96VpkyZ4s/z3Llz0zbbbJPOPPNMT3rwwQcn+hkE/1e/+lV62tOe5sd/+tOfpmc84xl5cV3/fe2116bNN9/cn9O//OUv3i+7LkQZhIAQEAJCQAgIgeWOwBvf+Mb0jW98Iz3lKU9JK6+8cmV7HnzwwXTSSSf5e/+3v/2tK/MrE2YHUfRPmlRtN+Xc9ddf73Oef/zjHwmDBgqFRYsWeQnM+/70pz+lLbfcMitx5M/lPQca1SAdWC4ITF4utQ5BpRAtyAkT/j333HMIWvTfJtx0001po402SnvttZc/1P890/lfPPhIFWFqVwoW0aOOOipBDlF0zJ49e1QWiMt5552XVlllFbds1w16q666anrDG97g+c8991wfIKMwiBpEHoXDEUcckaZOnZomT57sVnc0kl/+8pcTVtRHPvKR6elPf3q64IIL0lprreXEO8ro9Ztr+vCHP5ye85znuKKgjsgvWbLE29RtPSgekK9//evdZq1MzwsD0kp7f/SjH41KA3b0YzS4gxKuAbzBqV8JxcurXvWqyj6JPhGijbzsZS9L7Ug86dZbbz1XEqG8+PWvf52mT5/O4fT85z/f2/2JT3zCX4iUR18966yz/DyeEv2SeAqKe3zooYeKxDuy+m88EeCZ+vOf/5y23XZbf1eMZ92qqzMEIAW8Q573vOcl3oUSIdAOgeXZZybSmHLFFVe4kepRj3qUG0za4drJeQwC999/v89H11133cosS5cuTRgCHvOYxyTqbifMbTBk4aUJmb/lllvcQMI3RJzrYL6z/vrr+4e0zOUwpHAsvqvqWd5zoKo2TcRjX/vLNMklAABAAElEQVTa19yox/x0jTXWmHiXgEV+RZQnP/nJeCIU5rbS8vLNIllsttlmhZHJlulanTRX8WKDDTYojCy2StY4Z9o4b9tzn/vcxrFu/rjzzjsL8zIozOLcMptpAotPfepThZHllumqTr7whS/0Nh5++OGFDUhVSdoeM81mYQoLb6uR/OId73hHYUTe833wgx8sjGwXppDw37/73e+8PnOvb1tunuDlL395cdFFF+WHGn/bBKuwgbj4yEc+0jiW/wE+5g5emHdDYYN3fqrt30cffbS315YBVKY9/vjjC3PtL2hDJ8J10F/pS1ViCpdin332qTrV87Gtt966sJdKz/nzjO9973sLeykV5gmTH278bctA/PqMlHSF9Ve+8hXPZwqMwhRQ/rct5SjmzZtXmBKisAm0H6eixz/+8YV5uRTmHdCot58/brvtNq/PFAX9FKO8yxmBj3/848UrXvGKwpaRLOeWdFe9TT68/9HPzXOpo8yMhaYMLH75y196esanF73oRcVnPvOZpvy2bKRgrDWProL+HeNwU6KHfvAOZYz86Ec/2nS6F1y7zVNXd1NDxuBHp/XaJNzvURnfqib94Q9/KGyJVGGKUz9tXnGOP32z2/dPXj5zGN6tUW5+bkX9e5gx6abPxP3j/cqcLOTb3/52YUacgndUN9LtmGJelAXzVCOjXs2nP/1p78OnnXZaN9X2lJZxjDkR49egxLz7vMybb765tkjmbNRrXqO1aconTEFQ7LLLLsXnPve5wlzmCzPMFH/7298KI/IF82DuF1iaN2w5a9vfy3MO1LZxEyCBLZHw+9lqfj3sl8Ga2hVKGNjMollAfLhxtp62MJfkWgyYzJBu//33r01z7733+kvybW97W+WDyCTLrNteDiS9TkhnrjXFm9/8Zk+77777+sNeTs8ky6zTtR9z6fb8TK5apQtyaG7HXZN5XjYMTP1MMLiuL37xi97Wq666qmAQhcijGDAX6QLyDjlDzIrqhN9ckPx3/h+KC0h3WThmbtrFxhtvXDz84Q+v/NAP6s5BPLn3fA477LBy8S1/R78x1+7CLLZNHyZrppn1cjnXCYYWO8DTm7a4sl6ucdBEHuVVP0T+8ssvL8zzxUn1E57whMIsDd52cxkrzMOisGUUjWsJxYdpuhvH+IOXJmWYpaDpePygLPrifvvtV5gXh2MEkecZQgkTpB1lFX3LPD8ia9O3LbFo+h0/WimpLL6C19eKyJu3QFtlYdSl7+WDAAornnGUaxNJeG+ZV4i33eI+tG06E0ZbluTjKJMXxLxXPP/3vve9Rn4IpC3p8uMx/pkHi5+3ZTaFxZnwiWhksGU/nhaFdy694Nptnrq683aMxd+d1sucAAwf/ehHt22GxW1pwtGWxDXuAYrJXuX3v/+9l2MeS70WMa75qvrYoBswzJh002fAJfoJSjfkkksuKcxDr+BZqppbtJqvdjOmLFiwoNE/Y+xkLkV/Nxd1b8tY/cf7nP5MXaeccsrAqrHlnF6mefMV5gFZ+WEeQ73MyToV81wtXvva19Ym/+QnP+llfuxjHxuVJubAo048dGCs50B19f6vHH/nO9/p2D/2sY+dsJe0wrjW4y5uWun0pS99KdngZs/hiJgW0126TZPogdbiON+4d5u2yw/hPlslZtnwfLjDI7jblNey4C5OMLKvfvWr7s6/6667jirKtPHpyCOPbAoKZ1rNxAfXclwoY738Oeec4+vJzcrvLvi4VecSwbyM4LZ1i2YNPULALlyQc+GaWKeDq08urKEnSByu0HXrfkiP6xDr89/0pjeNSmcvEw/MhoszdeDCDd5GvhPXx1r5M23ZA8Hv+KYu3PBZZ8166xBck0zJ4mufuVd5vAPcn4z4J7DdY489IkvH3+YV4IH67EFPxBzoRVhWUOWqg5sVQntbYdhpnXVl0Nc5l+PSaZn9prPJZzINdCJOwowZM5JZ7JJZ3Pz5M8WNL5HYYYcdkg2gvmyA+lhmwXMSQuAZllQY0UimwU6msPBTrFPjmUbM2uVLQIh7gNgEw91ZCbK43XbbJZbR8KyYUiA9+9nPbuo/pOc+s8zGJnejXOSJx0CeRzziESRtEq4PMSunr8NvOmk/6MtmKfFv+qIpG8pJ9FsI9IzA6quvng444AB387SJdCP+Q12BH/rQh7yvskyJOBK8JwioZATcY6lEPmJKMMbitsnyJsZn+jIup8cdd5wnMyVrMkVzZNF3DQJmLfQxj7HLrPiOe03SRoDOiCNDfBiEJUPEy1newtI4As2aUrZyud0g2qc+llI3fYb7QWwhhFgxvO+JacP7kflueV7Qbr7azZgS/ZO6y302fnNuLIT5KvNF1o8P8r3KXB0hdlJ+ffk1MBYi8Z2fq/u7bulppM+XBcYxvlnqwPyWuQwxhHIZrzlQXuf/2t/cQ+aWCM/dRJUVhsgTpRxyiJjl0te2MEFhrTcB1FiDDGnM5Te/+Y2/uFgLy+QnF0gyAygkpRNBEQBBgdhCPPI1wJBN1jZDRCC0kFsGQrOMeJRv07D630TcRlgnzadKID4E4iBYB4NdP8KaYjo3E7ZYD0x55tXg68aPOeaYlsX/85//THwYjJho5kL7mQyaNdUnjGbBdgJGGghfCC8WlC2UQyAzWxIRp3zdMwMv65SogyBqkC6E+xP3M4KsNTK2+IOXA/2EQZNgdWDIZLlXgQgO4qVmqsKWTagi6lwLwfZQBNkSipb5x+JkvLxM25xe8IIXNKog0CSxFXh+zN09sT4JpQ99hEliLpBr7gX3ADIeQt+kj6PEIjge30yWEcgGMSZQCEFGuIcEAkSIxB9CP0YRBJFBWWVeAf7sxMucdKyZI/hMPHuRl+94hrnO/PnI06A8IM5EVf48nf4WAr0gYJ5CTuQh5ZDvUPaWyyIwI0QeIf4Jk0ACiiK8G+NZ5XfsVIFil2CRuXAMBW/5eJ5Gf/8XARSJPPsoI4l0XRdvBNLA+wuBiCEEOEV4/+Vjkh9cDv9hjDCXY29nL7F3Omky74UVvY912mfAE/LOXIcdYVCKo3gjHgzvP/pNSDfz1U7HlOif1PWkJz3J673mmmv8XUicmrGUmE8SeyIfu/qtk/c1gvKfuWmVoCxhrtANkWd+RnBt5hnMdZiT5vPSiJT/uMc9zo0eUS/jNHMLxm6CM+dr8sdrDhRt+V/8xkjI+4x5Xp2xdkJc9/LwJTj99NML3Bl6Fdbf4IJS52ZcLtcehoI1KnZDKteJ4c6OG3dZbCD0PLhHl4X1LJSHWy+uTTap999G7MtJ/bc9/IUFz/A0uOzkwvomysKV2x72/JSvKbZBqzCS33S87odZer0s66B1STo+bgTIy2IdPW7S8bGgPe4qHr/5tsmKu9rnx2zC6Pmr1kvhMs19QXCrN8LuacEBPOxl1HCXD3xwv84F93vqrRLzYChYMkA/MULnrl64e7X7mNXf22GBBotO3FWr6uZYuNbXrZGPfPYyaKwvi2NV3xaEw9uFWz7u+OWPDfa+Jjw/zvp/8ORjL/iqYlsea+Vaj1u5eZYUVfc2CjUFmdfN8pVceG5pE+thTdngMSgOt1gLVcI9IK1Z6kedzl3O4nkkLS5SRuaLcJfn2WFtPOeoLwTXfo7ZrgVxaNQ3MRzqlixwb8lvE89R+eIAfdSUS/FzaL5xoeS5arXUZ2gaO8YN6dade4yb01XxpoxuLNsyRXFtXsZB+irvGIT3Hb/52CSyKR9xKjhe9cw1JXzoR52beS+4dpunru6qdg7yWDf1htsscXKYB1RJuOvy/iHN3//+d78HzBnKc4Kq/K2ODcqNnPbTL0zh0Kq6CXFuUJiM1cV20meYO8R7LZ594sBwj1hWmUu8HzuZr3Yyppjiqdh00029Lgs061UxT6Zu4huNpZhS0pcHURfrzEPM87Mg1k4/0s0aeZaAdCrmlemu9TzLVc+zBUV27Fqtza+qazzmQFX1TpRj7bgmcaroR8RY6kcG0ff6qX9cLfJoP2zymP74xz+6pSy001ik0e7hck70cPaaJgo1FkW2jULbaBMQw3tEsL5iRcBN19YTuWUhrGORJv/Gsh1uMkbQ8lP+d521zNbe+Pkq6zeuiWjl0Iji9lZ2eylXgosTWmxc+9nuzIhLI0nssY4mtuyGzXV16vIBXriX29r1gUTiD5d9NK629qnRXo5jHc+PoUnHPSg/FvesKvonWlQ+eCHg7QCGeEqceOKJCU8ILKe40mORNcWHLzswJUGjDbjg4VbGPt5VgmYTV0CEe0+ZuHdjvaWtVYLbGR4aCO7ZVe7UVfl6PWYPrrvsY6kh8jrXXydogRHc5dAeloXjrSTX/rZKVz6Hixl9vCzsWc/9wOJf1/ZONOU8wwgu+FUSz23VNYc7Gm7xeE/Yunj3PKBPWfwHt9Jj5WILPa6fZ59njecMYdxBsJjXSdk1sS7dRDnOcgCWEeEVxPIWntF8qQ9js738ksXhSHjDgBneQoFDt2N14MKYzZiOZRhPKJsE+nNfHnujfKwPeN/w/OO5Q7s5ZoGVuo7+TX6b4LlXEx5PlFu3S0W0l2/GGMYELFyMNbhxMiZgbarywGiHHWWCOc87zw5jDOMlVqVWfZB8dcJYzPIo3iuUS7+vEps8+uGw7MZvDsYx3s94f7FsCsETBYsQ5ymX5xlXfPoGbWYsHUuhHXjX4I1Ff2F5VCf3LdrUaZ8jvSkb3VJG1GLuCx4OePTw7mNc5l3UiWCxZi6DBc6C1LkLOlgxX+EcGJe3EGVsZy7EeMZYxrPGch8EC2t5TtCqHYxvvOu4djBr503WCUY8P9yDWNLGM8GYirCdZ/SDbp+Xuuuo62O93qNuMaFdzB3Y+YflEIyRWEIZB/P3EM8cmODabTEQmi4HLzPGDMYrtijtVtr1GcpjHMW7DYlnOJ7r+O0n7b9u5qudjCncI+bVeI/g+o0XD/MAcKCvj6XgCs3cid06eCeEgDnvNvgC3qJwh26F8Q4pW8bzcsISz3y7UwmPSZ5lvHMY29rNL5n7sCwVPBmHqmQ85kBV9Q77McbZKq6Zt5txPryg8ELJhXcpXhIW18Df2RaM0N/Z3Ae8Rstz9UH0vbz+rv/uRwvQaV6isdqE0DUf1kAPUoE1KCS02wTUMWLQSEdaPjaB8qBtkR4tnK1Db6Rbe+21C4JT1EXE5rhNQjw9gbM6EXMRapSPdrydhGa0ziJP/rAAYunMJbSAWLptcMxPdfU3kXHBqxwwrKtCssQEEaE8LPO5YGUsB+5AE2ydO0/WuN66qPFYBYnkby+6wibwbsW2F5DfR3Ob9rqJ8mkv0gJNpQ18jfKJME3bugk40shc8QcaUfoIuxngodFKCCBIEDibwLg12SbjowLmcS9pH+mqznOM68aSzgePBMqtEwLZgM14Cv2UZwuLdatPnVWX+w4GdRZ57h0WAp5nmxRVXhrPE2XYwFp5Hm8Y8Hv/+9/vgfFIa+vJPCq3KW486rPFrfBosfTZ/PnEu4H0YbmvqoAAXuV+HekmkkXeiHBhyrHCFBp+zVw33iw2QY/L8ai5HC9/sA6FdDtWkw9td7lMfhth8XE7yuY7yidQIV4a5XyMAUSc7kS4ZiI3l8vgN0HeQqqswFisc6zyMnhuzVU1svt3WLzydPydY4e3Es9TOQ1jRQgeI7x72n1skhdZ3ApFmTZZLLBWVQnPGNHPbcLhp8GQ54HgTlj2kKp3b7Q1LEVVWMU9G2SwOyJhlwPu0RZwjvbS5rq6u+lzlBPXxTuaXQDiugNXvNJyqaoXLyXGe/JQBu+3EILlcpw+XRYCd3Fvcks3Ac+IAN6NMLYx5uVt550Wddukv6m4TjEyt+mmMvPyiZiNdPu8NDWk9CPuBZ6IucTxTu8RebvFhOeP5yK/xvib4L7mhttoUnjv2eS+yTvUSK7nB/vYCYMgy+2eafpPLnHfqvpMpGNM5z1K9HMETzT6Ut07OfK1m6/GLjJ1YwrvdLwbGWMRdrXAazB/n0Rdg/7eaqutHN/ybkPM7Zkjxf0yJVaBV2A3QhnwDd7tdYI3KfMWMzp5EjxL8fBoJezAFFHumafTTjwH8Wrkw1ySdvNOjmO86zhmywNruQ11jvUcqNV1Ddu5dlwzb68phBxf3vM897nEWMMYXDUPoK/n3lWD6Ht5/d3+jWZrzISH27TPjQeLwYPo4wxqucRLMR5AJt5MOHClDpd1Ht78BQ6I5DPrWqN8HkBeuKZpyYv3v/OXkVnY25I1IttHe1pN9KOidgMj6SBDlEnaXMyS03AV4qHFDRr3424E90gmPrg75R2sqgwGIpQH7SbEuEzR3ioiD+65mzrYlwlPKC5M6z+qGQz4KGOIzB/twB09yCoTVVyvbd1XEa5bDIYxgQ2XawbFXoV62UaIlyGuT+UlD63KJTIsW66UB4DIw7VAMHOFVZzr5Zuo7NzfdpK7WrVL2+58K9f6dnk5H9t61BF506b7BIDnmpcarmqx3CLKh8DTB3MCzjnyQEIYZCMaPv2atBB5hCUVTHJMu+4k39aZ+b32k/YfkaTJ30omOpE3i5ErOfKlKyw5IZp+Pp6CFdgx+eS5RanEc8+4mZOYbsdq+iPlMi7hcmneVj4OsosBxyEXuWt3uXwmNowDEDgmleRh3OlEYkKOwgDXNybYPJc86/kYHC/tnDiYh4tjAaEkHy56bN8VRClvQ6fYhXISpSfvRibLLIUCm7gX/+///T+/Rq6z1aes+ArFNvl7Fa6RLeQspofXjRKE30xm4p1ShVXcs0ESea4drFmCB1mM/sJx7kdIVd3d9jnKiuuKelkuw+4vKFw5xlhe1U/jmokEznhGWhTd5XdeTBrNG6zlpDyuq9tvFOFBYsz66gokC7TqfZ028cmJfDcY8czSD2g75aAE4zcf6kW6eV7aXVvci/x5JE8cpw30jXb3qFtMqCOiloMV12frkH1rMOZl1IuyK4R7HJib1dQPo5RhLkTat771rX6MOYtZuf0Yx+s+KPlyGcs+08l8dRBjSn49g/g7FAyM6blSJcrmnkOyeF4DZxRWuQt+pK36RplSnoNUpYvxkLSMk7ybQklaTk+foC1hdGLs5jdKBs7xwXjE+BK/+Y6liRizqmS85kBVdQ/bsU65Zt7uUJSxe1dZ8rGGsQDFKkvN9txzz0a/Ks9r++175TZ083tMiLy5JztBiwcJAgZxLFsxoqHxMia9BcVqkDXO5+fQ+paFzgxBZnIa9bGuDIKXkxo0lvnNIS1b8fCQ8BIuS6xRYkDoRDoZGOPBpO58UkD5TBIZnOIaKI8tzxi4OpFYz08ZTD5Z+1H3gTxTDxOOshY4r8tc9DxdFZFH2wnBjg8TnjoiX7Y089BxL/IJGcodXs5MvkPwhGACHsKENyZIFlnZ22YuNHG662/6EzhAcsLiVFUImvRuJdbIW+DBbrNWpqd/M0FAA173MZdHj8PQTjtcWUHFwX6JPBZI8GXix/MYHzTpHM+3WgkyFC+7aE6sHcu9THjmWXdOPw8lEOnNnc7JV+xpyzGegese8nJhr9bYRotzEDo8hVoJmvJyv470w2yRJy4AxJlrBGs+WJBCKRbXEN+QJdJARlpJPh53OlYTr6I8OWKdYEy22FM3JC+fLQrzfFiaaGOQp8hT9c09j0k2Y0Uu9JmwJHI83gs5ceB9cfXVV+fZ/O/YGgosQzrFLmKkoESpExTIKJjafcpbLoUCgMl3vxLk1dy8RxVVhVXcs/J9qUo7qsDSgciDl4K5NzfO8i5nPOL+Q+pD6urups9RVtTLe9eWFETxThaiH+X9I6+XNcVhsKgi8RSGVyDzINpfngA2KuvjD0g7ZUMG83c6iuogoTmRp6puMWq1Rr6b56XdZca9yPEmTxzv9B51iwm4xTyufI+YA4Evn/z9EuMBMZhQ7rM2nTS8N3IPUd4h7Z5pxrtcxrLPxHWWFeR5/YMcU/Jy+/kbqzb4omBuJYzxGA3jOsnDGv7c25J3Ic82yutW2xDHc8u4WPWhX/LBgp6PWdE+6qR+lLZIzGny9wvn8DyNWAek4zz5ys8B58ZzDkR9wyrdcs24DvgG9x184SNlibGGe59zMAx38EbyoZCvkk76XlW+fo4NnMhDIrhIPli70HDmLmZVjY2XIhOdsLhGOqxsYSHAotZKIJ62jq5Rf649JR+TAaw7TDiijXzjJlMmhHgDcK48OamrPwaMVgMjL4qolw5YFgYBvAV4KUQ6viEjZVzyvBA40mG15RuLJJ2v7hMaQYhPK2GCTXlVRD4n3JTRyrW+TOQhxmgccwnrPdYEzjFQlRU3vAxjMOTeogUtl5OX2e5v3M+4PhQbVV4c5Mdaj3KkTttaV0cQeawGTM7Lipu6fHXHUWLQL3Dvq/vg4sf15CSjrrxOjvdL5G1torcH10C8TOKDhY92YvHIJQbIfCnGF7/4RU9bJqBlDTsa8rCERJAuJlY50WfiiocPJDeCSeWW1bwt8TeYMv4wySp/WIbBdTB+lM/Fb14WWATGW/JxEGUF1tZWYts7+rXQXiYaPH9VMqixmrLD4pN7wkT5kI+cxJM+vHBQ+LUT3B65N7yI657tKCNe2lUTpkgT32ElY6Ie0il2oWzm+ayyJkV5vXzjUh8eC+3catuVPwxEHmt4WaqU69FfOn1PV/U56ok+UFUvBKw8XkW9G2+8sb+zOV9H4uM6eI+TjnFj0BLeABYnZFTR8dyUifyohA8dqMOoFZGvK6vqealLG8fjXpSfxzje6T3qFhOL++L3B8V+efxDeR4KnVypDNkOt2je0WGMKSva4tq6/R6rPtPJfHWQY0q3112VnvdBcIH8nVGVNo6hbGcuFst0GCPzuQPetvl7hvcm85N8vs0cjnvfq2DM4bkPyzoGBX7nRD4UQpwLCSJfd635dZBnrOZA0Z5h++6Fa8Y14GXIPci94eIc363Gmpi/tjPytut7eX39/j3wYHcEEAgxkDwwgA2McajlN4Hd7IFpSmMTSw/UYVoTDxbTdLL0g+03bLLkwfQ4RWChXOxFlszdKZmmLrF1g90Q326K7SDYWoVAPxGYLfISHGlQYi/6RlEEESsLbTfS59tU2Ess2bp/DypjD7IHXIkAOHk+e5h92wSC7REghW30bCLmAe/ydPnfphzxn2yF0Ups0Gt1uuNz1kmb0pqCJ5m2FyVS43gEFrSXoge6IzCQKRA80IcRPk9nrjAe/IfgH1wnAWgoqywEzDPrnZdvA3jTdh55Wns5+08jdU1BUyKNvcw9mA19wBRSHrSmm2BLlGNLQpIpTDxoDlvRsWUaQQ/ZO71ToZ3mtuNBuozQ1mYzK4IHRgy8ahOO8wm2LyxvP0cQl/z+0yS2tGJPdrbKCTENqP/Js5sLwZcISBJiykIPIMMYQiAxyqf/0Ictsn6ygdmfCQL5sD0j+9gj5cBTUV58E1CI5yQCc8ZxvgksRGApntuq86Sxl40HTePv8ZR8HCY4SzmoXLktpiTzZ4BnwSYuybwlEoG/GFeMDJeT+9Z73YzVBIwzzykPkGRKLQ/UZFY8L7fcDzhoZL0psBTHzNrIVzKFrO+XzLuhTuL+EmiKsnoR+p5N2pOtu/Nx2JSGvr8wZeVt7hQ7xi3zIvGAmrSLd45ZDVuO1Z22m3etKVM9QBfvjjyAYadljHU6AhCZJa0JO+okkJ4p35qqZ9wuC+93hGfSJkkecLWcJv/dbZ8jb1W90e8IolkWAv/xQQjcyRhfJwSt5V1uCmrfwtWUVXVJuz4ez5IpHUblNdI26lgc6AWjyFv+7vR54R3KM5WLEWB/x5myID9c+Xen96hbTIw4eX085zxPZYl5E/PFEN43ZhjxAGvmBeSHCT7Je34QMpZ9pl37hm1MYY7IOxfMGTs7ESP+PtcyJb/P5Ri38+c4n9+bp4VzB4KW0gfMiNO2Cubf9MdWc+kYH2gDwryyLPANntN8y8BIk79r4hjf4zUHyuscpr/zOU63XJN3JALerXhO1VgTYzzvIeaqeR/K8WnX9/K0/f7dzJr7Lc3yE8HTtB2+F7i5lPge5ERRN62YRzjtpYryhLFchlndfOLJPu1M8hCziCULgFVO6r+5cUx6+DCBMHcoHyAgSbGHa7z8mDAMSiAbIa2uiQ4AESGSolnTXMEASSsTedOYelRaiATRbRmAxkvYezF/GXNtRHetkvJAZO6+PuGBrEPcKYvIshCIGKCJQA5GOeElAi+KGAZYJg11EXnZZQDiwgNWRfSjjQzCFo/B+2q7XQciT7ffRxxxhLeZiK4Qekg2H4ileU409r1vVa5Z2HzyaxaGVsmG7pxpiFu2qdwvuG9mNW/acSGe5zKR57mA9DPxM6t5Msu6RzOH3EPWIfP0LyKUhyKR/sRvsxJ5hGrKhFi0EibbkC2UY2WJsYHnteo86VFiMLFrJYyXRMmmD1a9yFvlrTtH9GvGXPod4yBKS4g5SsyYUOR5wexMI1oorMz7xJ9HxiCUibQt3782z1f+u2pcY0cFFAMhPJNgb5aQONTRd1XZdRlRFiDmol2XpOVxJvX0sZi0gw/9KPpjnrlT7Gw5iCsg2QXClll5dHOz7CZbTpLM88SLZNcMxvp2Avkt3xMm/Si8zSvMdyWgXcMkKFSq3hG5grtVe/PrKY8d5XyD6nOU26rf8S6jX5iXmY/v5ilWG2We/sR4xbhky8r8WSy3u5ffYBHRymPe0kk5g8Som+eF8ce8mJqaiFIujwjfdLKDH+V71AsmoUBGqVA1brDbCW1kvpULcw2OmxXXD1e9C9jhCHLYSng2GLNzGas+k9fR6u9hGlNCcW/L42p3Hopr4f6jOObdBw9BMNJZzA2PSB/p8m8U/wj3t3wfUOLk813SYYxjzsouSLw7zZOFw6MEIwxinlj+Hf3Efzz0H2UThZ++V5ZQIJWP0zfGYw5EvWMxRylfT7e/e+Wa7LBgXsJeHf27WymPNeX8vfS9chld/7ZKx0RwOSKSPGu2rFH+IXARLo9lt6VwU6tzj4t9bYlMnQvrslhTG2stqQc3VtxmOxXaYi9ib589vI1ssY7XJpyNY63+sBeol9HKtT7ceWknbr6dSLhxmPKhyQWIeAO4wNlkrrF0IdZ8l13hy/VQN20orwMrp2u1Rp71QKxZjY+R5lFricNdntgArQRXQ9yTcXlGcMnGxbdqn04iRkd/IphaPxIxC3AlHrTQl2gn7jUh9DXiAnCtnOMaI6ptpKn6ZpkH979dWlwRKZfgiYOQfl3rcW2nPeV+RiBHjrOGu53Ejg4RG6EqPctUKI9nJcQGaMe3HN8ggueRnjX2/QjPIOUYAe+5mFjeQTl8+u3T5YbQx4lnEeXjlk7guFau3QTIA0vTRns+xpiQbsdqXPqjbsZvXFRDIlDpcccdF4caMVGq3gW4EkZZNrlp5Kn6w5RlnpYxsp2EGx3PT0gEV+MZYMlTvLOILE4bcKmuklbY5emJCcG4F9eDWy/C0qE41uq7vO6fvEYUPKAZ+XL3X851I0ZEvA3Lc418fi+i7YE9S4wi2FRVf+y2z1F+VR+IeiO6ez4/yOvlvc48AdzZbSH6SuTPvwkKRzqWEQ1SYp6Vr7GN8sMFNZ/L9IJRK9f6Xp+XaGP+XXcv6o6Tt+oedYtJLDk040LenLZ/l3fGAGfcokNw0w6X+1bPNPPQKhmLPtPJfJW2DGpMqbqubo6xPDfm+QRfrBPGBebg8W4Bb1Mc1QbBzsuBn5A+XODjHK71HCf+Qd0nn3tEvvhmGSjz5ZDoZ9FHzJPDy6eeXDhPvVVLSfJ0/D2Wc6CxnqOUr6Xb391wTcomMCW4sjtAnbQaa2LZXv4eopx++l5dOzo9Plr9Y1c4CMH9BesPVmMskGjd0YJgdUPzhHtrWWwNue9HmR8nv01u/VC4O6EJw3UadxbcmnBxwDqLmxgWqLKlAssgnyrBkmwdwU9h2QsJqxWW39DUxrlev9HEh0T5/G5lmcJajWAZROuL4FJiL65kk0y3wGAR6EVswtEym3Wi2vNYMi3IU+NjHb82bR32ZMDNEPdk8GBPR9yF0HJifSlrRUkfru3Uz96oE0nwBGH5A/0Z6xy4sMSjlaCNxXqDFpr73UrifsV3q7Tjca5d/2p3njayNzFSZSHxE/afrS/zP1mCYBNU18Rj1aQfGSGMZP6dW+CxtPcjgXMn11FXD9bpXAvfyl28roxWx3G1Zd9nI47u7olF2SYGvkzkyCOPbFjy8jLAGg8HI9h+GK1/2SrQ6ViNhRjBLZrnOXdVazUueKY+/sPTB8FSGG72fuCh/3hn1AnjMXghWHSw0PDsIu3a3Al2lIOnEa6iWPMQljQgWNqNJLb94KJfFvoS7wUkrFflNBPlN0tS4vmKNtOPEVOiND0zcT6+x7vPMd+wyb9Xzz0te85Fu/gOCxDPFJ9BiQXr8qJYRlQW3rFl6QWjGKfKywL7eV7K7Rrk724xYbkLgks+HhadCFZflt+ADX0WqzpzRryfQrDg0XfbPdcsq6ySseozVXWVjw3LmAI2jNnMg1nKVCXMH5kj4QGH1ZUlMXiUwSHwLmu1xIr3BPyE+YIZ8Rrjf9TDPcTrte7D+7JK8JRhGWi+1KJskY9lpVjYq6STOcFYzoHGeo5Sdc3dHOuGazJXwyMTieeqVV3MJ8vvITwUkfw91E/fa1V/x+eskeMiWFuJzG5uqK4NyS0aod22RnvAmLAo2qSzEQ3WOlMjunxYqUnPlj5YN1oJ9doAW2BlJ+KoDQgeAIl62PaKcrBU2QPfKCYiTXKuEwt/JxrO0MSxjYt1KK+Lb+uIHizLHujCHnw/R5Au2o3VljagCQxBw8e2PFFGHK8LThfn4zss8rFtVxwvfxNgjLrLFn6C+nQT7K4qsF/UZZMAjxpJUDmCQFEfH/oHlly02SE2SWlsR0gQK6wK/ch4W+TLbSVIFl4lrSQinHbSB7Fsgl0edblV2e3OYY00ZVm7ZLXn4xmqs8gf0ybYIgWb4sOvCY18nZiCzCO74sERljFwwFsnjzBsE6yG5YbztoyjdvvAurry4wQwpBwCEvUjWE/x0mBcyC3W/ZRZlxftegTFpO30GYRvgjLmYwrWPdLgbRPS7VidezaFd4qR4YKgXJSdt4E6ovx+LfL0l/AoIKI4lnKEdwrRmI1w+2/+K2vfaV+M57GFFOnwiCG6MW1mfArpBDuuHcsafTUESwLPF+UR1HEQQkR8yjNFqL9LeilzGCzyXAMWqthRBiscFhCO5555Vf2l2z4HRuU+kONWZe2tqhcvINqH9ZV3VZ1EEDaiag9KmCtQtxEO3+KRcvFaee973+vHOZdb5HvBiG2BKYeAvJQdn26fl3bXXHcv6o5TXtU96hYTM5A0nm9T+I56fsxFusCjK4QxhXklmMT8LPoFx8rvvcjXy/eg+0yMb608SKOd/Y4peH8xt8MCmnuCEQQXb9vwRqI+AtUy/jC/zYUtZMG01TMT4z3zUzyyutnCmfqw+LPLA/NeeAptoY8zDvFc9SL0QcYtrO4hvGdNseDtM6WY7yqx2267+a47YMS8CE7DXKCV90GUx/dYz4HGao7CfeIdyPw/xJYpuMcS7+0QsGDrN4Jht/NabMU1GZfpR+3ejzHWkDZ/DzFnpy9wPH8P9dP34hr7+UbbMK7Ci5mo6tyUkHzwAyA+uDfFvqX85oaHWMAYJ/BMSjsRtrmKcvnGTTn/zU0tD7qQfY6TLt8mLeqDlDOIxyfK44bGsbJrYmyHQoT3XGJQjTLK7TOLUNNWJnUEto5453XxdxD5fAumchp+RzT8fol8J8sIGEB5WfGQMFFAuQEeYIbwADER4UHG9YnBkYGXQbFXGUsif9RRR3n7Gah7FUiHeaH4timdlIFiBsxYYjEI6YTIQ/xQ6rCMoiyB7+tf/3rfIpJtIvnE8x47EJTzxW/KJmo8SrZ2wmSSXS3oFzwvRPYHC55hCDeTNFyZmWTjIstEjfOmBW+QvHZ1lM+jbKMMtonsR1Dm0E521Bgv4ZmE0OMmhqDU4FogqGztxw4RYMWxPBJ23DuOx6fVWM2OFfHiQxmLEpL0kZfv4x5SJtCOKL9fIk9Z9Ieoh3cJrpPxwmV8CYmXdu7OzRgUeSEw9Jdw7eR4TuQ7wQ4lAPnAwryKCrMaNUgDuFhApGhOX98oRpnIUhfvqF5kGIh89D0wD2UH12QWucZSMq6tqr902+cop6oPcBypIolV9aKYiWWAKL9y0jJS0sj/YYjgWiAKgxDeM7G9ITjRjnCFZwzlWE7ke8GIJTmUwweFFltbMhdDunle2l1v3b2oO055VfeoW0wo54QTTmjMD3kueVbZshRXbeZlvF9CIO9gwfOWK5rj3YJrf3488vXy3W+f6WW+Gu3sd0yJZwWsYjteeED0JfMMi6p89yOOM4cOCRdzjtNv6wSjHMQ5lmjWpSsf5x3IvYWXhDD35Z2MSzxzTsbtbgUjFM+JxUmqzMqyBeYflG3eOZ4GThP7mzM+MP9tt6QyCh/LOdBYzVHimTaPvbgMV9ZE34hdh2LZMMerlg81Mmd/VHFN5mqUwa5CrSTaFe1g7MzfQ/TP/Nnute+1akM358adyFc1Lh50Jm9s88UAGgDyQux1QhJ1YYmD/KHhwRJD2UwUWD9proxFeR1t5AvLFS+psuSTxGhr+TsnN0FKSJNrnygXayvtiAkUaXgpQzwgZzygnUhsn8ILhLLqPnRC6mi39gbSRTq8HtimKz4McLzY4jffrEPCqpgfiy2wLJBHbfMhq+wvDlmjTNbBIkxsIRQ8PEywqZN9q0PLygSCtvGhHgh9br2vqtACV7n2F0sx+0hCnMg/FmvkYx1O3WSuqn3lY1wvSp+wJpbPl3+jQeZ6OtHisi0QGLb68CJhktIqTVihqDfv77SNtcUcZ90o1sj4oI3mOOvfc0ETy4uT5w38YnLGy66VsBafNZpMLFFO8bzwvEEQeY64z5TBWILXCgKmvDxoB/mwvOYeOa3qi3PcW/I///nPj0Ndf6MwZJxhHToTpuUlaKrz8YfrguyyLU7erl7GahShjA+UyQdSzTgRxCC3cqE0JA1tKQuTHc4x8el0TOSZCGIb9aPkycckFFac49pCsKDzso88fJMOnOLdEWk7wQ4Myx4jlImSwJbXRFED+Q5cW60BbFUR67dpW1m5TZ4qrOruWVXaVvVyLogw9ycIEW3BMw3lf+7RQPq6urvpc5TTqq2hqMnf23X1WpDNhrKI2CZVgmKRPsx1dTJWV5VRdQzCw4QylCA8vyiMqA/88GLLpVuMKAfLIe3mQz14ESLdPC95G6r+rrsXdccpo+oecbxbTMgTFsHAMa4XBWSQPbCI87kikvz0ASb+5BuUcrbfPtPtfJXryKWfMQXyjUKOOV5uTWX+DYHO56FRD3POECzUYDnouBKUzxbNtIt3Qnn+yPsmPAGonzkE7SP2F2SS9wXjAN/0AY6DcwgKAhTHeHKUhXkuc1sUwrw/ysK4YDseNZ4zjJGtZCznQGM5R2GOD7a5MSTm9szd4p6EIgEeYMuCWkFRew7uEMZh4q20kiDyKIaCB9JOxm14JFximGToiDzgQO4gW91OrDsBFss+N6QT5UAQI16IaNv7kTxgBA9dnVAXRLwXgcxybQwurSQs8uzL20oiqAOEi4Gl209orAm2UxYGN4gdk2zcrtDUlifnaCKxokHAqrwHIPjxwmSi0s491dbKunUbrTo4xScmI+U29vM7vC+osxfB9ZH97bvpd7HnOvsGtxP2dH/a057m1nSCzlFfvx+erRh4qT/6fJkQMKCCPS7OZeGlz+Qz7g3fVYMuliyOYzFB4cALluBzuUCeqINJBBODslIFiw3kIOpCEVXug3l55b9xlyMvk8heBcx5iaGdHwbhBWWxRjzgJC/wsuREnnOdjtXcLybVTI7CCsl31VIClCxVdVMf1ha8K7oVCCDXZWv7R2Wlrqp2kJD7gqI196yh/6IcLks77EhPPsZ/JnLl/lour9ffoUCjbxI4tFtphUfduap7Vpe2VXvAJ7eoMYHDsycUuFV5q+omXTd9rlVbGdPoBygHc6mrl3GH9K3GEpSb3B+UtYMW2sX8KVfA8R6pem66wSjaCalknGYZYFm6eV7KeeN33b2oO06+unsUZXaDSeQBL4Ks8smf/zhPP837ahznm3Gxqs/kabr9eyz7TLu29DumgCWY5MLzUTXu5pZO0ocldFBKkWgD/IK5NgGby22LNHyzBPfwww9vLAuO+UL5G+KNgSQEA1N5Ls47CAUx81Xmx7F0KPLk3/QtvEGoB+NmWXh2x2MONJZzFK6h6j3IsfL4CVbdzIfLeEWgYww3jCWtJIh8eOnxHuKd3U/9rerr99xQEvl+L6pVftx8eTCwNrcTOlMQxX5cuKknrJBYneuEAYy2QV57EQYJBjteIK0EazeKDF5urQSNPZFUO13CUC4LCy2DW3kyyeBme4a7JR6X+rLwwELMsM5A4KsmIJGHFwxuwEwuOhUm82hXwRrtWj7h6bSMdukYpNHgly1I7fJxnvuHlbeKLLTKj/sd/TW3NrZKP9bn0L7jVlYeqJl0tYuqTUR5ngOWi5SFCTX9BwUTGvXyBJv0uGKhwecF3CriPfeepQFEAa8qp1x3/tsCM/oLuZPo+3m+ifx3mchP5Gv5X257eFe0W77yv4zBMF9bPEco7uvI4DC3X20bfwSWd59ZHmNKRGPH+2HQVtBDDz20q6WZzA8wzLDMk/kzngLMHZhjoMzPXeB5pm0r10YnQbGGyzxGK+Ya4TLeSFDzB3VijLCgtU0pOD4Mc6CmRg35j7CsMzdvJ2Ui3y798j6/whF53N3Q8OUuPq1uAut3IHy4gPQqPHQRJAm3kTphoIL4WsTTuiTjepzBqJ9JBtqrslatkwuAaLNGCdzGSiDLkMmxqgPFAtrG8RQszmXSPJ71D7IuyH4/9wYvi0G/+MvXh1a3V4+LclkT5XdMJqvWsE+Ua1gR2olyifcWylDJ8CGAcjqW+UWciuFrpVo0TAgs7z6zPMYUgtsxjkHCJrLghTWoOCid4jAec6BO27K80zHfj6UwrYJvRzsnGpFfiYbbg7JcxQKM+LZcNjnseNuP8WqwWZOTWdGTra2o3Kqpk3ZY5Oxk2kzfrsAm/o1t5DrJqzRCQAgIgWFBYJjH6mHBaBjaYUqmZJPHZOuikymHh6FJakMJAZvY+9a2FhckWcDb0ln9FAKjEViefWZ5jCnm0ehbybHFo62ZHg2IjgiBDhEwT9VkSxqSxZ1qmwO+Bm8z1/qOtqlrW+AYJxgKIm/r35Ktg/O95i2gyRhfcvfFm3XQM9na6u4zP5TD3KR9b3TTCvVchjIKASEgBJYnAsM+Vi9PbFS3EBACQkAICAEhMLERMI/tZHExkgWjdWX4sF/NUBD5YQdJ7RMCQkAICAEhIASEgBAQAkJACAgBITAsCMg8PCx3Qu0QAkJACAgBISAEhIAQEAJCQAgIASHQAQIi8h2ApCRCYNgQiOUew9YutUcICAEhIASEgBAQAkJACAiBsUdARH7sMR7zGmy/8WTbziXbtm2gddkelR67oFWhtoVdsv3oEzEAJqLYfurJolgOpOn/93//l1796lcn2y+7sjzOv+Y1r0l33XVX5fluDr797W9PL37xi5NF+O8mm9IKASEgBISAEBACQkAICAEh8D+AwApL5G1rtHTjjTey/d5Q3kbbZzJBkjuRa665Jh111FHppJNO6iR5U5pWBJyIx7vsskuCgNpWak354odtoZN+/vOfJyLv/uY3v4nDPX0fd9xx6fe//31t3n//+9/pJS95SbKt3WrTtDphe4anZz7zmU3E3fYETY973OPSBz7wgVZZK8/ZfqDpvPPOa5zjfqEYCBxsH9Fke50nor0iHLf9R9OTnvSkRp5e/7C9RdNZZ53lEanPOOOMXotRPiEgBISAEBACQkAICAEhIAQmIAIrbLC7l770pemb3/xmOvPMM9Oee+45VLfO9gNPG220Udprr71SJySN7YXmzJnTRCoPPPDA9MQnPjE99alPrb02ttbDqvud73ynNh3l2J7u6aMf/WjCClwlbNOwzTbbpOnTp7tXAFs89CKvfOUr07HHHpts7+PKLfog8Hw22GCDdNFFF6XVV1+9shqI89Oe9rRRlm88Fq699tq0zjrr+PfMmTPTM57xDPc6uO6669LkyZObymO7CtLsvPPOTcfjx9e+9jW3wNPmI444Itmep+lzn/tcwu0dBcmGG26YbP/K9O1vfzs9/elPT6uttpq3+ZxzzkmbbrppFNPz949//OP0nOc8J+2xxx6JtlYJCpjydVWlW17H6Dtsacb2MgcddNDyaobqFQJCQAgIASEgBISAEBACEwqBZuYyoZreX2NvueUWL2DttdduWdBtt93m+w5C6C6++OKWaetOYjGHlG+55ZYtLc6Rv9O2RfqqbfEgvFjpg+BBLk855RS3nMe+whD5u+++O33wgx+sJfK4ikPksbrXEfmtt946HXDAAX5teDpgpQ/BCs7ep1x7OwkFAMQXMl+WT3/6035NXFcdiSfPtGnT3DIOjptssokTd45zH9jekOvlfiKQXBQQZbLLdRx22GGJ7bZQ9my33XaePv8PJQiW/Je97GV+Pr8Pn/rUp9wST172rTz99NPdq+EVr3hFVyT+yCOPTK973esq60cJAQGuU9bgbXLwwQe7UuiLX/xiGsatD9/97nenE0880ffqFJHPe5f+FgJCQAgIASEgBISAEBAC9QiscEQegvunP/0pXXbZZY7K3//+97TuuuvWEkNcobHi7r///qNQxHKOOzt7Di5cuNDdnHGb3m233ZrSbrzxxn4e6/rZZ5+ddt1116bz8QPr6SWXXOLEhmNYc2nfTjvtFEkqv3MSSntf9KIXOZnFcn3yySd7HojpKquskvBEwHKMsLb9rW99q1uM/UDFf/vtt5/j8/KXv7zi7H8PQcggvjmJX7p0aXrhC1+Y/vjHP7rVm/a0kiDyU6dOdXJdTstxZPvtty+fGvV7iy22SHxygbAjOeGuI7fgxNILrPcoPKqIPOW84x3v8HXvKBaiLJZFoHSgb7APJfLrX/86rbTSSk76/UD2H2vm11xzTT+fHfZlH6eddlr67W9/m2bMmJGfavzNff3Wt77ln8bBh/7AA4G2IAsWLGh5nx/KMq5f8+bNS7/4xS+8zuc973njWrcqEwJCQAgIASEgBISAEBACExmBFYbIQ7QhXRBdCGYIRBOCCPHC+pwL7tFf+cpX/NChhx6an3LrNHnKa8chtAQ0+8IXvtBID9F+1rOelb761a+6O38VkcdyjvUV0hgCieODFfnPf/6zu89Dzj7ykY80re2/+eab3aL87Gc/OxGg7nvf+17CEj4IgVwTvG3WrFleHOvYcR+vE6zd1A2mkMyrrrrKk2I9zteTV+UPIr9s2bKq0wM7lpcf5Dsv/L3vfW/64Q9/mJ7ylKc4llXWf+4DFm+uC1f+tdZay93pKRvXee7/mWaNp0/xzVr83Xff3d3r89gHKAtQErEUgL4G2Q/56U9/mq6//nr3qsB9vlvhXuAx8M53vjOxbGHYhKUBPGMoS1AYSYSAEBACQkAICAEhIASEgBDoDIEVhsjjFh7kep999nGXZAgYEcvPP/98t3qWiTzBybCW4qrNGucQyDtR4iGBuJRjgce6CFGH4OHGjCs9xDoERQDnWQ/8mc98puHazXnIGmvR77vvPieEkEMstKzbPvXUU91Kz9877rijW7yxDmNhJQ0C6URQSvBBUCh0Ku0C/gWJp7zDDz88PexhD3P3cCzsOfHkPC78eDhsttlmvo6dY0g53cjR5v+DyLdrT3Ou+l+QWCzr6623XlOiXMmRt4t6UfbgqXDMMcc4hlVEn8JYm/673/3OsaB8AgJyTxDiCYSgBOCe/POf/0xz585NT37yk+OUKzZQ8uAef+GFF7oSJvrMnXfe2VAssba+U4EY08+57s9//vMJskwfHUY5/vjjvVlY4+PeD2M71SYhIASEgBAQAkJACAgBITBsCCwXIk9kcizNH/7wh3vCAwL1j3/8w4lOTjLrCoNcEpAMoU4slLlccMEFiYjoZYEEIVhMCSYXAvmC9GNB32GHHeJwgqw/9rGPTVhlf/aznzUReQLqQXBx7WdNMIQ4BNdoSPz666/v6/DXWGONOOXkECt77iZedkPG8orkygaUCSgIOpHcQl2VnqBuWI4htxAurKd4OFS5e2N1h9Cybjxc2avKrDoWZK6OPFflaXWMe47CBVwRPAQQyG5I1IVyhuUDKE7oX3vvvXckqfwm3gC44V6PxwL3PYh8WNgf/ehHuwID3OjzrI9HuRCCFR9lCMstyoJnBksyWPpAe9/0pjeVk1T+Pvfcc105hQfA17/+9eVG4lkWQlR/sKjyQEExhZcJwlKQXqXbsaDXepRPCAgBISAEhIAQEAJCQAgMEwKTx7MxuBjjtsyaaayYQeQhnD/4wQ98wg+BgkyxphgCQ8RwgnkFGaO9WC+xsEPS3va2t7krewQvq7oeSANkHsFSXhYs3VUCWUOwvpYFolwWiBuB3y6//HIP8JafhzCy9Rmu/axbz4l8uNNjac9JPPm5rn6ITt6Gur/zpQakQYERygF+Y03mXmC9ZtszBDKPdZn7EGvXOc6aZzwYemlzEPn4prx+BOXIIYcc4p4QlENMA7wdcuULx1FKcG/4RqmDq3c7oY18qAMFCgolPD1Q0uDJ8b73vc9d6SHwKGpQ+tAvQgiih7dHOZ5CnGdLPEg5Qt+lTBQnm1jwPmIdVAlBCfEwQVAqsCXgeAueKSw5wesE7xSe2yoiz/IPPCAIapjHgGAHBZRdr33taz0/gQ/BjV0cnvCEJzjG+TV1OxbkefW3EBACQkAICAEhIASEgBCYsAjYZHrMxdZ/F0ag2bDdP2apLYzQN+o1Eu/HjWQVFrm6kS7SG7EqjGA10v/tb38rLAp6I51Fni8+8YlPFGZxbaTJ/+C4kS5P//rXvz4/Vfu3RThvlG8B52rTlU+YS7nn4zrKYi7Pfs7WvDedsr3G/bgFiitM6dB0rpMfFlCt4GNW0MIUBYURnsICwhVGogqz9vrHCKXXYev3G8f4G4yNDI2qxgKsFeb1UFhU+8KIamFbqRVGDhvpjMAWtq67ePjDH16YYsaPGzktzJW8eP7zn99I180fZn329tiWZJXZuMe01yy5lefzg0bKPa0pHvLDo/5+wQte0EhnCo1R58HGLOmFWexHnQMbUzwVm2++eWHKqMLc6wvz1vB+aOvrvVyLJ+D3weIYFEasG2XYDgh+3jw7Gsf6+cOs797HTbni962fsnrJawS+MOVFYcsA/Lq4T6YgK0wJVFmc7Zzg6SzeQ9N5U4T5cVMGNJUVY8GrXvWqIr9P3Y4FTZXphxAQAkJACAgBISAEhIAQmKAIYBUbM7Ho8IXtZd6Y2JvVsrCI6YVt6dZUZxD5mKxDSs2duzj66KMLs0h7fib+5srcyMdknnxmxW6UD+G3bb+aCGdksGjyjXRmYW9Ldn70ox810v/rX/+KYlp+Q1riGszbYFRas8T7eXDIBSJs1m4/Z54KxZe//OUCUtyJ2HrvAsUA+cHquc99bgERNutwQT0vfvGLaz9mCfU6IfutxNZtex3lNNwDyDd1m+u3K1O4fpQGvYit6/b2mBt/ZfZuiHwQZQvO1yjLgswVd9xxRwF5jA/YQT7jd/79oQ99qLA4BN4ms6g3yuEP7jXKpH333bewyPB+Log8P8yKXpjHSGHW/8K8S/z87Nmz/Tg/zHPByzXLtZ/r5T/qtd0XnECbJ0dhlv9eiukrD5i+//3vdwVO9H3zoilsu8Km5zWvhP5GWvNSKcxLIj9VBJHnPAo/87gpbIlEYUtTPA/Hv/vd7zbl6XYsaMqsH0JACAgBISAEhIAQEAJCYAIiMCZEyWbf2gAAIlRJREFU3tx7neDExB4Cg9XZAnhVQpQTeSykkKCQ/Jyth43DjW/IPQQZ8hD12Vr0AoKEVTYEcpiTBNJitcZiai7AkazxbQHPvDxzE28ca/dHWHfN1bywvdNHJbegeo02mvtw03mIP8QmrgESbtu5ufW8KaH9gDxBlCDpWMDJgwIA62QIRN7W1cfPym+s7raOufL68wx1RD7SfOMb3yi4ZtpBnbnCJdJ08o1HBmVYvILK5N0QeXP597JsiUBhSzr8Y+u1vZ+gdMAS/rGPfaywte2FBaErIPybbrqpk2L+rvrY8gJvFwoq+tL3v//9RjtRTpnre2Eu4Y1jeHJQVwjlh/cDuHOttK1X4XmgDPoAFv86wbtk0IJHBtiiQKANfCwqf0Np0aq+8ARBuVaWeEYZM3IFE9jzvFLP4x//+HI2/93pWFCZWQeFgBAQAkJACAgBISAEhMAEQmDgRD5cuJlwY+l8z3ve4+7ZrTAJsg4Bz0k8eXBpDqsoFtJWYuuIC9umq0Esyu7tEHuspOH+HgTEorCPIlR4A3CetJ2Iretv1IuLcZVgDY46UXaUxdZEF3gLWAC1RjrSQ9gDF8qwNdJ+HuJvEdGdxOPFkEsnRD5P3+rvdkSepQvbbLONtwkya1H0WxVXe47lFyyByF2n88TdEHkLCOieAmCHazwfPBboSywZCAG/UHjQV3PiHWnK3xBjljHkEssmwIFzkMqy4ol7YrsJeDb6Jp4M5XLyMtv9/de//tUxxysgX/aQ56Mv0k/wcBmk5M8Z9+3000/vqHg8SOJ5rvIgCCJvEfdHlYe7Pc9DJ8q1dmPBqMJ1QAgIASEgBISAEBACQkAITCAEJtnEeKASkbsp1CyQHqCKLbg6EQK7ERE+FwKKGTnyQ+yX3koIYkZwvBCCbeVCFHWigBNl3KyqHuDMyFS65ZZbfJ93gmyFRF4ii7cTgsHFPvNELzfvg8osbD8WYu768Wfjm7abS38y626yJQKNAH8ES7OYAp7O4gEksyQnW5edzAKfCA7GdnDLS4j2TjBAApJZ/AEPyEaAuQiK1027wJFI7UY8u8lWmdas5R4N3izrvj87e7SblTcZ6fVt/KoysW88kd7zfd6r0rEdHNdnpL/xMc8OT0owOgLd2RIHD8zGdnYhRHCnXQS6M28I33aOsspCwDyCHvLcUB5B66o+BO5DzPLvAePKaYwUe3BF+rApKdIZZ5xRrqrn3/lzThC6uoCR5QoIIMkOETzrz3rWs8qnG7/zXSLioFnk/U+2jWR7vlbSbixolVfnhIAQEAJCQAgIASEgBITAsCPQP2MqXSHRzCGhRP5miziIE1Griajdq5TJfbkcWyuc3vjGN7rigD3AESKJs492lUDezT3X9+229eieBHJBpPwQc233P4ks3krMQp4s6JvvIw+55jrZkqxKLDha43CrazKLpRPEiy66KNkabs9j64IbeS3gl+8t3yl5amQc8B9mOU8veclLfCtB2sd2YxBUyCmKB85B9DsRW9fv0cqJ1t6toNC49tprR2VDqRJCW7mXYFsnpGeLwDxif1VaSDakkrLYqQDlCjsPsOXe6173Oo/mf+mll7pSKm8D+7mbNd+JPrsA1O3vjmLknHPOSRb4MLGjA0qSqk88U+xbX3U+MEVBxTPSbku9qmutO/bNb34zmVeBn7Y18q6AYQcDnodWguIJQQlRF32/Ln+rZybydDsWRD59CwEhIASEgBAQAkJACAiBiYTAwIk8JBZLJcTKXKGd5EBKDjzwQLdAsrWZeSx0hVFYr9myLhe2E7P1tsnc351Esn0Y9WChPOmkkxokOM9T/pttwcJjICeDYSnFWl8n5hbt27BBzrB6sm1eKws+7Q2J8uN31TdE0QLA+Snymnt9I1m3e7Q3Mlb8ASnrVvCOMJdq30qPPcstUr0XAbH92c9+5iQWTwKUOp0IWxMi5rLt3938R/30sVYCiYfM514R5fR4Ahx11FHeb81VvHy66be57CcLbpfMNT/ZrgzuFcG2a1jdUehA7NmCL7c6W4R/P8dzgYQXR1PBD/2wQHquEKk6NwzH2CqR+2xxH1whgZcB20HihYNnRpX3DM9LKB962Z4wxgHGmLJCZhBjwTDgqjYIASEgBISAEBACQkAICIFOEBg4kY9KcZ21CPVO6LEYQqDYoxtrI3tHQ7TLgjXPoo03HYZcY91EIAkIE3pb85xsbbO7DuNqi3XzvPPOSxYEzhUGnvCh/yBwfKoEK7mt8fZT7FUdEnuJYzmtcuOFuLC/PVZzSDmWaNrTSnJyE+WT3tYN12YL8o8So87SX5u5wxMQsDrh2rEKs9QARQnCXvF4A7BHeHhd5Pkh4xa8zw/lXg55mvLfJ5xwguPYityW88Rv7h/7l7eSWDZRVgaV80DMIeIQzVZKnMhn6+B9j3fu509+8pPE8gAs8xb8z4l+pIvvsIpboLfGkpE4NxG/UdxAzlGksDSBPoInDBiiJMPTJYRlIzyr3AOLFxCHK79RpJQVfvQ7JF9+0e1YUFmZDgoBISAEhIAQEAJCQAgIgQmGwJgR+cABF3VcbnEThtxhScMNGKt9WSBktl2dr1/nHCT65S9/uSeDLIcrL+uMv/rVrzoBhjxAIiATFvCtXKT/hqhC0lEoYCmFOEM4WCcPGee3BWlrIhe523pOwCkQd/GDDz7Y12DjHgxZzdNXNsIORjnkgeggkBU8AnA1phwUCxxjnbxtheaeBqSLa+fvQQt1RkyAKJvfuMfTTrCBmO6yyy6uQLEdAbytFtSuVnlBLAK8IywwWRRZ+82acCzyFkm+a3drCoXEB7Z1leA1gWywwQZ1Sfw4ihOURCgwiFlgkdNbprdt0bwf0R/ok6xTt+0E3RPFgtE1LS2A9NN3EQtsmCwwZMuyx/IkeLGMYbfddmvCDk8DlnOgEAuJ66qL/UA6lhCw/p1rZnkNz5QF2HOlT5QTbvV4bxD7opV8+9vfdkWARcf3ZJQd2B1++OGNrN2OBY2M+kMICAEhIASEgBAQAkJACExkBIw0jqsYQSw+8IEP+L7QUXFErTcc8bn3jwX5akRn55iR8Eju+2UbgS+I2t2JsM1YlMs30cLz32ydVt6b2iyHjS3VjCw0VXPaaac15ScqeNWHLcxyecMb3uD5yttnsdVc3p5y+9haj8jwdcJ+8FVR681yWZelcZxdAWi7WZMbx8xy2thWzNZ8ewR2toR78pOf7O1k27Gq7fUaBTz0h3ktFGzL1kq4rg033LAwAlwYIW+VtLFPvRH/pnQWo6Aw74DC3Oebjuc/XvnKV3rbzbsgP1xYUDqPWm+eH8URRxzh5Zx11lm+rzz3hAjpRJo3gt+Ur/yD/dy5D7aO23ceIEI++bnniLn/+77oRLVny0PzrvCywbpXie0MLUBf10Xkz5x5x3h+ns3oh2ZNb5RJf+U4GHcqf/7znwsj9EXcKwsw2SjbPHNqi4mo9dEO9pJnV4H4TRtM8dTIb8s3im7GgkZG/SEEhIAQEAJCQAgIASEgBCYwAlh/l7sEqWCrN7bJMut7Y+Jua86LL33pS321kT2oIU9m7S9WXXVVLxvyauuQC7P4F2wnViUQEQgEW8LlggKB/EEu6r7ZXz2E7cjMK8DzlLenY79x2mFrqBtlshUfxJkybFlAFOPf5oFQvPnNby4gcHxoS5nIm2XVy4JAlvPnhZnl09OBeZDuG2+80bfdM2+FUXm5V+Ya7coQ7heYmoXU92W3gIOFRWkv2MOdbdzMxdyxY3s0lBEWiDCvukBZwt7xKBzMQtx0ruqHeSx4W2O/cggh2/7FdnzsDR8CyWWf8re97W2FRZj3refAvyxmofcyIeDsUx5En/sFmY17y7Z45lFSzl6YZ0dhHgq+h7ytGy8s8J6nQdHBtn2Q0OOPP96VQi94wQsKlBsIBDTKZis3CH1sMegJKv4zV//C1qX79nncK7ZSpIxeiDzYoaRgu0BbutKojWcCRVK+/RvKHOqBMPcqxxxzjJcBxq0kiDxYx/NH3dwf+hoYSISAEBACQkAICAEhIASEwIqOwNAReW4I5Ii9vrGSDlqw7EMMOlEOHHvssZ4W62ori3gnbYT8Uy+fSy65pDYLdVkU9NrznGDvcazikP0ok33SczHX6I6UDZHf1m4XWOdDIIpYaKvEtmcrvvjFLxa2nr0IIhzlVH1jfbb1zW7Zj/LAE6JmbtzFVVddFYdbfkP8c2VHXpdtwVfYko2m/D/96U+bMDIX8abzXAdElnL23HPPBsmORJB5C9xW2FZohS0jaMIDwo/SwmI/FCgWsGqXFSYW76GwJRcFyijb/i6KbXxD8LE4Uz+KAjBtJeBkLvxuzc+v3dzOW2WrPcfe8zxruXANVZ4RuRU8T9/p32FVR/nQSoLIgw2CUgnlSL/PX6s6dU4ICAEhIASEgBAQAkJACEw0BFaiwUYKlqsQ6Ox5z3ueR5+Ptcxj1SBzdU7s+X3yySf7OvdW9RDp3Ny+fa0+gboI1NermAU9EdWcaN8EyKsSonqztRnr7Qki107Y75z9sgmyx5ri8n7yrIMmCF8e7b5cJuv12T6NIGydbO9Vzs9vtvwiMBxr1dlfnA9rpI0U+oct3VgvH8K6Z2ITECiNOADdRuBnu7l8TTzXYES8sv30rQ996EOJ9d30sbJwX7k37HQADlXCteXYEtSO9d5gZsoIXxef5+P6jj76aF8Dz3Z0hx12mMcZyNPE3wRoJFI+2/flARDjfNU3Ad4OOeQQjytATAl2SxirQIhV9Xd7jHXzpuxI5jmSiEFAkMQ6IbI/2+YZkfeAg3XpdFwICAEhIASEgBAQAkJACKzICKxwRJ4twwjSxtZZtl657b0n8BnBvsxNOhGUrRdBV2Lu405i2JItD9aVlxd7fRPR3DwG8lO1fxO0j2B0E0kgxramPJnL/VA0GwUEwRQHJRBtCDrKCnNTH1SxTeXQ5jPOOCM9/elPH7M6mirs4weBD21ZhSs9fvOb37QsSUS+JTw6KQSEgBAQAkJACAgBISAEHIEVjsh3e9+Jco8VHatvvpVWN+VgYYSgQObNPXqorafdXJfSCoFOEMB7gm0lH/WoRyW8M1qJiHwrdHROCAgBISAEhIAQEAJCQAiMIDAURJ492S04me81z9ZXwybhmt6P+zJb6bGFG+7FEiEgBKoRsMB7CY8GtpKcPXt2dSIdFQJCQAgIASEgBISAEBACKzgCQ0HkV/B7oMsXAkJACAgBISAEhIAQEAJCQAgIASHQMQIyD3cMlRIKASEgBISAEBACQkAICAEhIASEgBBY/giIyC//e6AWCAEhIASEgBAQAkJACAgBISAEhIAQ6BgBEfmOoVJCISAEhIAQEAJCQAgIASEgBISAEBACyx8BEfnlfw/UAiEgBISAEBACQkAICAEhIASEgBAQAh0jICLfMVRKONER+NrXvpY++MEPprvvvnuiX4raLwSEgBAQAkJACAgBISAEhMAKjICi1q/AN39FuvTLLrssbbvttn7JV199ddp8881XpMvXtQoBISAEhIAQEAJCQAgIASHwP4SALPI1N/OII45Ij3rUo9Jpp51Wk0KHJxIC3/nOd7y5j33sY0XiJ9KNU1uFgBAQAkJACAgBISAEhIAQGIWAiPwoSFK6//7703HHHZcuuOCC9Lvf/a4ihQ5NJASWLVuWvve973mTX/SiF02kpqutQkAICAEhIASEgBAQAkJACAiBUQhMHnVEB9Iqq6ySXvayl6WbbropHXzwwUJkgiNw5pln+r2cMmVKOvTQQyf41aj5QkAICAEhIASEgBAQAkJACKzoCCwXi/zvf//79K53vatn7LGSf/zjH0/z58/vuYw84z333JOOOeaYdPbZZzcOExjt1FNPTbvvvnvjmP4YDAJvfvOb0znnnDOYwqyUdv0p3Or333//NHfu3J7rHXS7e26IMgoBISAEhIAQEAJCQAgIASGwQiMwrsHusIy+973vTX/84x/Teuutl2699VYH//rrr08/+MEP0q677pr23ntvJ9C//vWv0wMPPJB23nnn9NSnPjWtv/76jRv1yU9+Mr31rW9Na621Vnrb296WXvOa16SZM2c2znf6x7x589KnP/3p9JnPfCbde++96dhjj01HHnmkZ//+97+fbrjhhvS85z0vbbLJJo0iv/vd76ZbbrklvepVr0r33XdfOvnkk9Pf/vY3v54XvvCF6RGPeISnvfTSS9O3v/1tj5C+ww47pGc/+9meplHQQ3/ccccd6Uc/+lH65z//mZYuXZo222yzxrVMmjQpHX744WnWrFnlbE2/wfP000/39q6++uppr732SgceeGAiPxL47rTTTulxj3tc+uxnP5uuuOKKtMUWW6Sjjz46rbzyyp6Otvz85z9PF198cXrwwQfTIx/5SL/+Nddc088P6r/Zs2f78gXuKwoU7nEvUtef8rIWLFiQ1l13Xb9XJ554ot+HOA/Bv/3229NrX/tav//cr8svvzxttNFG6QlPeELaZ599Iql/D6rdTYXqhxAQAkJACAgBISAEhIAQEAJCoFsEinGQP/zhD4WRy8La5p/p06cXRugbNRuJ9+PPeMYzioMOOqiRLtKvs846ha1Xb6Q34lxsueWWjXRrr7128YlPfKIwC30jTas/jMAX73vf+4rVVlutUcaOO+5YGJluZNt666393PHHH984xh9x3MhwscYaazTy09apU6cWFhyvMOVAMXny5KZzpohoKp+yTjnllGLVVVdtShfXHN/nn38+SWvlda97XWV+U3Y08gS+++23X2Fkvin9XXfd5elOOumkwgh70znaMGfOnOK8885rlDWIP17/+tc34XPAAQcU7a4zr7ddf8rT2tp4vybutSmG8lONe8n9yvtCYG/KmsKUK408/ba7UZD+EAJCQAgIASEgBISAEBACQkAI9IFA6iNv26x/+tOfiic+8YkNcmiW5eItb3lLcdtttzXlDaIZBOoxj3lMYa7thVmLC7O0e/6tttqqsKBljXwQLPJtt912jfIh/J/61KcKs8I20uV//Of/t3duIVJlVxhepQNG8jB58CVoK76JTQRfFKFRExHRGFDjOGqPGmIkCVG8oEYmpiXedQIBbS9jjJcQRINKjOOA+OCTmidFQfAuUZFEoWWejNHUzv+vsA+nTldVV3WdsnvCv6H7nNqXtff5znlZe6291ldfhS1btgRYrZMxsAYHWKFLZHNMVNgrKfJcK87SByrSu3fvdoWXdYMGDXLZ8BYIOD4QOjo6As5me93ChQuT5cADILAPx3ADA1b1wM0BWP+9DunRwoEDB6puTsA93fvCoh46Ozt9s+P06dNhypQpziFOluVLZX7Dhg1h2rRpAYH9wpMnT8LgwYNdFrwHwsGDB8Phw4cDFX+uD8cYoqjcrvASCFSUIy/OAy+CwE2aSqXW7yk9Hu70/gzLli1LV/t9fMecm5tL8O4I8MoIkyZN8jGshwdGybjerLtEgH6IgAiIgAiIgAiIgAiIgAiIQIMEmqLIX716NUydOjVRhuCS7Erty5cvyy43rWi2t7eHt2/fJv3SbTgbn9THGyr3cG8PVMipePEPrtQB7vLh9evX3g0u8GHbtm0lFnScfQ9w349iul2jkldJkacSf+XKlWQc3LST+Wl9v3//ftIG93Fvo3U7FriFex2V+bhOth05csTrqVimrcFxXPpKhZvPS8W8WkkzhMt4N8v00qVLXc6IESMCNxjSBe7oAa726apc73G8wjd3uMkT3x8CDIYbN24k89T7PcWB3DDiJgflchMgW+I75veJ+AhJMy33Y8aM8XFtbW1JffqmlnWn++teBERABERABERABERABERABPIikLsij8BjiUJGd2VapLu6uqquNyqaVMDTSjwHvXv3LnH53r59e1U5Fy9eDBMnTkzmp5s+S7qOLv44T15VDhujkldJkacFPF3ooh4VUa4jXaiIxjZawFmi4o8z8emuAWe0k749HRW4cOGC96WySgt62mMhLTTypbJM63u2tLa2upytW7dmm97bb/LbuHFj4tlQKBTcOt+b7ykumt4Z5D5y5MiybOI73rt3bxySXOluz7H0GKhWKq272hi1iYAIiIAIiIAIiIAIiIAIiEAjBHKPWs/gYrFAgfKgYQzAVkthwDqcLS/pykBso0eP9rpnz56VtGV/MKhcOnAaA9ixpNfEIGY4D58dWvdvnG0vGcOAcFA+va5cW+zMAH4sDDTH8ujRI7t27Zrf89+ZM2f8ngH2egrgx2BsDGDHIHlMlzdq1CgP3McgfOUKjh5YS0tLSRM+Hnv48KHXMbhdXxXyGzdunHGNLFwXnyP97ur9nrAJ47IYhDC+G6/I/IOnRKbGDBZ5r3vz5o3Bk6Rbe6yotO7YrqsIiIAIiIAIiIAIiIAIiIAI5E0gd0Ue56oNllBXyOAebXCx92j0X3zxRa/XnlXus4IY/X7VqlVGRY8R7VlmzZplsLT6PdzVDdZ5v8cZeYMLua1fv94YpT3PUklZLFc/fvx4j1DP+bm5QE5MjwartC8JgdV6XBqC6xlc9P3ZGdn+3r17tnr1ao+cT/a1FEbuj5sL2Q2IWsY32ocKOwLt+YYE3xGfgVHmmUmAEfZ7+z0x8j4CJPryFi1aVPcye/rmelp33RNqgAiIgAiIgAiIgAiIgAiIgAjUSCB3RR6B3VyZpKUZkeQNEeU9ZzjToY0dO9YQjM2trTWuz7u9ePHCr0xZly5Pnz711HNM2caUajhr7mnXrl+/7sphtDAjIJ6dO3fOEBndECHdU58xDz0VfyrMPVn603PmdU8FnIxw/MDIDOf/DS75RmV6586drpzXMhdTojGFHjczeKV1menxcO69luFGbwkEuvO+OFNe05g8OuEYgKfdoxfFnDlzjBsPtMZzE4hcVq5c6d4Zvf2emCaQhSkNkeGg7iXHb47z0+oeS63rjv11FQEREAEREAEREAEREAEREIHcCcCy2NTCM+G7du0KQ4YM8TPHeICAXOvh7NmzybzpM9y3bt1K6nkDt+9kXIwgDkt6QL53T/dGefxjCrNa06Qx2vv06dMTuUwbx6jmMRUb543npyudkc/WcwzytrtMuMrzZ1JgZU7minOsXbvW6xg9noxu3rzpz9pTgLtEaIUbciUPnpuP8QYi3+x5/CiC74Nj4IIeq5Ir14Oc8snvPG4YWT/OyXnrSR9Yy/fENQ8dOtSfad++fRWXHN/xkiVLup2hX7x4sY/HEYhkfCPrToToRgREQAREQAREQAREQAREQAQaJJC7RR6KWUmhyzfd2B8/fmw7duxw6yYCurnVvqQjfiC4myFdnSHCuDfR5RsKtt/Tch3d40+cOGGHDh0yKJgGhdwt/nTdR9q6rMiyv3kWGznc/Ww6XbcpB+nu7Pz582X7N6MSUe9d7J49ewyKpB07dsyOHj3qRwOgjBtS5fU4LccgqnyJhwM2Cnwcctx3izdQSeDcuXO96dSpU+7JEPvRs4FMaSVnoecC2dGz4u7du7Fb3fX0FuA3gM0dwyaPW+CRlrDHmACcsJbvCQHy3CuBRw/mz5+frLPSzfHjxw0bQ34mn334bfAbY+G7iaWRdUcZuoqACIiACIiACIiACIiACIhAowRKI8s1Kq3KeCqusD67KzyV10uXLpXtTUUUUeaNwd54Dwus90NOdqMbOQvdwanAIyK+u057ZS/+0e2a7uxII2ebN2+2qFz3QlTdQ+jSD2uxB1KLAe7SQugiD0u6P2e6Pn3PzQuO5Zl/BvnjeXcqsSz1nAtfs2aNIX+60Z2cbu7IYW8MMogUer5JsGDBApfJoHzwekjuYdFO7uup57jZs2fb8uXLe8282veEjAC+rhkzZhg3NGopiPpvdMcfNmyYPXjwwIcgjaB/r3F8HuuOsnQVAREQAREQAREQAREQAREQgV4TaNCin8vwtOs3LOOBaevwQP7HPOv79+/PZZ56hOB8vc/PtaVLpXr2Yaoyrhtn8dNDArwRvJ6u969evfI2xA/wOh45gDIeYAX266ZNmwJd4CmHz16tYDMkIFK99428EOk+rFu3rsQdni7hbGffSgXW9oCAewFB3hJ5OK8feAQAkeN9GPPJM789nzOdd73e+kpryKOervdQ8v0ZyLVaia718BQJ8MxInpsM4BkSEGug2nC1iYAIiIAIiIAIiIAIiIAIiECfEChwVih5fVpOnjxptPoyaB1TodGl/s6dOx64jQHp+qLQ3Z7B87KpyZjqDWfPDQptt2WxP5R1g6LbrY2eBWyLKeUY2I0WcFrds+7fdDuPKfcYxC4b5C8rnH34x7XSOk+X8mxhKj6uuVxbui/Z8x0MHz7c10rLfLqwnZ9MDJAX2+qtj+PyvtKqTm8EWuIZvK/a8zJdH48IME0dxzB4IlPNsT6+p7zXJ3kiIAIiIAIiIAIiIAIiIAIi0CiB9+ZaX89CqXDmkeu9njmzfakAllMCqdhmlds4Nqvcxnpes2777e3tHmX+9u3b6W5+j0BwtmLFCqOLOFOx9VToAs6/aqXW1HJk39raWlFUuQ0Mdq63vuIEDTZEt/p58+aVfX/VxLe0tBj/VERABERABERABERABERABESgPxNoerC7/vzwZdcGa3Oxc1/ZJlYW9+zNpZ0B5KisMwBgW1ubp+Wj/BtLf2KXP5pnjCPA8+/ZHPTFvZ3sZuEvf7WA4HNlS1eXFT/+pKnt4cTJslP3ZSVjBDCNHwuizvflUjS3CIiACIiACIiACIiACIiACDSNQL+0yDftaWsUHD7dYUX0HbD8FyUjqMSHjbu8rtH2f79758o685TTXZ+R4y//cK5NvPQ3l//s01/Z97Zv6z7/r3ebrVhu9uS5FTfttAEX/mwFBGhLCpX4739k4fZdC3fmNa3dpnzXCsmk/eOGmQ0Y7I8eExMmTOgfi9IqREAEREAEREAEREAEREAERCBnAv1CkZ85c6ZdvnzZ05Hl/Hz1iysUrPDTH1tWmY9KfOHnS2GWDw23D+z4zIoffODp5rjIrs1bXIn/148W2uBB37Bvdx6xItzl42ZCyfzoX/jBdLMDf4DSnlLWoxL//J824E+/t+IvO5rX/vGc+tm+hxGTJk2qeRZ6PDBOQa1pC2sWrI4iIAIiIAIiIAIiIAIiIAIi0EQC/UKR5/nxyZMnN/Ex6xM94LPNbpGPyrwVi26JpxI/YNdvXBgt8nm2f/jbz43yv1mjfBs5wgZ+edr+M2Pu/5T1Px608LPVFqjEnz9lhTGtNvA7o5vXDtlf98JYANXiAXzdn0/rFwEREAEREAEREAEREAER+P8k0C+i1vdXtMV1HRY+P+LLSyvxcb193e7rePx3V9bt+T/MvvVhosTHNVqz25OJdCMCIiACIiACIiACIiACIiACIvA+CEiR74EylXUbUEgs8dnufd3u64GyXvxkmRUO/M4t8dk1Uplvanu3CVUhAiIgAiIgAiIgAiIgAiIgAiLQLAJS5JtF9n3LRbR9hLivPGuz2yvPrBYREAEREAEREAEREAEREAEREIEcCUiRzxGmRImACIiACIiACIiACIiACIiACIhAswkoj3yzCUu+CIiACIiACIiACIiACIiACIiACORIQIp8jjAlSgREQAREQAREQAREQAREQAREQASaTUCKfLMJS74IiIAIiIAIiIAIiIAIiIAIiIAI5EhAinyOMCVKBERABERABERABERABERABERABJpNQIp8swlLvgiIgAiIgAiIgAiIgAiIgAiIgAjkSOC/kKOUEbr/16YAAAAASUVORK5CYII=;" vertex="1" parent="1">
          <mxGeometry x="5" y="623.84" width="425" height="152.32" as="geometry" />
        </mxCell>
        <mxCell id="ytXNlUIByku6kUDmRZkM-40" value="正则/dom解析" style="text;html=1;align=center;verticalAlign=middle;resizable=0;points=[];autosize=1;strokeColor=none;fillColor=none;" vertex="1" parent="1">
          <mxGeometry x="671" y="700" width="100" height="30" as="geometry" />
        </mxCell>
      </root>
    </mxGraphModel>
  </diagram>
</mxfile>
